<svg width="41" height="41" viewBox="0 0 41 41" fill="none" xmlns="http://www.w3.org/2000/svg">
<path fill-rule="evenodd" clip-rule="evenodd" d="M30.104 40.2659C27.224 40.1599 19.062 39.0319 10.514 30.4859C1.968 21.9379 0.842 13.7779 0.734 10.8959C0.574 6.50394 3.938 2.23794 7.824 0.571943C8.29195 0.369877 8.8044 0.292944 9.31106 0.348694C9.81772 0.404444 10.3012 0.590961 10.714 0.889943C13.914 3.22194 16.122 6.74994 18.018 9.52394C18.4352 10.1334 18.6135 10.875 18.5191 11.6075C18.4247 12.34 18.0641 13.0122 17.506 13.4959L13.604 16.3939C13.4155 16.5301 13.2828 16.73 13.2306 16.9566C13.1783 17.1832 13.2101 17.421 13.32 17.6259C14.204 19.2319 15.776 21.6239 17.576 23.4239C19.376 25.2239 21.882 26.8999 23.6 27.8839C23.8154 28.0049 24.069 28.0387 24.3085 27.9784C24.5481 27.9181 24.7554 27.7684 24.888 27.5599L27.428 23.6939C27.895 23.0736 28.5839 22.6581 29.3504 22.5343C30.1169 22.4105 30.9015 22.5881 31.54 23.0299C34.354 24.9779 37.638 27.1479 40.042 30.2259C40.3653 30.6418 40.5709 31.1368 40.6374 31.6592C40.7039 32.1817 40.6288 32.7124 40.42 33.1959C38.746 37.1019 34.51 40.4279 30.104 40.2659Z" fill="#EE1D23" style="fill:#EE1D23;fill:color(display-p3 0.9333 0.1137 0.1373);fill-opacity:1;"/>
</svg>
