<svg width="114" height="119" viewBox="0 0 114 119" fill="none" xmlns="http://www.w3.org/2000/svg">
<path d="M14.8845 78.4346H25.7491V83.58H14.8845V78.4346Z" fill="#0400BF" style="fill:#0400BF;fill:color(display-p3 0.0157 0.0000 0.7490);fill-opacity:1;"/>
<path d="M14.8845 85.8621H25.7491V91.0075H14.8845V85.8621Z" fill="#0400BF" style="fill:#0400BF;fill:color(display-p3 0.0157 0.0000 0.7490);fill-opacity:1;"/>
<path d="M14.8845 93.2893H25.7491V107.502H14.8845V93.2893Z" fill="#0400BF" style="fill:#0400BF;fill:color(display-p3 0.0157 0.0000 0.7490);fill-opacity:1;"/>
<path d="M93.8567 21.6333C94.4837 21.6333 95.0966 21.8283 95.618 22.1936C96.1393 22.559 96.5456 23.0782 96.7856 23.6857C97.0255 24.2933 97.0883 24.9618 96.966 25.6067C96.8437 26.2517 96.5417 26.8441 96.0984 27.3091C95.655 27.7741 95.0901 28.0907 94.4752 28.219C93.8602 28.3473 93.2228 28.2814 92.6435 28.0298C92.0643 27.7782 91.5691 27.352 91.2208 26.8052C90.8725 26.2585 90.6865 25.6157 90.6865 24.9581C90.6868 24.0764 91.0209 23.2309 91.6154 22.6075C92.2098 21.984 93.016 21.6336 93.8567 21.6333Z" fill="#0400BF" style="fill:#0400BF;fill:color(display-p3 0.0157 0.0000 0.7490);fill-opacity:1;"/>
<path d="M93.8567 37.2305C94.4839 37.2302 95.0972 37.4251 95.6188 37.7903C96.1405 38.1556 96.5471 38.6749 96.7874 39.2825C97.0276 39.8902 97.0907 40.5589 96.9685 41.2042C96.8464 41.8494 96.5446 42.4422 96.1012 42.9075C95.6579 43.3728 95.0929 43.6898 94.4777 43.8184C93.8626 43.947 93.2249 43.8813 92.6454 43.6298C92.0658 43.3783 91.5703 42.9522 91.2217 42.4054C90.873 41.8585 90.6868 41.2156 90.6865 40.5577C90.6864 39.6757 91.0202 38.8296 91.6147 38.2057C92.2092 37.5818 93.0157 37.231 93.8567 37.2305Z" fill="#0400BF" style="fill:#0400BF;fill:color(display-p3 0.0157 0.0000 0.7490);fill-opacity:1;"/>
<path d="M5.19885 28.698C5.19885 29.5283 5.35479 30.3505 5.65775 31.1176C5.96071 31.8847 6.40477 32.5817 6.96457 33.1688C7.52437 33.7559 8.18895 34.2216 8.92037 34.5393C9.65179 34.857 10.4357 35.0206 11.2274 35.0206C12.0191 35.0206 12.803 34.857 13.5344 34.5393C14.2658 34.2216 14.9304 33.7559 15.4902 33.1688C16.05 32.5817 16.4941 31.8847 16.797 31.1176C17.1 30.3505 17.2559 29.5283 17.2559 28.698C17.2559 27.8677 17.1 27.0456 16.797 26.2785C16.4941 25.5114 16.05 24.8144 15.4902 24.2273C14.9304 23.6402 14.2658 23.1745 13.5344 22.8568C12.803 22.539 12.0191 22.3755 11.2274 22.3755C10.4357 22.3755 9.65179 22.539 8.92037 22.8568C8.18895 23.1745 7.52437 23.6402 6.96457 24.2273C6.40477 24.8144 5.96071 25.5114 5.65775 26.2785C5.35479 27.0456 5.19885 27.8677 5.19885 28.698Z" fill="#0400BF" style="fill:#0400BF;fill:color(display-p3 0.0157 0.0000 0.7490);fill-opacity:1;"/>
<path d="M65.5236 15.6544C65.5236 15.9564 65.638 16.2461 65.8416 16.4596C66.0452 16.6732 66.3214 16.7932 66.6094 16.7932C66.8973 16.7932 67.1735 16.6732 67.3772 16.4596C67.5808 16.2461 67.6952 15.9564 67.6952 15.6544C67.6952 15.3524 67.5808 15.0627 67.3772 14.8492C67.1735 14.6356 66.8973 14.5156 66.6094 14.5156C66.3214 14.5156 66.0452 14.6356 65.8416 14.8492C65.638 15.0627 65.5236 15.3524 65.5236 15.6544Z" fill="#0400BF" style="fill:#0400BF;fill:color(display-p3 0.0157 0.0000 0.7490);fill-opacity:1;"/>
<path d="M23.8708 21.6331C23.8708 21.7827 23.8989 21.9308 23.9535 22.0689C24.0081 22.2071 24.088 22.3326 24.1889 22.4384C24.2897 22.5441 24.4094 22.628 24.5411 22.6852C24.6729 22.7425 24.8141 22.7719 24.9567 22.7719C25.0992 22.7719 25.2404 22.7425 25.3722 22.6852C25.5039 22.628 25.6236 22.5441 25.7244 22.4384C25.8253 22.3326 25.9052 22.2071 25.9598 22.0689C26.0144 21.9308 26.0425 21.7827 26.0425 21.6331C26.0425 21.4836 26.0144 21.3355 25.9598 21.1974C25.9052 21.0592 25.8253 20.9337 25.7244 20.8279C25.6236 20.7222 25.5039 20.6383 25.3722 20.5811C25.2404 20.5238 25.0992 20.4944 24.9567 20.4944C24.8141 20.4944 24.6729 20.5238 24.5411 20.5811C24.4094 20.6383 24.2897 20.7222 24.1889 20.8279C24.088 20.9337 24.0081 21.0592 23.9535 21.1974C23.8989 21.3355 23.8708 21.4836 23.8708 21.6331Z" fill="#0400BF" style="fill:#0400BF;fill:color(display-p3 0.0157 0.0000 0.7490);fill-opacity:1;"/>
<path d="M16.545 65.3767C16.9706 65.3768 17.3867 65.5093 17.7406 65.7575C18.0945 66.0056 18.3702 66.3583 18.533 66.7708C18.6958 67.1833 18.7382 67.6372 18.655 68.075C18.5718 68.5128 18.3667 68.915 18.0656 69.2305C17.7644 69.5461 17.3808 69.7609 16.9633 69.8478C16.5458 69.9347 16.113 69.8898 15.7198 69.7187C15.3266 69.5477 14.9906 69.2582 14.7543 68.8869C14.518 68.5155 14.392 68.079 14.3922 67.6326C14.3921 67.3362 14.4478 67.0426 14.556 66.7688C14.6641 66.4949 14.8227 66.2461 15.0227 66.0366C15.2226 65.8271 15.46 65.661 15.7212 65.5477C15.9824 65.4345 16.2623 65.3764 16.545 65.3767Z" fill="#FFC077" style="fill:#FFC077;fill:color(display-p3 1.0000 0.7529 0.4667);fill-opacity:1;"/>
<path d="M87.5758 10.6857C87.5758 11.2845 87.8026 11.8588 88.2063 12.2822C88.6101 12.7056 89.1576 12.9435 89.7286 12.9435C90.2995 12.9435 90.8471 12.7056 91.2508 12.2822C91.6545 11.8588 91.8813 11.2845 91.8813 10.6857C91.8813 10.0869 91.6545 9.51267 91.2508 9.08926C90.8471 8.66585 90.2995 8.42798 89.7286 8.42798C89.1576 8.42798 88.6101 8.66585 88.2063 9.08926C87.8026 9.51267 87.5758 10.0869 87.5758 10.6857Z" fill="#FFC077" style="fill:#FFC077;fill:color(display-p3 1.0000 0.7529 0.4667);fill-opacity:1;"/>
<path d="M48.6493 1C49.075 0.999634 49.4913 1.13167 49.8455 1.37943C50.1997 1.62718 50.4759 1.97952 50.6392 2.39189C50.8025 2.80426 50.8455 3.25815 50.7628 3.69616C50.6802 4.13418 50.4755 4.53664 50.1747 4.85268C49.874 5.16871 49.4906 5.38412 49.0731 5.47167C48.6556 5.55921 48.2228 5.51496 47.8293 5.34451C47.4358 5.17406 47.0993 4.88507 46.8624 4.51407C46.6255 4.14307 46.4988 3.70673 46.4983 3.26022C46.4978 2.96361 46.553 2.66979 46.6608 2.3956C46.7687 2.1214 46.9271 1.8722 47.1268 1.66226C47.3266 1.45233 47.5639 1.28577 47.8252 1.17213C48.0864 1.05849 48.3665 1 48.6493 1Z" fill="#FFC077" style="fill:#FFC077;fill:color(display-p3 1.0000 0.7529 0.4667);fill-opacity:1;"/>
<path d="M4.94666 10.6857C4.94666 11.2845 5.17346 11.8588 5.57718 12.2822C5.9809 12.7056 6.52847 12.9435 7.09941 12.9435C7.67036 12.9435 8.21792 12.7056 8.62164 12.2822C9.02536 11.8588 9.25217 11.2845 9.25217 10.6857C9.25217 10.0869 9.02536 9.51267 8.62164 9.08926C8.21792 8.66585 7.67036 8.42798 7.09941 8.42798C6.52847 8.42798 5.9809 8.66585 5.57718 9.08926C5.17346 9.51267 4.94666 10.0869 4.94666 10.6857Z" fill="#FFC077" style="fill:#FFC077;fill:color(display-p3 1.0000 0.7529 0.4667);fill-opacity:1;"/>
<path d="M83.2835 70.174L80.6144 70.5895C80.0267 70.5905 79.4603 70.3595 79.0276 69.9424C78.595 69.5253 78.3279 68.9528 78.2795 68.3386V68.3101C78.1788 67.7127 78.287 67.0973 78.5843 66.577C78.8815 66.0566 79.3479 65.6662 79.8976 65.4774L82.5502 65.0645C82.3887 65.117 80.9551 65.6209 81.3011 68.0319C81.3451 68.5741 81.5665 69.0836 81.9278 69.474C82.2891 69.8645 82.7681 70.1118 83.2835 70.174Z" fill="#69D6F9" style="fill:#69D6F9;fill:color(display-p3 0.4118 0.8392 0.9765);fill-opacity:1;"/>
<path d="M101.792 19.2203V53.3461C101.792 53.5562 101.712 53.7576 101.571 53.9062C101.429 54.0547 101.237 54.1383 101.037 54.1387H86.6788C86.4785 54.1383 86.2866 54.0547 86.145 53.9061C86.0034 53.7575 85.9239 53.5561 85.9237 53.3461V19.2203C85.924 19.0103 86.0037 18.809 86.1452 18.6604C86.2867 18.5119 86.4786 18.4282 86.6788 18.4277H101.037C101.237 18.4282 101.429 18.5119 101.57 18.6604C101.712 18.8089 101.792 19.0102 101.792 19.2203ZM97.0288 24.9599C97.029 24.302 96.8432 23.6589 96.4949 23.1117C96.1466 22.5646 95.6514 22.1381 95.072 21.8862C94.4926 21.6342 93.8549 21.5682 93.2397 21.6963C92.6244 21.8245 92.0592 22.1411 91.6156 22.6061C91.1719 23.0712 90.8697 23.6637 90.7472 24.3089C90.6246 24.9541 90.6873 25.6229 90.9272 26.2307C91.1671 26.8386 91.5735 27.3581 92.095 27.7237C92.6164 28.0893 93.2296 28.2845 93.8568 28.2847C94.6978 28.2848 95.5045 27.9346 96.0993 27.3111C96.6941 26.6876 97.0285 25.8419 97.0288 24.9599ZM97.0288 40.5594C97.029 39.9016 96.8432 39.2584 96.4949 38.7113C96.1466 38.1642 95.6514 37.7377 95.072 37.4858C94.4926 37.2338 93.8549 37.1677 93.2397 37.2959C92.6244 37.424 92.0592 37.7406 91.6156 38.2057C91.1719 38.6707 90.8697 39.2633 90.7472 39.9085C90.6246 40.5537 90.6873 41.2225 90.9272 41.8303C91.1671 42.4381 91.5735 42.9577 92.095 43.3233C92.6164 43.6889 93.2296 43.8841 93.8568 43.8842C94.6981 43.8842 95.5049 43.5337 96.0997 42.9099C96.6946 42.286 97.0288 41.4399 97.0288 40.5576V40.5594Z" fill="#69D6F9" style="fill:#69D6F9;fill:color(display-p3 0.4118 0.8392 0.9765);fill-opacity:1;"/>
<path d="M28.6046 76.1695V110.292C28.6044 110.502 28.5248 110.704 28.3833 110.852C28.2417 111.001 28.0497 111.084 27.8495 111.085H13.4917C13.2913 111.084 13.0993 111.001 12.9576 110.852C12.816 110.704 12.7363 110.502 12.736 110.292V76.1695C12.736 75.9593 12.8156 75.7577 12.9573 75.6091C13.099 75.4605 13.2912 75.377 13.4917 75.377H27.8495C27.9487 75.377 28.0469 75.3975 28.1386 75.4373C28.2302 75.4771 28.3135 75.5355 28.3836 75.6091C28.4537 75.6827 28.5094 75.7701 28.5473 75.8663C28.5852 75.9624 28.6047 76.0655 28.6046 76.1695ZM25.7486 107.502V93.2893H14.8846V107.502H25.7486ZM25.7486 91.0081V85.862H14.8846V91.0081H25.7486ZM25.7486 83.5801V78.4359H14.8846V83.5814L25.7486 83.5801Z" fill="#69D6F9" style="fill:#69D6F9;fill:color(display-p3 0.4118 0.8392 0.9765);fill-opacity:1;"/>
<path d="M60.713 11.7916V45.9174C60.7131 46.1279 60.6336 46.3298 60.492 46.4789C60.3503 46.6279 60.158 46.7119 59.9573 46.7124H45.5995C45.3989 46.7118 45.2067 46.6277 45.0652 46.4787C44.9236 46.3296 44.8442 46.1278 44.8444 45.9174V11.7916C44.8445 11.5815 44.9241 11.3801 45.0657 11.2316C45.2072 11.083 45.3992 10.9994 45.5995 10.999H59.9573C60.1576 10.9992 60.3498 11.0827 60.4915 11.2313C60.6332 11.3799 60.7128 11.5814 60.713 11.7916Z" fill="#69D6F9" style="fill:#69D6F9;fill:color(display-p3 0.4118 0.8392 0.9765);fill-opacity:1;"/>
<path d="M19.1629 19.2203V53.3461C19.1629 53.4504 19.1433 53.5538 19.1052 53.6502C19.067 53.7465 19.0112 53.8341 18.9408 53.9078C18.8704 53.9816 18.7868 54.04 18.6948 54.0798C18.6029 54.1196 18.5043 54.1401 18.4048 54.1399H4.04821C3.949 54.1399 3.85075 54.1194 3.7591 54.0796C3.66745 54.0397 3.58418 53.9813 3.51405 53.9077C3.44393 53.8341 3.38832 53.7467 3.3504 53.6506C3.31249 53.5544 3.29302 53.4514 3.29309 53.3473V19.2215C3.29286 19.1174 3.31222 19.0142 3.35006 18.9179C3.38791 18.8216 3.44349 18.7341 3.51363 18.6603C3.58378 18.5866 3.6671 18.5281 3.75883 18.4882C3.85056 18.4483 3.9489 18.4277 4.04821 18.4277H18.4048C18.6055 18.4276 18.7981 18.5109 18.9402 18.6595C19.0823 18.8081 19.1624 19.0098 19.1629 19.2203ZM17.2559 28.6982C17.2561 27.4477 16.9026 26.2253 16.2402 25.1855C15.5779 24.1456 14.6364 23.3352 13.5348 22.8565C12.4333 22.3779 11.2211 22.2526 10.0517 22.4965C8.88219 22.7404 7.80795 23.3425 6.96479 24.2267C6.12162 25.1109 5.5474 26.2375 5.31474 27.4639C5.08208 28.6904 5.20143 29.9617 5.6577 31.117C6.11397 32.2723 6.88666 33.2598 7.87806 33.9546C8.86946 34.6493 10.035 35.0202 11.2274 35.0202C12.8262 35.0202 14.3595 34.3541 15.49 33.1686C16.6206 31.983 17.2558 30.375 17.2559 28.6982Z" fill="#69D6F9" style="fill:#69D6F9;fill:color(display-p3 0.4118 0.8392 0.9765);fill-opacity:1;"/>
<path d="M80.7732 19.9629C80.9883 19.9625 81.1987 20.0291 81.3778 20.1542C81.5568 20.2794 81.6964 20.4574 81.7789 20.6658C81.8614 20.8742 81.883 21.1035 81.8412 21.3248C81.7993 21.5462 81.6957 21.7494 81.5436 21.909C81.3915 22.0685 81.1976 22.1771 80.9866 22.2211C80.7756 22.265 80.5569 22.2423 80.3582 22.1558C80.1595 22.0692 79.9898 21.9228 79.8704 21.7351C79.7511 21.5473 79.6876 21.3267 79.688 21.101C79.6881 20.7992 79.8025 20.5098 80.006 20.2964C80.2095 20.083 80.4854 19.9631 80.7732 19.9629Z" fill="#0400BF" style="fill:#0400BF;fill:color(display-p3 0.0157 0.0000 0.7490);fill-opacity:1;"/>
<path d="M79.6877 31.006C79.6877 31.308 79.8021 31.5976 80.0058 31.8112C80.2094 32.0247 80.4856 32.1447 80.7736 32.1447C81.0615 32.1447 81.3377 32.0247 81.5413 31.8112C81.745 31.5976 81.8594 31.308 81.8594 31.006C81.8594 30.7039 81.745 30.4143 81.5413 30.2007C81.3377 29.9872 81.0615 29.8672 80.7736 29.8672C80.4856 29.8672 80.2094 29.9872 80.0058 30.2007C79.8021 30.4143 79.6877 30.7039 79.6877 31.006Z" fill="#0400BF" style="fill:#0400BF;fill:color(display-p3 0.0157 0.0000 0.7490);fill-opacity:1;"/>
<path d="M79.6877 35.9583C79.6877 36.2604 79.8021 36.55 80.0058 36.7636C80.2094 36.9771 80.4856 37.0971 80.7736 37.0971C81.0615 37.0971 81.3377 36.9771 81.5413 36.7636C81.745 36.55 81.8594 36.2604 81.8594 35.9583C81.8594 35.6563 81.745 35.3667 81.5413 35.1531C81.3377 34.9396 81.0615 34.8196 80.7736 34.8196C80.4856 34.8196 80.2094 34.9396 80.0058 35.1531C79.8021 35.3667 79.6877 35.6563 79.6877 35.9583Z" fill="#0400BF" style="fill:#0400BF;fill:color(display-p3 0.0157 0.0000 0.7490);fill-opacity:1;"/>
<path d="M80.7732 39.77C80.9882 39.7697 81.1986 39.8362 81.3775 39.9612C81.5565 40.0862 81.6961 40.2641 81.7787 40.4723C81.8612 40.6806 81.883 40.9098 81.8413 41.1311C81.7996 41.3523 81.6963 41.5556 81.5444 41.7152C81.3925 41.8749 81.1989 41.9837 80.988 42.0279C80.7772 42.0721 80.5586 42.0497 80.3598 41.9636C80.1611 41.8775 79.9912 41.7314 79.8716 41.544C79.752 41.3566 79.6881 41.1362 79.688 40.9106C79.6878 40.761 79.7156 40.6128 79.7701 40.4744C79.8245 40.3361 79.9044 40.2104 80.0052 40.1044C80.106 39.9985 80.2257 39.9144 80.3575 39.8571C80.4892 39.7997 80.6305 39.7701 80.7732 39.77Z" fill="#0400BF" style="fill:#0400BF;fill:color(display-p3 0.0157 0.0000 0.7490);fill-opacity:1;"/>
<path d="M34.3988 87.8811C34.6138 87.8809 34.824 87.9475 35.0029 88.0725C35.1818 88.1976 35.3213 88.3755 35.4038 88.5837C35.4863 88.7919 35.508 89.0211 35.4663 89.2423C35.4246 89.4635 35.3213 89.6667 35.1694 89.8263C35.0176 89.9859 34.824 90.0947 34.6132 90.139C34.4024 90.1832 34.1838 90.1608 33.9851 90.0748C33.7864 89.9887 33.6165 89.8428 33.4968 89.6555C33.3772 89.4681 33.3132 89.2478 33.313 89.0223C33.3128 88.72 33.4271 88.43 33.6307 88.2161C33.8343 88.0021 34.1106 87.8816 34.3988 87.8811Z" fill="#0400BF" style="fill:#0400BF;fill:color(display-p3 0.0157 0.0000 0.7490);fill-opacity:1;"/>
<path d="M34.3988 97.7861C34.6136 97.7861 34.8235 97.8529 35.0021 97.9781C35.1807 98.1032 35.3198 98.2811 35.402 98.4893C35.4842 98.6974 35.5056 98.9264 35.4637 99.1473C35.4218 99.3682 35.3183 99.5711 35.1664 99.7303C35.0145 99.8896 34.8209 99.998 34.6103 100.042C34.3996 100.086 34.1813 100.063 33.9829 99.9768C33.7845 99.8905 33.6149 99.7445 33.4957 99.5571C33.3765 99.3698 33.3129 99.1495 33.313 98.9243C33.3135 98.6225 33.428 98.3332 33.6316 98.1198C33.8351 97.9065 34.111 97.7865 34.3988 97.7861Z" fill="#0400BF" style="fill:#0400BF;fill:color(display-p3 0.0157 0.0000 0.7490);fill-opacity:1;"/>
<path d="M58.9494 67.6034C59.8151 67.6981 60.69 67.6328 61.5342 67.4105C63.4117 66.8874 64.4745 64.7874 64.4745 64.7874C65.1323 65.7503 65.9014 66.6241 66.764 67.3888L58.3846 68.6061C58.5937 68.2991 58.7817 67.9768 58.947 67.6417L58.9494 67.6034Z" fill="#0400BF" style="fill:#0400BF;fill:color(display-p3 0.0157 0.0000 0.7490);fill-opacity:1;"/>
<path d="M55.4969 60.6843C57.6408 57.5413 63.1229 52.6678 66.7894 52.2765C67.7791 52.1696 72.5073 54.3414 76.1992 56.0742C76.1992 56.0742 84.8055 55.7515 85.9897 57.153C90.9006 62.9501 95.2038 78.8075 96.0438 80.5688C96.8838 82.3301 108.988 89.4186 113 91.5954V117.243L89.355 102.24C87.8549 102.433 86.338 102.433 84.8379 102.24C72.1371 99.6533 55.1172 86.173 51.8215 84.5711C49.4005 83.3965 48.8246 80.9391 48.5205 79.2897C48.4552 78.8237 48.3547 78.364 48.2198 77.9148C48.0121 77.4732 47.7361 77.0708 47.4028 76.7241C47.0043 76.2653 46.5269 75.7905 46.1013 75.3491C45.7651 75.0133 45.454 74.651 45.1705 74.2654C44.8372 73.7785 44.6482 73.1993 44.6272 72.6003C44.6062 72.0013 44.7542 71.4092 45.0526 70.8979C45.277 70.471 45.5592 70.0804 45.8902 69.7382C47.0621 68.5067 49.8751 69.5589 49.9888 69.5997C50.0987 68.7014 50.4232 67.8468 50.932 67.115C52.714 64.215 53.1166 62.6354 53.7314 61.7804C53.9303 61.4925 54.2012 61.2679 54.5142 61.1313C54.7429 61.028 55.0848 60.8729 55.4969 60.6843ZM58.9494 67.6034V67.6442C58.7841 67.9793 58.5961 68.3016 58.3871 68.6087C57.5783 69.8769 56.4223 70.8587 55.0713 71.4247C54.9009 71.4865 54.7211 71.5415 54.5407 71.5897C55.2644 72.3746 55.8877 73.2547 56.3952 74.2079C56.5272 74.4571 56.6428 74.7155 56.7412 74.9813C56.7412 74.9813 63.2685 79.2124 64.3195 79.8238C64.3195 79.8238 71.0236 76.0935 73.0673 75.0524C73.0673 75.0524 70.878 72.6994 70.4046 72.0763L80.6184 70.5894L83.2876 70.174L84.4801 69.9885C85.1244 69.8864 85.7038 69.5207 86.0916 68.9714C86.4793 68.4222 86.6438 67.7343 86.549 67.0581C86.4542 66.382 86.1078 65.7729 85.5857 65.364C85.0636 64.9551 84.4083 64.7798 83.7633 64.8765L82.5684 65.0619C82.5639 65.0614 82.5594 65.0614 82.5549 65.0619L79.9022 65.4749L66.7711 67.3864C65.9085 66.6217 65.1395 65.7479 64.4816 64.785C64.4816 64.785 63.4206 66.8869 61.5413 67.4081C60.695 67.6322 59.8176 67.6983 58.9494 67.6034Z" fill="#FFC077" style="fill:#FFC077;fill:color(display-p3 1.0000 0.7529 0.4667);fill-opacity:1;"/>
<path d="M113 91.5972C108.988 89.4204 96.8831 82.3294 96.0437 80.5706C95.2043 78.8117 90.9006 62.9513 85.9897 57.1548C84.806 55.7533 76.1997 56.076 76.1997 56.076" stroke="#0400BF" style="stroke:#0400BF;stroke:color(display-p3 0.0157 0.0000 0.7490);stroke-opacity:1;" stroke-width="1.544" stroke-linecap="round" stroke-linejoin="round"/>
<path d="M49.9876 69.6042C49.8738 69.5634 47.0609 68.5112 45.889 69.7427C45.558 70.085 45.2758 70.4756 45.0514 70.9025C44.753 71.4137 44.605 72.0059 44.626 72.6049C44.647 73.2039 44.8359 73.7831 45.1693 74.2699C45.4527 74.6555 45.7639 75.0178 46.1 75.3537C46.5256 75.7951 47.0031 76.2699 47.4016 76.7286C47.7348 77.0754 48.0109 77.4778 48.2186 77.9193C48.3535 78.3685 48.454 78.8283 48.5192 79.2942C48.824 80.943 49.3999 83.3992 51.8203 84.5757C55.116 86.1775 72.1359 99.6603 84.8367 102.244C86.3368 102.437 87.8537 102.437 89.3538 102.244L112.999 117.247" stroke="#0400BF" style="stroke:#0400BF;stroke:color(display-p3 0.0157 0.0000 0.7490);stroke-opacity:1;" stroke-width="1.544" stroke-linecap="round" stroke-linejoin="round"/>
<path d="M54.532 71.5872H54.5367C55.2603 72.372 55.8837 73.2521 56.3912 74.2053C56.5232 74.4546 56.6388 74.713 56.7372 74.9787C56.7372 74.9787 63.2644 79.2098 64.3155 79.8212C64.3155 79.8212 71.0195 76.0909 73.0632 75.0498C73.0632 75.0498 70.8739 72.6969 70.4006 72.0737L70.3941 72.0688" stroke="#0400BF" style="stroke:#0400BF;stroke:color(display-p3 0.0157 0.0000 0.7490);stroke-opacity:1;" stroke-width="1.544" stroke-linecap="round" stroke-linejoin="round"/>
<path d="M47.4023 76.7258C47.4023 76.7258 48.0943 74.1095 48.6697 73.4245C49.245 72.7396 47.7707 71.1526 46.8287 70.4441" stroke="#0400BF" style="stroke:#0400BF;stroke:color(display-p3 0.0157 0.0000 0.7490);stroke-opacity:1;" stroke-width="1.544" stroke-linecap="round" stroke-linejoin="round"/>
<path d="M49.6233 77.1997C49.2696 77.7703 48.3854 78.6272 48.5198 79.2905" stroke="#0400BF" style="stroke:#0400BF;stroke:color(display-p3 0.0157 0.0000 0.7490);stroke-opacity:1;" stroke-width="1.544" stroke-linecap="round" stroke-linejoin="round"/>
<path d="M66.7893 67.4105L66.7639 67.3888C65.9013 66.6241 65.1323 65.7503 64.4744 64.7874C64.4744 64.7874 63.4134 66.8893 61.5341 67.4105C60.6899 67.6328 59.815 67.6981 58.9493 67.6034C58.577 67.5694 58.2079 67.5049 57.8452 67.4105" stroke="#0400BF" style="stroke:#0400BF;stroke:color(display-p3 0.0157 0.0000 0.7490);stroke-opacity:1;" stroke-width="1.544" stroke-linecap="round" stroke-linejoin="round"/>
<path d="M58.9471 67.6443C58.7817 67.9794 58.5938 68.3017 58.3847 68.6088C57.5759 69.877 56.4199 70.8588 55.0689 71.4248C54.8986 71.4866 54.7188 71.5416 54.5384 71.5898C54.4382 71.6133 54.338 71.635 54.2336 71.6517C51.9076 72.0739 49.8821 71.5206 49.9894 69.5992C50.0993 68.7009 50.4238 67.8463 50.9326 67.1145C52.7146 64.2145 53.1172 62.6343 53.732 61.7799C53.9309 61.492 54.2018 61.2673 54.5148 61.1308C54.7506 61.0257 55.0901 60.8705 55.5022 60.6819C57.316 59.8374 60.5522 58.2789 62.7073 57.0963C65.3493 55.6471 66.1893 55.9624 67.7526 56.6548C69.3159 57.3472 77.3021 62.0723 77.3021 62.0723" stroke="#0400BF" style="stroke:#0400BF;stroke:color(display-p3 0.0157 0.0000 0.7490);stroke-opacity:1;" stroke-width="1.544" stroke-linecap="round" stroke-linejoin="round"/>
<path d="M80.3207 57.9875C79.5674 57.6679 78.0082 56.9229 76.1991 56.0759C72.5078 54.3449 67.7791 52.1713 66.7894 52.2782C63.1228 52.6677 57.6407 57.5411 55.4968 60.686" stroke="#0400BF" style="stroke:#0400BF;stroke:color(display-p3 0.0157 0.0000 0.7490);stroke-opacity:1;" stroke-width="1.544" stroke-linecap="round" stroke-linejoin="round"/>
<path d="M58.3846 68.6086L66.764 67.3888L79.8951 65.4773" stroke="#0400BF" style="stroke:#0400BF;stroke:color(display-p3 0.0157 0.0000 0.7490);stroke-opacity:1;" stroke-width="1.544" stroke-linecap="round" stroke-linejoin="round"/>
<path d="M80.6143 70.5894L70.4005 72.0762L56.6051 74.086" stroke="#0400BF" style="stroke:#0400BF;stroke:color(display-p3 0.0157 0.0000 0.7490);stroke-opacity:1;" stroke-width="1.544" stroke-linecap="round" stroke-linejoin="round"/>
<path d="M42.9854 72.2124L40.3315 73.9001L42.4483 74.4726L42.9235 74.6018L46.0164 75.4395" stroke="#0400BF" style="stroke:#0400BF;stroke:color(display-p3 0.0157 0.0000 0.7490);stroke-opacity:1;" stroke-width="1.544" stroke-linecap="round" stroke-linejoin="round"/>
<path d="M45.0467 70.8997L42.9854 72.2121" stroke="#0400BF" style="stroke:#0400BF;stroke:color(display-p3 0.0157 0.0000 0.7490);stroke-opacity:1;" stroke-width="1.544" stroke-linecap="round" stroke-linejoin="round"/>
<path d="M83.2835 70.174L80.6144 70.5895C80.0267 70.5905 79.4603 70.3595 79.0276 69.9424C78.595 69.5253 78.3279 68.9528 78.2795 68.3386V68.3101C78.1788 67.7127 78.287 67.0973 78.5843 66.577C78.8815 66.0566 79.3479 65.6662 79.8976 65.4774L82.5502 65.0645" stroke="#0400BF" style="stroke:#0400BF;stroke:color(display-p3 0.0157 0.0000 0.7490);stroke-opacity:1;" stroke-width="1.544" stroke-linecap="round" stroke-linejoin="round"/>
<path d="M83.2832 70.1741L84.4757 69.9887C85.12 69.8865 85.6994 69.5208 86.0872 68.9716C86.4749 68.4223 86.6394 67.7344 86.5446 67.0583C86.4498 66.3821 86.1034 65.773 85.5813 65.3641C85.0592 64.9552 84.4039 64.7799 83.7589 64.8766L82.564 65.0621C82.5595 65.0616 82.555 65.0616 82.5505 65.0621C82.3889 65.1146 80.9553 65.6184 81.3014 68.0295C81.3448 68.572 81.5659 69.082 81.9271 69.473C82.2884 69.8639 82.7675 70.1116 83.2832 70.1741Z" stroke="#0400BF" style="stroke:#0400BF;stroke:color(display-p3 0.0157 0.0000 0.7490);stroke-opacity:1;" stroke-width="1.544" stroke-linecap="round" stroke-linejoin="round"/>
<path d="M40.3314 73.8997L38.9868 74.0357" stroke="#0400BF" style="stroke:#0400BF;stroke:color(display-p3 0.0157 0.0000 0.7490);stroke-opacity:1;" stroke-width="1.544" stroke-linecap="round" stroke-linejoin="round"/>
<path d="M18.416 55.9947H4.03814C3.23243 55.9945 2.45975 55.6588 1.89002 55.0613C1.3203 54.4638 1.00016 53.6534 1 52.8084V19.2347C1.00031 18.3897 1.3205 17.5794 1.8902 16.982C2.45989 16.3845 3.23247 16.0487 4.03814 16.0483H18.416C19.2217 16.0485 19.9944 16.3843 20.5641 16.9818C21.1338 17.5793 21.454 18.3896 21.4541 19.2347V52.8084C21.454 53.6534 21.1338 54.4638 20.5641 55.0613C19.9944 55.6588 19.2217 55.9945 18.416 55.9947Z" stroke="#0400BF" style="stroke:#0400BF;stroke:color(display-p3 0.0157 0.0000 0.7490);stroke-opacity:1;" stroke-width="1.544" stroke-linecap="round" stroke-linejoin="round"/>
<path d="M18.4048 54.1399H4.04821C3.949 54.1399 3.85075 54.1194 3.7591 54.0796C3.66745 54.0397 3.58418 53.9813 3.51405 53.9077C3.44393 53.8341 3.38832 53.7467 3.3504 53.6506C3.31249 53.5544 3.29302 53.4514 3.29309 53.3473V19.2215C3.29286 19.1174 3.31222 19.0142 3.35006 18.9179C3.38791 18.8216 3.44349 18.7341 3.51363 18.6603C3.58378 18.5866 3.6671 18.5281 3.75883 18.4882C3.85056 18.4483 3.9489 18.4277 4.04821 18.4277H18.4048C18.6055 18.4276 18.7981 18.5109 18.9402 18.6595C19.0823 18.8081 19.1624 19.0098 19.1629 19.2203V53.3461C19.1629 53.4504 19.1433 53.5538 19.1052 53.6502C19.067 53.7465 19.0112 53.8341 18.9408 53.9078C18.8704 53.9816 18.7868 54.04 18.6948 54.0798C18.6029 54.1196 18.5043 54.1401 18.4048 54.1399Z" stroke="#0400BF" style="stroke:#0400BF;stroke:color(display-p3 0.0157 0.0000 0.7490);stroke-opacity:1;" stroke-width="1.544" stroke-linecap="round" stroke-linejoin="round"/>
<path d="M7.08337 17.2153H14.6634" stroke="#0400BF" style="stroke:#0400BF;stroke:color(display-p3 0.0157 0.0000 0.7490);stroke-opacity:1;" stroke-width="1.544" stroke-linecap="round" stroke-linejoin="round"/>
<path d="M16.0039 10.9287H10.8726" stroke="#0400BF" style="stroke:#0400BF;stroke:color(display-p3 0.0157 0.0000 0.7490);stroke-opacity:1;" stroke-width="1.544" stroke-linecap="round" stroke-linejoin="round"/>
<path d="M4.94666 10.6857C4.94666 11.2845 5.17346 11.8588 5.57718 12.2822C5.9809 12.7056 6.52847 12.9435 7.09941 12.9435C7.67036 12.9435 8.21792 12.7056 8.62164 12.2822C9.02536 11.8588 9.25217 11.2845 9.25217 10.6857C9.25217 10.0869 9.02536 9.51267 8.62164 9.08926C8.21792 8.66585 7.67036 8.42798 7.09941 8.42798C6.52847 8.42798 5.9809 8.66585 5.57718 9.08926C5.17346 9.51267 4.94666 10.0869 4.94666 10.6857Z" stroke="#0400BF" style="stroke:#0400BF;stroke:color(display-p3 0.0157 0.0000 0.7490);stroke-opacity:1;" stroke-width="1.544" stroke-linecap="round" stroke-linejoin="round"/>
<path d="M27.8628 112.942H13.4826C13.0836 112.942 12.6885 112.86 12.3199 112.7C11.9512 112.539 11.6163 112.305 11.3341 112.009C11.052 111.713 10.8282 111.362 10.6756 110.975C10.5229 110.588 10.4444 110.174 10.4445 109.756V76.1813C10.4444 75.7629 10.5229 75.3485 10.6756 74.9619C10.8282 74.5754 11.052 74.2241 11.3342 73.9283C11.6163 73.6324 11.9513 73.3978 12.3199 73.2378C12.6885 73.0777 13.0836 72.9954 13.4826 72.9956H27.8628C28.6684 72.9958 29.441 73.3314 30.0107 73.9288C30.5804 74.5262 30.9006 75.3364 30.9009 76.1813V109.756C30.9006 110.601 30.5804 111.411 30.0107 112.008C29.4411 112.606 28.6685 112.942 27.8628 112.942Z" stroke="#0400BF" style="stroke:#0400BF;stroke:color(display-p3 0.0157 0.0000 0.7490);stroke-opacity:1;" stroke-width="1.544" stroke-linecap="round" stroke-linejoin="round"/>
<path d="M27.8495 111.085H13.4917C13.2913 111.084 13.0993 111.001 12.9576 110.852C12.816 110.704 12.7363 110.502 12.736 110.292V76.1695C12.736 75.9593 12.8156 75.7577 12.9573 75.6091C13.099 75.4605 13.2912 75.377 13.4917 75.377H27.8495C27.9487 75.377 28.0469 75.3975 28.1386 75.4373C28.2302 75.4771 28.3135 75.5355 28.3836 75.6091C28.4537 75.6827 28.5094 75.7701 28.5473 75.8663C28.5852 75.9624 28.6047 76.0655 28.6046 76.1695V110.292C28.6044 110.502 28.5248 110.704 28.3833 110.852C28.2417 111.001 28.0497 111.084 27.8495 111.085Z" stroke="#0400BF" style="stroke:#0400BF;stroke:color(display-p3 0.0157 0.0000 0.7490);stroke-opacity:1;" stroke-width="1.544" stroke-linecap="round" stroke-linejoin="round"/>
<path d="M16.5251 74.1621H24.1058" stroke="#0400BF" style="stroke:#0400BF;stroke:color(display-p3 0.0157 0.0000 0.7490);stroke-opacity:1;" stroke-width="1.544" stroke-linecap="round" stroke-linejoin="round"/>
<path d="M25.4485 67.8779H20.3165" stroke="#0400BF" style="stroke:#0400BF;stroke:color(display-p3 0.0157 0.0000 0.7490);stroke-opacity:1;" stroke-width="1.544" stroke-linecap="round" stroke-linejoin="round"/>
<path d="M18.6934 67.6326C18.6935 68.079 18.5674 68.5154 18.331 68.8865C18.0946 69.2577 17.7586 69.547 17.3653 69.7179C16.9721 69.8887 16.5394 69.9334 16.122 69.8464C15.7046 69.7593 15.3211 69.5443 15.0202 69.2286C14.7193 68.9129 14.5144 68.5107 14.4315 68.0729C14.3486 67.6351 14.3913 67.1813 14.5543 66.769C14.7173 66.3566 14.9933 66.0043 15.3473 65.7564C15.7013 65.5086 16.1174 65.3765 16.543 65.3767C17.1134 65.3769 17.6604 65.6146 18.0636 66.0377C18.4669 66.4607 18.6934 67.0344 18.6934 67.6326Z" stroke="#0400BF" style="stroke:#0400BF;stroke:color(display-p3 0.0157 0.0000 0.7490);stroke-opacity:1;" stroke-width="1.544" stroke-linecap="round" stroke-linejoin="round"/>
<path d="M59.9661 48.5646H45.5883C45.1894 48.5647 44.7944 48.4823 44.4259 48.3222C44.0574 48.162 43.7226 47.9273 43.4406 47.6314C43.1587 47.3354 42.9351 46.9841 42.7827 46.5975C42.6303 46.2109 42.5521 45.7966 42.5525 45.3783V11.8089C42.5522 11.3906 42.6305 10.9763 42.7829 10.5897C42.9353 10.2031 43.1589 9.85187 43.4408 9.55596C43.7228 9.26005 44.0575 9.02531 44.426 8.86515C44.7945 8.70499 45.1894 8.62256 45.5883 8.62256H59.9661C60.3652 8.62223 60.7604 8.70443 61.1291 8.86444C61.4979 9.02445 61.8329 9.25914 62.1151 9.55508C62.3973 9.85102 62.6211 10.2024 62.7736 10.5891C62.9262 10.9759 63.0046 11.3903 63.0043 11.8089V45.3783C63.0046 45.7968 62.9263 46.2113 62.7738 46.5981C62.6212 46.9849 62.3975 47.3363 62.1153 47.6322C61.8331 47.9282 61.498 48.1629 61.1292 48.3229C60.7604 48.4829 60.3652 48.565 59.9661 48.5646Z" stroke="#0400BF" style="stroke:#0400BF;stroke:color(display-p3 0.0157 0.0000 0.7490);stroke-opacity:1;" stroke-width="1.544" stroke-linecap="round" stroke-linejoin="round"/>
<path d="M59.9573 46.7106H45.5995C45.3992 46.7099 45.2073 46.6261 45.0658 46.4775C44.9243 46.3288 44.8447 46.1274 44.8444 45.9174V11.7916C44.8445 11.5815 44.9241 11.3801 45.0657 11.2316C45.2072 11.083 45.3992 10.9994 45.5995 10.999H59.9573C60.1576 10.9992 60.3498 11.0827 60.4915 11.2313C60.6332 11.3799 60.7128 11.5814 60.713 11.7916V45.9174C60.7127 46.1275 60.633 46.329 60.4913 46.4777C60.3497 46.6263 60.1577 46.7101 59.9573 46.7106Z" stroke="#0400BF" style="stroke:#0400BF;stroke:color(display-p3 0.0157 0.0000 0.7490);stroke-opacity:1;" stroke-width="1.544" stroke-linecap="round" stroke-linejoin="round"/>
<path d="M48.6337 9.78809H56.2137" stroke="#0400BF" style="stroke:#0400BF;stroke:color(display-p3 0.0157 0.0000 0.7490);stroke-opacity:1;" stroke-width="1.544" stroke-linecap="round" stroke-linejoin="round"/>
<path d="M57.5563 3.50122H52.4243" stroke="#0400BF" style="stroke:#0400BF;stroke:color(display-p3 0.0157 0.0000 0.7490);stroke-opacity:1;" stroke-width="1.544" stroke-linecap="round" stroke-linejoin="round"/>
<path d="M50.802 3.26018C50.8019 3.70655 50.6756 4.14286 50.4391 4.51394C50.2025 4.88503 49.8664 5.17424 49.4732 5.345C49.0799 5.51576 48.6473 5.5604 48.2298 5.47329C47.8124 5.38618 47.429 5.17122 47.128 4.85559C46.8271 4.53997 46.6221 4.13784 46.5391 3.70006C46.456 3.26228 46.4986 2.8085 46.6614 2.39609C46.8242 1.98368 47.1 1.63116 47.4538 1.38309C47.8076 1.13503 48.2236 1.00256 48.6493 1.00244C48.932 1.00236 49.212 1.0607 49.4732 1.17414C49.7344 1.28757 49.9717 1.45387 50.1717 1.66354C50.3716 1.87321 50.5301 2.12213 50.6383 2.39609C50.7465 2.67005 50.8021 2.96367 50.802 3.26018Z" stroke="#0400BF" style="stroke:#0400BF;stroke:color(display-p3 0.0157 0.0000 0.7490);stroke-opacity:1;" stroke-width="1.544" stroke-linecap="round" stroke-linejoin="round"/>
<path d="M101.045 55.9947H86.6674C85.8617 55.9945 85.089 55.6588 84.5193 55.0613C83.9496 54.4638 83.6294 53.6534 83.6293 52.8084V19.2347C83.6296 18.3897 83.9498 17.5794 84.5195 16.982C85.0892 16.3845 85.8617 16.0487 86.6674 16.0483H101.045C101.444 16.0483 101.839 16.1306 102.208 16.2907C102.577 16.4508 102.912 16.6855 103.194 16.9814C103.476 17.2773 103.7 17.6286 103.852 18.0152C104.005 18.4018 104.083 18.8162 104.083 19.2347V52.8084C104.084 53.2269 104.005 53.6413 103.852 54.0279C103.7 54.4146 103.476 54.7659 103.194 55.0618C102.912 55.3577 102.577 55.5924 102.208 55.7525C101.839 55.9126 101.444 55.9949 101.045 55.9947Z" stroke="#0400BF" style="stroke:#0400BF;stroke:color(display-p3 0.0157 0.0000 0.7490);stroke-opacity:1;" stroke-width="1.544" stroke-linecap="round" stroke-linejoin="round"/>
<path d="M101.037 54.1396H86.6788C86.4785 54.1393 86.2866 54.0557 86.145 53.9071C86.0034 53.7585 85.9239 53.5571 85.9237 53.3471V19.2213C85.924 19.0113 86.0037 18.81 86.1452 18.6614C86.2867 18.5129 86.4786 18.4292 86.6788 18.4287H101.037C101.237 18.4292 101.429 18.5129 101.57 18.6614C101.712 18.8099 101.792 19.0112 101.792 19.2213V53.3471C101.792 53.5572 101.712 53.7586 101.571 53.9071C101.429 54.0557 101.237 54.1393 101.037 54.1396Z" stroke="#0400BF" style="stroke:#0400BF;stroke:color(display-p3 0.0157 0.0000 0.7490);stroke-opacity:1;" stroke-width="1.544" stroke-linecap="round" stroke-linejoin="round"/>
<path d="M89.7126 17.2153H97.2927" stroke="#0400BF" style="stroke:#0400BF;stroke:color(display-p3 0.0157 0.0000 0.7490);stroke-opacity:1;" stroke-width="1.544" stroke-linecap="round" stroke-linejoin="round"/>
<path d="M98.6331 10.9287H93.5011" stroke="#0400BF" style="stroke:#0400BF;stroke:color(display-p3 0.0157 0.0000 0.7490);stroke-opacity:1;" stroke-width="1.544" stroke-linecap="round" stroke-linejoin="round"/>
<path d="M87.5758 10.6857C87.5758 11.2845 87.8026 11.8588 88.2063 12.2822C88.6101 12.7056 89.1576 12.9435 89.7286 12.9435C90.2995 12.9435 90.8471 12.7056 91.2508 12.2822C91.6545 11.8588 91.8813 11.2845 91.8813 10.6857C91.8813 10.0869 91.6545 9.51267 91.2508 9.08926C90.8471 8.66585 90.2995 8.42798 89.7286 8.42798C89.1576 8.42798 88.6101 8.66585 88.2063 9.08926C87.8026 9.51267 87.5758 10.0869 87.5758 10.6857Z" stroke="#0400BF" style="stroke:#0400BF;stroke:color(display-p3 0.0157 0.0000 0.7490);stroke-opacity:1;" stroke-width="1.544" stroke-linecap="round" stroke-linejoin="round"/>
<path d="M35.4865 89.0223C35.4862 89.2477 35.4223 89.468 35.3028 89.6553C35.1832 89.8426 35.0134 89.9885 34.8148 90.0746C34.6162 90.1607 34.3977 90.1832 34.1869 90.1391C33.9762 90.095 33.7826 89.9864 33.6307 89.827C33.4787 89.6676 33.3753 89.4645 33.3334 89.2434C33.2915 89.0224 33.313 88.7932 33.3952 88.585C33.4774 88.3767 33.6166 88.1987 33.7953 88.0734C33.9739 87.9482 34.184 87.8812 34.3989 87.8811C34.5418 87.881 34.6833 87.9105 34.8153 87.9678C34.9473 88.0251 35.0673 88.1092 35.1683 88.2152C35.2693 88.3212 35.3494 88.4471 35.404 88.5856C35.4586 88.724 35.4866 88.8725 35.4865 89.0223Z" stroke="#0400BF" style="stroke:#0400BF;stroke:color(display-p3 0.0157 0.0000 0.7490);stroke-opacity:1;" stroke-width="1.544" stroke-linecap="round" stroke-linejoin="round"/>
<path d="M35.4865 98.9243C35.4868 99.1498 35.4234 99.3704 35.3042 99.5581C35.185 99.7458 35.0154 99.8922 34.8168 99.9788C34.6183 100.065 34.3997 100.088 34.1887 100.045C33.9778 100.001 33.7839 99.8924 33.6317 99.7331C33.4795 99.5738 33.3757 99.3708 33.3336 99.1496C33.2914 98.9285 33.3128 98.6992 33.3949 98.4907C33.477 98.2823 33.6163 98.1041 33.795 97.9787C33.9737 97.8533 34.1839 97.7863 34.3989 97.7861C34.5416 97.7859 34.6829 97.8152 34.8148 97.8722C34.9467 97.9293 35.0666 98.0131 35.1676 98.1188C35.2686 98.2245 35.3488 98.35 35.4035 98.4883C35.4582 98.6265 35.4864 98.7746 35.4865 98.9243Z" stroke="#0400BF" style="stroke:#0400BF;stroke:color(display-p3 0.0157 0.0000 0.7490);stroke-opacity:1;" stroke-width="1.544" stroke-linecap="round" stroke-linejoin="round"/>
<path d="M35.6005 98.9244H64.7322V93.23" stroke="#0400BF" style="stroke:#0400BF;stroke:color(display-p3 0.0157 0.0000 0.7490);stroke-opacity:1;" stroke-width="1.544" stroke-linecap="round" stroke-linejoin="round"/>
<path d="M23.8708 21.6331C23.8708 21.7827 23.8989 21.9308 23.9535 22.0689C24.0081 22.2071 24.088 22.3326 24.1889 22.4384C24.2897 22.5441 24.4094 22.628 24.5411 22.6852C24.6729 22.7425 24.8141 22.7719 24.9567 22.7719C25.0992 22.7719 25.2404 22.7425 25.3722 22.6852C25.5039 22.628 25.6236 22.5441 25.7244 22.4384C25.8253 22.3326 25.9052 22.2071 25.9598 22.0689C26.0144 21.9308 26.0425 21.7827 26.0425 21.6331C26.0425 21.4836 26.0144 21.3355 25.9598 21.1974C25.9052 21.0592 25.8253 20.9337 25.7244 20.8279C25.6236 20.7222 25.5039 20.6383 25.3722 20.5811C25.2404 20.5238 25.0992 20.4944 24.9567 20.4944C24.8141 20.4944 24.6729 20.5238 24.5411 20.5811C24.4094 20.6383 24.2897 20.7222 24.1889 20.8279C24.088 20.9337 24.0081 21.0592 23.9535 21.1974C23.8989 21.3355 23.8708 21.4836 23.8708 21.6331Z" stroke="#0400BF" style="stroke:#0400BF;stroke:color(display-p3 0.0157 0.0000 0.7490);stroke-opacity:1;" stroke-width="1.544" stroke-linecap="round" stroke-linejoin="round"/>
<path d="M26.0422 21.6333H34.3992V57.9111H57.7524" stroke="#0400BF" style="stroke:#0400BF;stroke:color(display-p3 0.0157 0.0000 0.7490);stroke-opacity:1;" stroke-width="1.544" stroke-linecap="round" stroke-linejoin="round"/>
<path d="M37.291 74.0362H35.4866V61.7825H53.7266H53.729" stroke="#0400BF" style="stroke:#0400BF;stroke:color(display-p3 0.0157 0.0000 0.7490);stroke-opacity:1;" stroke-width="1.544" stroke-linecap="round" stroke-linejoin="round"/>
<path d="M81.8586 21.101C81.8588 21.3263 81.7952 21.5465 81.6759 21.7339C81.5567 21.9212 81.3871 22.0673 81.1888 22.1536C80.9904 22.2398 80.772 22.2625 80.5614 22.2186C80.3507 22.1747 80.1572 22.0663 80.0052 21.9071C79.8533 21.7479 79.7499 21.545 79.7079 21.324C79.666 21.1031 79.6874 20.8741 79.7696 20.666C79.8518 20.4579 79.9909 20.28 80.1695 20.1549C80.3481 20.0297 80.558 19.9629 80.7728 19.9629C81.0606 19.9631 81.3366 20.083 81.5402 20.2964C81.7438 20.5098 81.8583 20.7992 81.8586 21.101Z" stroke="#0400BF" style="stroke:#0400BF;stroke:color(display-p3 0.0157 0.0000 0.7490);stroke-opacity:1;" stroke-width="1.544" stroke-linecap="round" stroke-linejoin="round"/>
<path d="M65.5236 15.6544C65.5236 15.9564 65.638 16.2461 65.8416 16.4596C66.0452 16.6732 66.3214 16.7932 66.6094 16.7932C66.8973 16.7932 67.1735 16.6732 67.3772 16.4596C67.5808 16.2461 67.6952 15.9564 67.6952 15.6544C67.6952 15.3524 67.5808 15.0627 67.3772 14.8492C67.1735 14.6356 66.8973 14.5156 66.6094 14.5156C66.3214 14.5156 66.0452 14.6356 65.8416 14.8492C65.638 15.0627 65.5236 15.3524 65.5236 15.6544Z" stroke="#0400BF" style="stroke:#0400BF;stroke:color(display-p3 0.0157 0.0000 0.7490);stroke-opacity:1;" stroke-width="1.544" stroke-linecap="round" stroke-linejoin="round"/>
<path d="M79.6877 31.006C79.6877 31.308 79.8021 31.5976 80.0058 31.8112C80.2094 32.0247 80.4856 32.1447 80.7736 32.1447C81.0615 32.1447 81.3377 32.0247 81.5413 31.8112C81.745 31.5976 81.8594 31.308 81.8594 31.006C81.8594 30.7039 81.745 30.4143 81.5413 30.2007C81.3377 29.9872 81.0615 29.8672 80.7736 29.8672C80.4856 29.8672 80.2094 29.9872 80.0058 30.2007C79.8021 30.4143 79.6877 30.7039 79.6877 31.006Z" stroke="#0400BF" style="stroke:#0400BF;stroke:color(display-p3 0.0157 0.0000 0.7490);stroke-opacity:1;" stroke-width="1.544" stroke-linecap="round" stroke-linejoin="round"/>
<path d="M79.6877 35.9583C79.6877 36.2604 79.8021 36.55 80.0058 36.7636C80.2094 36.9771 80.4856 37.0971 80.7736 37.0971C81.0615 37.0971 81.3377 36.9771 81.5413 36.7636C81.745 36.55 81.8594 36.2604 81.8594 35.9583C81.8594 35.6563 81.745 35.3667 81.5413 35.1531C81.3377 34.9396 81.0615 34.8196 80.7736 34.8196C80.4856 34.8196 80.2094 34.9396 80.0058 35.1531C79.8021 35.3667 79.6877 35.6563 79.6877 35.9583Z" stroke="#0400BF" style="stroke:#0400BF;stroke:color(display-p3 0.0157 0.0000 0.7490);stroke-opacity:1;" stroke-width="1.544" stroke-linecap="round" stroke-linejoin="round"/>
<path d="M81.8586 40.9099C81.8583 41.1351 81.7943 41.355 81.6748 41.5421C81.5553 41.7291 81.3856 41.8748 81.1871 41.9607C80.9887 42.0466 80.7704 42.0689 80.5599 42.0247C80.3494 41.9806 80.1561 41.872 80.0044 41.7126C79.8527 41.5533 79.7495 41.3504 79.7077 41.1295C79.666 40.9087 79.6876 40.6798 79.7698 40.4718C79.8521 40.2639 79.9912 40.0861 80.1698 39.9611C80.3483 39.836 80.5581 39.7693 80.7728 39.7693C80.9156 39.7693 81.0569 39.7988 81.1888 39.8561C81.3206 39.9135 81.4404 39.9975 81.5412 40.1035C81.6421 40.2094 81.722 40.3352 81.7765 40.4735C81.831 40.6119 81.8589 40.7602 81.8586 40.9099Z" stroke="#0400BF" style="stroke:#0400BF;stroke:color(display-p3 0.0157 0.0000 0.7490);stroke-opacity:1;" stroke-width="1.544" stroke-linecap="round" stroke-linejoin="round"/>
<path d="M66.6097 16.7932V31.0061H71.7299H79.6884" stroke="#0400BF" style="stroke:#0400BF;stroke:color(display-p3 0.0157 0.0000 0.7490);stroke-opacity:1;" stroke-width="1.544" stroke-linecap="round" stroke-linejoin="round"/>
<path d="M79.6882 35.9585H76.0605V55.8275" stroke="#0400BF" style="stroke:#0400BF;stroke:color(display-p3 0.0157 0.0000 0.7490);stroke-opacity:1;" stroke-width="1.544" stroke-linecap="round" stroke-linejoin="round"/>
<path d="M79.6882 40.9106H78.2634V55.8277" stroke="#0400BF" style="stroke:#0400BF;stroke:color(display-p3 0.0157 0.0000 0.7490);stroke-opacity:1;" stroke-width="1.544" stroke-linecap="round" stroke-linejoin="round"/>
<path d="M79.6881 21.1011H71.7296V31.0062V53.8897" stroke="#0400BF" style="stroke:#0400BF;stroke:color(display-p3 0.0157 0.0000 0.7490);stroke-opacity:1;" stroke-width="1.544" stroke-linecap="round" stroke-linejoin="round"/>
<path d="M5.19885 28.698C5.19885 29.5283 5.35479 30.3505 5.65775 31.1176C5.96071 31.8847 6.40477 32.5817 6.96457 33.1688C7.52437 33.7559 8.18895 34.2216 8.92037 34.5393C9.65179 34.857 10.4357 35.0206 11.2274 35.0206C12.0191 35.0206 12.803 34.857 13.5344 34.5393C14.2658 34.2216 14.9304 33.7559 15.4902 33.1688C16.05 32.5817 16.4941 31.8847 16.797 31.1176C17.1 30.3505 17.2559 29.5283 17.2559 28.698C17.2559 27.8677 17.1 27.0456 16.797 26.2785C16.4941 25.5114 16.05 24.8144 15.4902 24.2273C14.9304 23.6402 14.2658 23.1745 13.5344 22.8568C12.803 22.539 12.0191 22.3755 11.2274 22.3755C10.4357 22.3755 9.65179 22.539 8.92037 22.8568C8.18895 23.1745 7.52437 23.6402 6.96457 24.2273C6.40477 24.8144 5.96071 25.5114 5.65775 26.2785C5.35479 27.0456 5.19885 27.8677 5.19885 28.698Z" stroke="#0400BF" style="stroke:#0400BF;stroke:color(display-p3 0.0157 0.0000 0.7490);stroke-opacity:1;" stroke-width="1.544" stroke-linecap="round" stroke-linejoin="round"/>
<path d="M5.35803 38.7336H16.3888" stroke="#0400BF" style="stroke:#0400BF;stroke:color(display-p3 0.0157 0.0000 0.7490);stroke-opacity:1;" stroke-width="1.544" stroke-linecap="round" stroke-linejoin="round"/>
<path d="M5.35803 42.4478H16.3888" stroke="#0400BF" style="stroke:#0400BF;stroke:color(display-p3 0.0157 0.0000 0.7490);stroke-opacity:1;" stroke-width="1.544" stroke-linecap="round" stroke-linejoin="round"/>
<path d="M5.35803 46.1616H16.3888" stroke="#0400BF" style="stroke:#0400BF;stroke:color(display-p3 0.0157 0.0000 0.7490);stroke-opacity:1;" stroke-width="1.544" stroke-linecap="round" stroke-linejoin="round"/>
<path d="M14.8845 78.4346H25.7491V83.58H14.8845V78.4346Z" stroke="#0400BF" style="stroke:#0400BF;stroke:color(display-p3 0.0157 0.0000 0.7490);stroke-opacity:1;" stroke-width="1.544" stroke-linecap="round" stroke-linejoin="round"/>
<path d="M14.8845 85.8621H25.7491V91.0075H14.8845V85.8621Z" stroke="#0400BF" style="stroke:#0400BF;stroke:color(display-p3 0.0157 0.0000 0.7490);stroke-opacity:1;" stroke-width="1.544" stroke-linecap="round" stroke-linejoin="round"/>
<path d="M14.8845 93.2893H25.7491V107.502H14.8845V93.2893Z" stroke="#0400BF" style="stroke:#0400BF;stroke:color(display-p3 0.0157 0.0000 0.7490);stroke-opacity:1;" stroke-width="1.544" stroke-linecap="round" stroke-linejoin="round"/>
<path d="M97.0285 24.9598C97.0288 25.6177 96.843 26.2608 96.4947 26.8079C96.1464 27.355 95.6512 27.7815 95.0717 28.0335C94.4923 28.2854 93.8546 28.3515 93.2394 28.2234C92.6241 28.0952 92.0589 27.7786 91.6153 27.3136C91.1716 26.8485 90.8694 26.2559 90.7469 25.6107C90.6244 24.9656 90.687 24.2968 90.9269 23.6889C91.1668 23.0811 91.5732 22.5615 92.0947 22.1959C92.6162 21.8303 93.2293 21.6351 93.8566 21.635C94.6976 21.6348 95.5042 21.985 96.099 22.6085C96.6939 23.232 97.0282 24.0778 97.0285 24.9598Z" stroke="#0400BF" style="stroke:#0400BF;stroke:color(display-p3 0.0157 0.0000 0.7490);stroke-opacity:1;" stroke-width="1.544" stroke-linecap="round" stroke-linejoin="round"/>
<path d="M89.3894 31.6504H98.3264" stroke="#0400BF" style="stroke:#0400BF;stroke:color(display-p3 0.0157 0.0000 0.7490);stroke-opacity:1;" stroke-width="1.544" stroke-linecap="round" stroke-linejoin="round"/>
<path d="M89.3894 34.1257H98.3264" stroke="#0400BF" style="stroke:#0400BF;stroke:color(display-p3 0.0157 0.0000 0.7490);stroke-opacity:1;" stroke-width="1.544" stroke-linecap="round" stroke-linejoin="round"/>
<path d="M97.0285 40.5577C97.0283 41.2155 96.8421 41.8584 96.4935 42.4052C96.1449 42.952 95.6496 43.3781 95.0701 43.6296C94.4906 43.8812 93.853 43.9469 93.238 43.8185C92.6229 43.6901 92.0579 43.3733 91.6145 42.9081C91.171 42.443 90.8691 41.8504 90.7467 41.2053C90.6244 40.5602 90.6872 39.8915 90.9271 39.2838C91.1671 38.6761 91.5735 38.1567 92.0949 37.7912C92.6164 37.4257 93.2294 37.2306 93.8566 37.2305C94.2732 37.2304 94.6857 37.3164 95.0707 37.4836C95.4556 37.6508 95.8053 37.8959 96.0999 38.2049C96.3944 38.5138 96.6281 38.8807 96.7874 39.2844C96.9467 39.6881 97.0287 40.1208 97.0285 40.5577Z" stroke="#0400BF" style="stroke:#0400BF;stroke:color(display-p3 0.0157 0.0000 0.7490);stroke-opacity:1;" stroke-width="1.544" stroke-linecap="round" stroke-linejoin="round"/>
<path d="M89.3894 47.2473H98.3264" stroke="#0400BF" style="stroke:#0400BF;stroke:color(display-p3 0.0157 0.0000 0.7490);stroke-opacity:1;" stroke-width="1.544" stroke-linecap="round" stroke-linejoin="round"/>
<path d="M89.3894 49.7251H98.3264" stroke="#0400BF" style="stroke:#0400BF;stroke:color(display-p3 0.0157 0.0000 0.7490);stroke-opacity:1;" stroke-width="1.544" stroke-linecap="round" stroke-linejoin="round"/>
<path d="M35.4866 89.022H58.3847" stroke="#0400BF" style="stroke:#0400BF;stroke:color(display-p3 0.0157 0.0000 0.7490);stroke-opacity:1;" stroke-width="1.544" stroke-linecap="round" stroke-linejoin="round"/>
</svg>
