<svg width="24" height="25" viewBox="0 0 24 25" fill="none" xmlns="http://www.w3.org/2000/svg">
<path d="M19.8822 5.38134L19.1463 4.64539C18.9383 4.4374 18.5543 4.46941 18.3143 4.75736L15.7541 7.30132C14.602 6.80538 13.3382 6.56538 12.0101 6.56538C8.05798 6.58132 4.6342 8.88529 2.98608 12.1975C2.89006 12.4055 2.89006 12.6614 2.98608 12.8374C3.75402 14.4054 4.90609 15.7015 6.34609 16.6774L4.2501 18.8054C4.0101 19.0454 3.97809 19.4293 4.13813 19.6374L4.87408 20.3733C5.08207 20.5813 5.46606 20.5493 5.70606 20.2613L19.754 6.21345C20.058 5.97358 20.09 5.58962 19.882 5.38161L19.8822 5.38134ZM12.8581 10.2132C12.5861 10.1492 12.2981 10.0692 12.0261 10.0692C10.6661 10.0692 9.57818 11.1573 9.57818 12.5172C9.57818 12.7892 9.64219 13.0771 9.72215 13.3492L8.65003 14.4052C8.33008 13.8452 8.15409 13.2211 8.15409 12.5172C8.15409 10.3892 9.86611 8.67722 11.9941 8.67722C12.6982 8.67722 13.3221 8.8532 13.8821 9.17316L12.8581 10.2132Z" fill="#737272" style="fill:#737272;fill:color(display-p3 0.4510 0.4471 0.4471);fill-opacity:1;"/>
<path d="M21.0347 12.1974C20.4747 11.0774 19.7386 10.0695 18.8267 9.25342L15.8507 12.1974V12.5174C15.8507 14.6454 14.1387 16.3574 12.0107 16.3574H11.6907L9.80273 18.2454C10.5068 18.3893 11.2427 18.4854 11.9627 18.4854C15.9149 18.4854 19.3386 16.1814 20.9868 12.8532C21.1307 12.6292 21.1307 12.4053 21.0347 12.1973L21.0347 12.1974Z" fill="#737272" style="fill:#737272;fill:color(display-p3 0.4510 0.4471 0.4471);fill-opacity:1;"/>
</svg>
