<svg width="10" height="14" viewBox="0 0 10 14" fill="none" xmlns="http://www.w3.org/2000/svg">
<path d="M4.99967 6.66658C4.55765 6.66658 4.13372 6.49099 3.82116 6.17843C3.5086 5.86587 3.33301 5.44195 3.33301 4.99992C3.33301 4.55789 3.5086 4.13397 3.82116 3.82141C4.13372 3.50885 4.55765 3.33325 4.99967 3.33325C5.4417 3.33325 5.86562 3.50885 6.17819 3.82141C6.49075 4.13397 6.66634 4.55789 6.66634 4.99992C6.66634 5.21879 6.62323 5.43551 6.53947 5.63772C6.45572 5.83993 6.33295 6.02367 6.17819 6.17843C6.02342 6.33319 5.83969 6.45596 5.63748 6.53972C5.43527 6.62348 5.21854 6.66658 4.99967 6.66658ZM4.99967 0.333252C3.762 0.333252 2.57501 0.824917 1.69984 1.70009C0.824673 2.57526 0.333008 3.76224 0.333008 4.99992C0.333008 8.49992 4.99967 13.6666 4.99967 13.6666C4.99967 13.6666 9.66634 8.49992 9.66634 4.99992C9.66634 3.76224 9.17467 2.57526 8.29951 1.70009C7.42434 0.824917 6.23735 0.333252 4.99967 0.333252Z" fill="#231F20" style="fill:#231F20;fill:color(display-p3 0.1373 0.1216 0.1255);fill-opacity:1;"/>
</svg>
