<svg width="14" height="14" viewBox="0 0 14 14" fill="none" xmlns="http://www.w3.org/2000/svg">
<path d="M11.2186 14C10.6086 14 9.75174 13.7793 8.46861 13.0625C6.9083 12.1875 5.70142 11.3796 4.14955 9.83183C2.6533 8.33652 1.92517 7.36839 0.906111 5.51402C-0.245139 3.42027 -0.0488891 2.32277 0.170486 1.8537C0.431736 1.29308 0.817361 0.957767 1.3158 0.624954C1.59891 0.439465 1.89851 0.28046 2.2108 0.149954C2.24205 0.136517 2.27111 0.123704 2.29705 0.112142C2.45174 0.0424542 2.68611 -0.0628583 2.98299 0.0496417C3.18111 0.124017 3.35799 0.276204 3.63486 0.549642C4.20267 1.10964 4.97861 2.35683 5.26486 2.96933C5.45705 3.38214 5.58424 3.65464 5.58455 3.96027C5.58455 4.31808 5.40455 4.59402 5.18611 4.89183C5.14517 4.94777 5.10455 5.0012 5.06517 5.05308C4.82736 5.36558 4.77517 5.45589 4.80955 5.61714C4.87924 5.94121 5.39892 6.90589 6.25299 7.75808C7.10705 8.61027 8.04392 9.09714 8.36924 9.16652C8.53736 9.20245 8.62955 9.14808 8.95205 8.90183C8.9983 8.86652 9.0458 8.82996 9.09549 8.79339C9.42861 8.54558 9.69174 8.37027 10.0411 8.37027H10.043C10.347 8.37027 10.6074 8.50214 11.0386 8.71964C11.6011 9.00339 12.8858 9.76933 13.4492 10.3378C13.7233 10.614 13.8761 10.7903 13.9508 10.9881C14.0633 11.2859 13.9574 11.5193 13.8883 11.6756C13.8767 11.7015 13.8639 11.73 13.8505 11.7615C13.7189 12.0733 13.559 12.3722 13.3727 12.6546C13.0405 13.1515 12.7039 13.5362 12.142 13.7978C11.8535 13.9343 11.5378 14.0034 11.2186 14Z" fill="#231F20" style="fill:#231F20;fill:color(display-p3 0.1373 0.1216 0.1255);fill-opacity:1;"/>
</svg>
