<svg width="202" height="228" viewBox="0 0 202 228" fill="none" xmlns="http://www.w3.org/2000/svg">
<g opacity="0.25">
<path fill-rule="evenodd" clip-rule="evenodd" d="M92.96 89.4867C101.597 75.9933 117.852 71.7533 130.847 78.5575C137.383 81.9792 141.357 86.5483 143.125 89.7825C143.127 89.7817 143.247 89.9608 143.65 90.2867C147.249 93.1992 151.629 94.1833 154.734 98.0242C158.16 102.262 160.753 106.569 162.202 111.421C163.663 116.308 163.841 121.334 163.025 126.839C162.935 127.447 162.847 128.07 162.756 128.708C162.022 133.87 161.157 139.959 158.388 145.773C157.253 148.156 155.988 150.216 154.297 152.089C152.62 153.946 150.73 155.389 148.627 156.752C148.068 157.113 147.503 157.509 146.818 157.988L146.455 158.242C145.649 158.804 144.704 159.458 143.697 160.077C141.72 161.291 139.07 162.653 135.896 163.061C125.74 164.366 111.032 164.868 100.192 157.393C93.7317 152.937 90.9008 145.373 89.4133 139.008C88.2408 133.994 87.6783 128.583 87.2433 124.403C87.1183 123.205 87.0042 122.109 86.89 121.152C85.715 111.363 86.9775 98.835 92.96 89.4867ZM125.05 89.6317C118.052 85.9683 108.788 87.945 103.488 96.225C99.595 102.309 98.3333 111.603 99.3008 119.663C99.4567 120.967 99.5967 122.304 99.7392 123.663C100.165 127.733 100.612 131.999 101.585 136.163C102.903 141.803 104.826 145.404 107.289 147.103C113.95 151.697 124.372 151.939 134.302 150.663C134.912 150.584 135.784 150.268 137.154 149.426C137.822 149.016 138.506 148.547 139.297 147.993L139.622 147.767C140.296 147.295 141.067 146.755 141.83 146.261C143.424 145.228 144.34 144.464 145.02 143.711C145.685 142.974 146.33 142.022 147.102 140.399C149.002 136.41 149.603 132.268 150.387 126.871C150.475 126.266 150.565 125.646 150.66 125.008C151.267 120.909 151.057 117.781 150.226 114.999C149.384 112.182 147.781 109.306 145.014 105.883C144.34 105.049 143.856 104.707 143.277 104.379C142.884 104.158 142.46 103.951 141.75 103.605C138.018 101.788 134.212 99.545 132.161 95.7842C131.623 94.7992 129.487 91.9542 125.05 89.6317Z" fill="url(#paint0_linear_119_2399)" style=""/>
<path fill-rule="evenodd" clip-rule="evenodd" d="M116.152 40.2483C112.978 40.1099 110.449 39.8616 108.228 39.6258L107.439 39.5408C105.532 39.3358 103.617 39.1299 101.802 39.0783C97.0867 38.9433 93.0517 39.8349 87.4217 42.6499C86.8842 42.9183 86.3117 43.1966 85.7133 43.4883C81.8383 45.3716 76.8558 47.7933 72.925 51.7241C72.5308 52.1191 72.1317 52.5158 71.7292 52.9158C64.9458 59.6666 57.2442 67.3308 54.5092 79.2658C53.2625 84.7083 53.0392 90.2774 53.0858 95.4791C53.1083 97.9041 53.1908 100.328 53.2692 102.643L53.2875 103.164C53.3725 105.667 53.4483 108.042 53.4483 110.342C53.4483 116.548 55.0617 122.541 56.6342 127.589C57.2333 129.511 57.6808 131.533 58.1525 133.807L58.3475 134.75C58.7492 136.703 59.1925 138.856 59.7533 140.976C61.0725 145.959 62.9508 150.715 64.7867 155.152C65.155 156.042 65.52 156.914 65.8792 157.774C67.3583 161.314 68.7483 164.64 69.9208 168.034C71.6867 173.139 73.8958 177.978 76.6808 182.668C78.67 186.018 81.2625 188.392 83.235 190.198C83.7433 190.664 84.2108 191.092 84.6158 191.489C88.5217 195.318 93.6333 197.021 97.9942 197.935C101.397 198.649 105.033 198.999 107.938 199.28C108.728 199.356 109.465 199.427 110.127 199.498C119.632 200.526 130.303 200.215 139.565 199.172C143.4 198.742 148.993 198.007 153.67 195.378C154.912 194.681 156.107 194.172 157.601 193.536C158.433 193.182 159.36 192.787 160.438 192.298C163.057 191.112 166.308 189.451 168.975 186.692C169.869 185.767 170.72 185.012 171.737 184.108C172.445 183.484 173.146 182.851 173.84 182.211C175.682 180.507 177.835 178.337 179.476 175.559C181.307 172.46 183.345 169.486 185.52 166.369L186.352 165.179C188.249 162.468 190.242 159.619 192.118 156.657C199.042 145.724 198.985 131.622 197.375 120.809C195.634 109.121 191.685 95.8857 184.801 85.4216C179.141 76.8182 172.76 67.7991 163.793 60.8499C162.102 59.5373 160.412 58.2226 158.723 56.9058C154.298 53.4558 149.817 49.9641 145.326 46.5949C138.923 41.7924 128.596 39.2016 120.728 39.9366L120.358 39.9699C118.755 40.1208 117.472 40.2408 116.152 40.2483ZM101.444 51.5733C99.1233 51.5066 97.1208 51.7758 93.0117 53.8299C92.3025 54.1849 91.6242 54.5191 90.9742 54.8391C86.99 56.8024 84.1017 58.2258 81.7642 60.5633L81.2892 61.0383C73.91 68.4141 68.605 73.7166 66.6933 82.0583C65.77 86.0866 65.5417 90.5149 65.585 95.3658C65.6058 97.6274 65.6833 99.9016 65.7642 102.25L65.7808 102.739C65.865 105.228 65.9475 107.801 65.9475 110.342C65.9475 114.55 67.0592 119.026 68.5692 123.872C69.3633 126.423 69.9142 128.964 70.3917 131.266L70.6017 132.281C71.0075 134.25 71.3725 136.022 71.8375 137.777C72.9283 141.898 74.5283 146.001 76.3375 150.372C76.6667 151.168 77.0058 151.978 77.3492 152.799C78.8408 156.367 80.4208 160.147 81.7358 163.95C83.2383 168.298 85.0992 172.362 87.4292 176.286C88.4033 177.927 89.2733 178.729 90.8592 180.192C91.7079 180.969 92.5438 181.759 93.3667 182.563C94.7483 183.918 97.0725 184.97 100.56 185.702C103.216 186.258 105.892 186.518 108.694 186.791C109.605 186.879 110.53 186.969 111.471 187.071C119.851 187.977 129.574 187.718 138.167 186.752C142.128 186.306 145.339 185.722 147.548 184.481C149.388 183.447 151.637 182.484 153.457 181.705C154.14 181.413 154.762 181.147 155.28 180.912C157.576 179.872 159.027 178.997 159.987 178.004C161.187 176.763 162.677 175.434 163.922 174.324C164.457 173.847 164.947 173.41 165.348 173.038C166.94 171.565 168.015 170.384 168.714 169.2C170.807 165.657 173.084 162.347 175.271 159.215L176.122 157.996C178.032 155.266 179.847 152.67 181.557 149.969C186.023 142.919 186.492 132.59 185.012 122.651C183.437 112.076 179.924 100.752 174.358 92.2916C168.76 83.7824 163.334 76.3083 156.136 70.7299C154.395 69.3799 152.668 68.0341 150.948 66.6941C146.557 63.2716 142.217 59.8891 137.826 56.5949C133.748 53.5366 126.978 51.9074 121.89 52.3816C121.744 52.3958 121.596 52.4099 121.444 52.4233C119.888 52.5708 118.006 52.7483 116.026 52.7483H115.893L115.761 52.7433C112.133 52.5899 109.262 52.3058 106.909 52.0558L106.117 51.9716C104.117 51.7574 102.734 51.6099 101.444 51.5733Z" fill="url(#paint1_linear_119_2399)" style=""/>
<path fill-rule="evenodd" clip-rule="evenodd" d="M113.039 3.08496H113.122C120.008 3.08496 128.538 3.13746 136.552 5.38163C140.36 6.44746 144.312 6.90163 148.852 7.42329C149.607 7.51079 150.377 7.59829 151.167 7.69246C156.454 8.31996 162.43 9.16829 168.221 11.5591C171.469 12.8991 174.531 13.5633 178.221 14.365C179.708 14.6875 181.298 15.0333 183.044 15.4533C190.881 17.3416 198.912 22.0041 204.763 25.86C205.396 26.2766 206.079 26.7191 206.797 27.1841C209.27 28.7833 212.155 30.6483 214.786 32.6691C218.225 35.3108 221.825 38.64 224.268 42.915L225.452 44.9841C228.823 50.8666 232.368 57.0533 235.372 63.4616C235.541 63.8208 235.723 64.2016 235.916 64.6008C237.166 67.2008 238.81 70.6208 239.484 74.4958C239.698 75.7208 239.86 76.8041 240.01 77.7975C240.315 79.825 240.563 81.4758 241.068 83.2008C241.378 84.265 241.779 85.26 242.311 86.5833L242.562 87.2108C243.175 88.74 243.92 90.6608 244.398 92.8383C244.606 93.7808 244.833 94.7658 245.067 95.7833C245.767 98.8125 246.53 102.122 247.024 105.417C248.975 118.425 248.422 133.072 246.472 145.748C246.266 147.088 246.081 148.596 245.883 150.203C245.372 154.366 244.779 159.201 243.524 163.537C242.248 167.942 239.534 171.637 237.367 174.442C236.915 175.026 236.487 175.574 236.08 176.093C234.291 178.381 232.928 180.122 231.972 181.967C227.095 191.379 221.092 199.687 214.562 207.59C202.182 222.577 188.569 234.679 168.977 241.337C161.73 243.799 153.848 246.25 145.311 246.724C139.945 247.022 134.662 246.907 129.6 246.797C127.848 246.756 126.096 246.724 124.343 246.701C117.553 246.625 110.719 246.004 104.264 245.382C102.412 245.204 100.503 245.228 98.1942 245.258C97.6217 245.266 97.025 245.273 96.3983 245.279C93.4842 245.302 89.9867 245.259 86.55 244.483C75.555 242.001 65.865 238.618 56.75 230.204C52.4333 226.219 50.0042 221.472 47.9892 217.362C46.0783 213.463 43.5917 209.961 40.6792 205.892C34.7317 197.581 29.4792 188.352 24.6233 179.822L24.2967 179.247C18.5133 169.089 13.8408 158.342 9.73416 147.692C9.3591 146.722 8.98077 145.754 8.59916 144.787C5.48499 136.872 1.84832 127.63 1.76666 117.653C1.62416 100.063 3.55832 80.9925 11.9758 64.1575C15.3658 57.3783 20.1142 51.7125 24.3967 46.6016C25.3967 45.4091 26.3717 44.2466 27.2967 43.1066C33.1492 35.905 39.0442 30.0283 47.1717 24.6925C52.13 21.4375 57.5258 19.1533 62.6316 17.2225C64.5233 16.5075 66.3217 15.8583 68.0633 15.2291C71.2483 14.0791 74.24 12.9991 77.2475 11.7166C88.9483 6.72413 99.4525 3.44746 112.956 3.08746L113.039 3.08496ZM113.207 15.585C101.885 15.8983 93.0167 18.5783 82.1533 23.2133C78.8417 24.6266 75.2425 25.9283 71.8358 27.16C70.1775 27.76 68.5641 28.3433 67.0525 28.915C62.19 30.7533 57.8233 32.6525 54.0308 35.1425C47.2558 39.59 42.2808 44.4875 36.9983 50.9891C35.8661 52.3769 34.7244 53.7569 33.5733 55.1291C29.3983 60.1291 25.8275 64.4041 23.1567 69.7483C16.0358 83.9883 14.13 100.737 14.2667 117.552C14.3275 125.062 17.0542 132.052 20.2583 140.262C20.6325 141.222 21.0133 142.199 21.3975 143.195C25.3858 153.539 29.8033 163.654 35.16 173.064L35.3425 173.384C40.3008 182.096 45.2783 190.84 50.8442 198.617L50.9475 198.761C53.7417 202.665 56.8025 206.942 59.2142 211.86C61.2175 215.948 62.7908 218.769 65.2283 221.019C72.0258 227.294 79.2583 230.022 89.3033 232.291C91.2133 232.722 93.4475 232.802 96.2983 232.779C96.7567 232.776 97.24 232.768 97.7425 232.762C100.095 232.728 102.86 232.689 105.463 232.94C111.937 233.564 118.287 234.132 124.484 234.202C126.492 234.224 128.417 234.267 130.294 234.307C135.198 234.413 139.772 234.512 144.617 234.243C151.312 233.872 157.792 231.935 164.955 229.502C181.538 223.866 193.356 213.634 204.925 199.629C211.121 192.13 216.542 184.575 220.873 176.216C222.423 173.225 224.68 170.358 226.489 168.059C226.837 167.617 227.168 167.197 227.475 166.799C229.645 163.991 230.969 161.955 231.517 160.062C232.485 156.718 232.872 153.53 233.319 149.845C233.543 147.998 233.783 146.027 234.118 143.848C235.926 132.094 236.384 118.749 234.662 107.271C234.246 104.497 233.644 101.884 232.98 99.0025C232.711 97.8444 232.448 96.685 232.191 95.5241C231.949 94.4275 231.546 93.3258 230.957 91.8558L230.737 91.3066C230.22 90.0258 229.567 88.41 229.069 86.7083C228.315 84.1275 227.864 81.1441 227.507 78.78C227.386 77.9825 227.276 77.255 227.169 76.6375C226.812 74.59 225.996 72.8666 224.72 70.1775C224.511 69.7358 224.288 69.2666 224.054 68.7666C221.282 62.8533 218.001 57.125 214.596 51.18L213.415 49.1166C212.161 46.9225 210.046 44.79 207.172 42.5833C204.982 40.9008 202.694 39.42 200.303 37.8725C199.508 37.3583 198.702 36.8366 197.884 36.2975C192.258 32.5891 185.734 28.96 180.116 27.6058C178.983 27.3325 177.761 27.0683 176.478 26.79C172.447 25.9175 167.816 24.9141 163.452 23.1133C159.382 21.4333 154.909 20.7241 149.694 20.105C149.005 20.0241 148.297 19.9433 147.575 19.8608C143.092 19.3516 138.03 18.7758 133.181 17.4183C127.081 15.71 120.242 15.5858 113.207 15.585Z" fill="url(#paint2_linear_119_2399)" style=""/>
</g>
<defs>
<linearGradient id="paint0_linear_119_2399" x1="106.26" y1="75.3592" x2="157.117" y2="171.583" gradientUnits="userSpaceOnUse">
<stop stop-color="#EE1D23" style="stop-color:#EE1D23;stop-color:color(display-p3 0.9333 0.1137 0.1373);stop-opacity:1;"/>
<stop offset="1" stop-color="#231F20" style="stop-color:#231F20;stop-color:color(display-p3 0.1373 0.1216 0.1255);stop-opacity:1;"/>
</linearGradient>
<linearGradient id="paint1_linear_119_2399" x1="90.345" y1="39.0649" x2="181.09" y2="216.856" gradientUnits="userSpaceOnUse">
<stop stop-color="#231F20" style="stop-color:#231F20;stop-color:color(display-p3 0.1373 0.1216 0.1255);stop-opacity:1;"/>
<stop offset="1" stop-color="#EE1D23" style="stop-color:#EE1D23;stop-color:color(display-p3 0.9333 0.1137 0.1373);stop-opacity:1;"/>
</linearGradient>
<linearGradient id="paint2_linear_119_2399" x1="65.0233" y1="3.08496" x2="192.939" y2="284.132" gradientUnits="userSpaceOnUse">
<stop stop-color="#EE1D23" style="stop-color:#EE1D23;stop-color:color(display-p3 0.9333 0.1137 0.1373);stop-opacity:1;"/>
<stop offset="1" stop-color="#231F20" style="stop-color:#231F20;stop-color:color(display-p3 0.1373 0.1216 0.1255);stop-opacity:1;"/>
</linearGradient>
</defs>
</svg>
