<svg width="103" height="91" viewBox="0 0 103 91" fill="none" xmlns="http://www.w3.org/2000/svg">
<path d="M26.776 70.5827C26.776 73.6794 28.0061 76.6492 30.1958 78.8388C32.3855 81.0285 35.3553 82.2587 38.452 82.2587C41.5486 82.2587 44.5184 81.0285 46.7081 78.8388C48.8978 76.6492 50.1279 73.6794 50.1279 70.5827C50.1279 69.0494 49.8259 67.5311 49.2391 66.1145C48.6524 64.6979 47.7923 63.4108 46.7081 62.3265C45.6239 61.2423 44.3368 60.3823 42.9202 59.7955C41.5036 59.2087 39.9853 58.9067 38.452 58.9067C36.9187 58.9067 35.4004 59.2087 33.9838 59.7955C32.5672 60.3823 31.28 61.2423 30.1958 62.3265C29.1116 63.4108 28.2516 64.6979 27.6648 66.1145C27.078 67.5311 26.776 69.0494 26.776 70.5827Z" fill="#FFFDA9" style="fill:#FFFDA9;fill:color(display-p3 1.0000 0.9922 0.6627);fill-opacity:1;"/>
<path d="M38.4519 58.5885C36.0794 58.5874 33.7598 59.2899 31.7866 60.6072C29.8134 61.9244 28.2751 63.7973 27.3664 65.9889C26.4577 68.1805 26.2194 70.5924 26.6816 72.9195C27.1437 75.2465 28.2856 77.3843 29.9629 79.0623C31.6401 80.7403 33.7773 81.8832 36.1041 82.3465C38.431 82.8098 40.843 82.5726 43.035 81.6649C45.227 80.7573 47.1006 79.2199 48.4189 77.2473C49.7371 75.2747 50.4407 72.9555 50.4407 70.5829C50.4377 67.4037 49.1738 64.3555 46.9263 62.1069C44.6788 59.8583 41.6311 58.593 38.4519 58.5885ZM38.4519 81.9347C36.2023 81.9347 34.0031 81.2676 32.1326 80.0178C30.262 78.7679 28.8041 76.9915 27.9432 74.913C27.0823 72.8346 26.8571 70.5476 27.2959 68.3411C27.7348 66.1347 28.8182 64.1079 30.4089 62.5172C31.9997 60.9264 34.0264 59.8431 36.2329 59.4042C38.4393 58.9653 40.7263 59.1906 42.8048 60.0515C44.8832 60.9124 46.6597 62.3703 47.9095 64.2408C49.1593 66.1114 49.8265 68.3105 49.8265 70.5602C49.8265 73.5769 48.6281 76.4701 46.4949 78.6032C44.3618 80.7363 41.4686 81.9347 38.4519 81.9347Z" fill="#EFAC54" style="fill:#EFAC54;fill:color(display-p3 0.9373 0.6745 0.3294);fill-opacity:1;"/>
<path d="M32.4631 71.2766C30.9997 69.4976 29.0417 68.1925 26.8366 67.5262C24.6315 66.86 22.2784 66.8626 20.0748 67.5336C17.8711 68.2047 15.916 69.5141 14.4565 71.2963C12.997 73.0784 12.0987 75.2534 11.8753 77.5461C11.6518 79.8387 12.1132 82.1462 13.2011 84.1767C14.2889 86.2071 15.9545 87.8694 17.987 88.9534C20.0196 90.0373 22.328 90.4942 24.6202 90.2663C26.9124 90.0384 29.0856 89.136 30.865 87.673C32.0467 86.7015 33.0254 85.5066 33.7453 84.1568C34.4651 82.8069 34.912 81.3285 35.0604 79.8059C35.2088 78.2833 35.0558 76.7464 34.6102 75.2829C34.1645 73.8194 33.4349 72.4581 32.4631 71.2766Z" fill="#ABFFE1" style="fill:#ABFFE1;fill:color(display-p3 0.6706 1.0000 0.8824);fill-opacity:1;"/>
<path d="M34.2946 73.5856C33.3788 71.655 31.962 70.0055 30.1917 68.809C28.4214 67.6125 26.3625 66.9128 24.2298 66.783C22.097 66.6531 19.9685 67.0977 18.0661 68.0705C16.1637 69.0434 14.5571 70.5087 13.4139 72.3139C12.2706 74.119 11.6326 76.1978 11.5662 78.3334C11.4999 80.4691 12.0078 82.5835 13.0368 84.4561C14.0659 86.3286 15.5784 87.8909 17.4168 88.9799C19.2552 90.0688 21.3521 90.6447 23.4888 90.6474C25.5049 90.6499 27.4888 90.142 29.2557 89.171C31.0226 88.2001 32.5149 86.7976 33.5936 85.0944C34.6724 83.3911 35.3024 81.4425 35.4249 79.4302C35.5475 77.4178 35.1586 75.4071 34.2946 73.5856ZM30.6661 87.4056C28.9358 88.8339 26.8206 89.7165 24.5884 89.9417C22.3561 90.1669 20.1072 89.7246 18.1265 88.6708C16.1458 87.6169 14.5224 85.999 13.462 84.0219C12.4015 82.0447 11.9516 79.7973 12.1693 77.5643C12.387 75.3313 13.2625 73.2132 14.685 71.4781C16.1074 69.7431 18.0127 68.4692 20.1597 67.8178C22.3066 67.1664 24.5986 67.1668 26.7453 67.819C28.892 68.4711 30.7969 69.7457 32.2187 71.4813C34.1162 73.8023 35.018 76.7799 34.7271 79.7637C34.4362 82.7475 32.9762 85.4949 30.6661 87.4056Z" fill="#51BDBF" style="fill:#51BDBF;fill:color(display-p3 0.3176 0.7412 0.7490);fill-opacity:1;"/>
<path d="M25.0937 73.4031C26.6246 73.4879 28.1573 73.2704 29.6042 72.7628C31.0511 72.2553 32.3838 71.4677 33.5263 70.4451C34.6688 69.4225 35.5987 68.1849 36.2629 66.8029C36.9271 65.421 37.3126 63.9217 37.3974 62.3907C37.4822 60.8598 37.2646 59.3271 36.7571 57.8802C36.2496 56.4333 35.462 55.1006 34.4394 53.9581C33.4168 52.8156 32.1792 51.8857 30.7972 51.2215C29.4152 50.5572 27.916 50.1717 26.385 50.087C24.854 50.0022 23.3214 50.2198 21.8745 50.7273C20.4276 51.2348 19.0949 52.0224 17.9524 53.045C16.8098 54.0676 15.8799 55.3052 15.2157 56.6872C14.5515 58.0692 14.166 59.5684 14.0812 61.0994C13.9964 62.6304 14.214 64.163 14.7216 65.6099C15.2291 67.0568 16.0166 68.3895 17.0392 69.532C18.0618 70.6745 19.2995 71.6044 20.6814 72.2686C22.0634 72.9328 23.5627 73.3184 25.0937 73.4031Z" fill="#FFAF9C" style="fill:#FFAF9C;fill:color(display-p3 1.0000 0.6863 0.6118);fill-opacity:1;"/>
<path d="M25.7352 49.7562C23.3643 49.7574 21.047 50.4614 19.0762 51.7795C17.1054 53.0975 15.5696 54.9703 14.6631 57.161C13.7566 59.3518 13.52 61.7621 13.9832 64.0874C14.4464 66.4126 15.5887 68.5482 17.2656 70.2243C18.9425 71.9004 21.0787 73.0417 23.4041 73.5038C25.7295 73.9659 28.1398 73.7282 30.3301 72.8206C32.5204 71.913 34.3925 70.3764 35.7096 68.405C37.0267 66.4336 37.7297 64.1159 37.7297 61.745C37.7266 58.5653 36.4618 55.5168 34.2129 53.269C31.964 51.0211 28.9149 49.7577 25.7352 49.7562ZM25.7352 73.1025C23.4855 73.1025 21.2864 72.4353 19.4159 71.1855C17.5453 69.9356 16.0874 68.1592 15.2265 66.0808C14.3656 64.0023 14.1403 61.7153 14.5792 59.5089C15.0181 57.3024 16.1014 55.2757 17.6922 53.6849C19.283 52.0942 21.3097 51.0108 23.5162 50.5719C25.7226 50.1331 28.0096 50.3583 30.0881 51.2192C32.1665 52.0801 33.9429 53.538 35.1928 55.4086C36.4426 57.2791 37.1097 59.4783 37.1097 61.7279C37.1097 64.7446 35.9114 67.6378 33.7782 69.7709C31.6451 71.9041 28.7519 73.1025 25.7352 73.1025Z" fill="#E27761" style="fill:#E27761;fill:color(display-p3 0.8863 0.4667 0.3804);fill-opacity:1;"/>
<path d="M16.7039 69.1212C18.5576 71.4265 21.2238 72.9344 24.1546 73.3352C27.0855 73.7361 30.0586 72.9995 32.4633 71.2767C30.5974 68.989 27.9332 67.4942 25.0082 67.0942C22.0833 66.6941 19.1155 67.4185 16.7039 69.1212Z" fill="#FF9FFF" style="fill:#FF9FFF;fill:color(display-p3 1.0000 0.6235 1.0000);fill-opacity:1;"/>
<path d="M32.7361 71.0776C30.8239 68.7218 28.0867 67.1821 25.0805 66.7712C22.0743 66.3603 19.0243 67.109 16.5501 68.8652L16.2771 69.0586L16.4875 69.3202C18.3926 71.6881 21.132 73.2368 24.1431 73.6482C27.1543 74.0596 30.2087 73.3026 32.6792 71.5326L32.9522 71.3392L32.7361 71.0776ZM17.17 69.2065C19.4659 67.6864 22.2365 67.0536 24.9647 67.4262C27.6929 67.7987 30.1924 69.1512 31.9967 71.2311C29.7063 72.7681 26.9314 73.411 24.1984 73.0378C21.4654 72.6646 18.9645 71.3013 17.17 69.2065Z" fill="#F42CFF" style="fill:#F42CFF;fill:color(display-p3 0.9569 0.1725 1.0000);fill-opacity:1;"/>
<path d="M83.7567 48.1631L93.5899 37.5677C92.2193 36.2369 83.9841 28.6956 83.0116 27.9904L73.6845 38.3981C75.1632 39.7346 83.1368 47.5944 83.7567 48.1631Z" fill="#FFAF9C" style="fill:#FFAF9C;fill:color(display-p3 1.0000 0.6863 0.6118);fill-opacity:1;"/>
<path d="M75.4303 57.4789L84.0977 47.7025C82.4199 46.1271 75.8625 40.309 73.707 38.3071L64.8349 48.1632C68.3951 51.1888 71.6084 54.1405 75.4303 57.4789Z" fill="#FF9783" style="fill:#FF9783;fill:color(display-p3 1.0000 0.5922 0.5137);fill-opacity:1;"/>
<path d="M65.0396 48.1235L56.5087 57.5871C56.3535 57.7547 56.2335 57.9517 56.1559 58.1665C56.0783 58.3813 56.0446 58.6095 56.0568 58.8376C56.069 59.0656 56.1268 59.2889 56.2269 59.4942C56.327 59.6995 56.4673 59.8826 56.6395 60.0327L64.5277 67.0906C64.8714 67.3964 65.3222 67.5538 65.7815 67.5282C66.2408 67.5026 66.6714 67.2962 66.9789 66.9541L75.3733 57.5189C71.6084 53.9587 68.7761 51.5018 65.0396 48.1235Z" fill="#FF725F" style="fill:#FF725F;fill:color(display-p3 1.0000 0.4471 0.3725);fill-opacity:1;"/>
<path d="M100.267 27.1206L92.4125 20.0627C92.0665 19.7586 91.6147 19.603 91.1549 19.6296C90.695 19.6562 90.2642 19.8629 89.9556 20.2049L82.6418 28.349C83.5916 29.06 91.5082 36.5842 92.8789 37.9605L100.414 29.5718C100.719 29.2267 100.874 28.775 100.847 28.3157C100.819 27.8563 100.61 27.4266 100.267 27.1206Z" fill="#FFE2DC" style="fill:#FFE2DC;fill:color(display-p3 1.0000 0.8863 0.8627);fill-opacity:1;"/>
<path d="M100.483 26.8875L92.6003 19.8297C92.1933 19.468 91.6596 19.2824 91.116 19.3133C90.5724 19.3442 90.0632 19.5891 89.6998 19.9946L56.253 57.377C55.8917 57.7831 55.7062 58.3158 55.7371 58.8585C55.768 59.4011 56.0128 59.9094 56.4179 60.2718L64.3005 67.324C64.5008 67.504 64.7348 67.6426 64.9888 67.732C65.2428 67.8214 65.512 67.8598 65.7809 67.845C66.0498 67.8302 66.3132 67.7625 66.5559 67.6458C66.7986 67.5291 67.0159 67.3656 67.1953 67.1648L100.642 29.7824C101.004 29.377 101.191 28.8447 101.161 28.302C101.131 27.7594 100.887 27.2507 100.483 26.8875ZM74.1736 38.3019L82.6647 28.8269L92.5093 37.9265L84.149 47.2764L74.1736 38.3019ZM83.7282 47.7428L75.3906 57.0357L65.3811 48.1067L73.73 38.7739L83.7282 47.7428ZM66.7233 66.7439C66.4715 67.0227 66.1197 67.1906 65.7446 67.2108C65.3695 67.2311 65.0016 67.1021 64.7213 66.852L56.8388 59.7998C56.6997 59.6759 56.5864 59.5258 56.5053 59.3581C56.4243 59.1904 56.3771 59.0084 56.3666 58.8224C56.356 58.6364 56.3822 58.4502 56.4437 58.2744C56.5053 58.0986 56.6008 57.9367 56.725 57.7978L64.9716 48.5788L74.9868 57.5078L66.7233 66.7439ZM100.17 29.3615L92.9359 37.4488L83.0912 28.3492L90.1775 20.4154C90.4285 20.1358 90.7799 19.9669 91.155 19.9456C91.5301 19.9243 91.8984 20.0523 92.1795 20.3017L100.068 27.3596C100.346 27.6121 100.513 27.9644 100.532 28.3394C100.551 28.7145 100.421 29.082 100.17 29.3615Z" fill="#E27761" style="fill:#E27761;fill:color(display-p3 0.8863 0.4667 0.3804);fill-opacity:1;"/>
<path d="M27.1684 67.6027C26.4123 70.4639 26.7725 73.5055 28.1761 76.1109C29.5797 78.7164 31.9215 80.6905 34.7268 81.6332C35.4815 78.772 35.1206 75.7309 33.7173 73.1259C32.3139 70.5208 29.9729 68.5464 27.1684 67.6027Z" fill="#CAFFAB" style="fill:#CAFFAB;fill:color(display-p3 0.7922 1.0000 0.6706);fill-opacity:1;"/>
<path d="M27.2707 67.3012L26.9466 67.1931L26.8613 67.523C26.0934 70.4616 26.4674 73.5819 27.9078 76.2559C29.3482 78.9299 31.7481 80.9589 34.6244 81.9345L34.9429 82.0426L35.0111 81.7184C35.7803 78.782 35.4098 75.6632 33.9739 72.9888C32.538 70.3144 30.1433 68.2824 27.2707 67.3012ZM34.4993 81.2179C31.9153 80.2535 29.7699 78.3831 28.4621 75.9549C27.1543 73.5266 26.7734 70.7059 27.3902 68.0178C29.9741 68.9822 32.1196 70.8526 33.4273 73.2808C34.7351 75.7091 35.116 78.5297 34.4993 81.2179Z" fill="#72C63C" style="fill:#72C63C;fill:color(display-p3 0.4471 0.7765 0.2353);fill-opacity:1;"/>
<path d="M27.1058 73.335C28.7494 73.1449 30.3337 72.607 31.7533 71.757C33.1729 70.9071 34.3951 69.7646 35.3389 68.4055C36.2826 67.0464 36.926 65.502 37.2265 63.8749C37.5269 62.2478 37.4774 60.5755 37.0813 58.969C35.438 59.16 33.8542 59.6984 32.4351 60.5487C31.016 61.3989 29.7941 62.5414 28.8506 63.9002C27.907 65.259 27.2635 66.8031 26.9626 68.4298C26.6618 70.0565 26.7106 71.7286 27.1058 73.335Z" fill="#FFD89F" style="fill:#FFD89F;fill:color(display-p3 1.0000 0.8471 0.6235);fill-opacity:1;"/>
<path d="M37.6555 60.3913C37.5838 59.8005 37.4717 59.2152 37.32 58.6396C29.6649 59.5382 25.0867 66.4255 26.8611 73.6825C28.4492 73.5353 29.9919 73.0725 31.3987 72.3212C32.8055 71.5698 34.0481 70.5451 35.0536 69.3071C36.059 68.069 36.8071 66.6427 37.2539 65.1117C37.7007 63.5807 37.8373 61.9758 37.6555 60.3913ZM27.3502 72.9829C27.0162 71.4587 27.0005 69.8819 27.3041 68.3513C27.6077 66.8207 28.2241 65.3693 29.1146 64.088C30.0052 62.8067 31.1507 61.723 32.4794 60.9049C33.8081 60.0867 35.2915 59.5518 36.8366 59.3335C37.1723 60.8579 37.1893 62.4352 36.8864 63.9664C36.5835 65.4977 35.9673 66.9498 35.0765 68.2315C34.1857 69.5133 33.0395 70.597 31.7099 71.4146C30.3803 72.2323 28.896 72.7662 27.3502 72.9829Z" fill="#F79928" style="fill:#F79928;fill:color(display-p3 0.9686 0.6000 0.1569);fill-opacity:1;"/>
<path d="M98.9588 42.8063L102.587 32.5692C102.67 32.3553 102.709 32.1268 102.702 31.8974C102.694 31.6681 102.64 31.4426 102.544 31.2344C102.447 31.0263 102.31 30.8398 102.139 30.6861C101.969 30.5324 101.769 30.4146 101.552 30.3398L91.5767 26.7967C91.363 26.7177 91.1356 26.6824 90.9079 26.6928C90.6803 26.7032 90.4571 26.7591 90.2514 26.8571C90.0457 26.9552 89.8618 27.0935 89.7104 27.2638C89.559 27.4341 89.4433 27.633 89.3701 27.8488L85.7018 38.1996C89.7568 39.593 93.9028 41.1456 98.9588 42.8063Z" fill="#D2FFEE" style="fill:#D2FFEE;fill:color(display-p3 0.8235 1.0000 0.9333);fill-opacity:1;"/>
<path d="M84.951 51.6783C88.1814 52.8157 91.4857 53.6859 94.7729 54.6413L98.9701 42.7834C93.1293 40.7815 90.735 39.9397 85.6676 38.1824L81.3168 50.4669C82.5623 50.8309 83.751 51.2574 84.951 51.6783Z" fill="#ABFFE1" style="fill:#ABFFE1;fill:color(display-p3 0.6706 1.0000 0.8824);fill-opacity:1;"/>
<path d="M90.1206 67.7333L94.7273 54.7379C91.5595 53.7825 83.6827 51.1777 81.3623 50.4952L76.875 63.121C81.4134 64.6565 84.968 65.794 90.1206 67.7333Z" fill="#82F4D6" style="fill:#82F4D6;fill:color(display-p3 0.5098 0.9569 0.8392);fill-opacity:1;"/>
<path d="M76.8979 63.0811L72.6097 75.1551C72.5307 75.3689 72.4954 75.5963 72.5058 75.8239C72.5162 76.0515 72.5721 76.2748 72.6701 76.4805C72.7682 76.6861 72.9065 76.8701 73.0768 77.0215C73.2471 77.1728 73.446 77.2885 73.6618 77.3618L83.6373 80.8993C84.0718 81.0508 84.5485 81.0247 84.9639 80.8266C85.3792 80.6285 85.6996 80.2745 85.8553 79.8414L90.1208 67.6934C86.4752 66.3228 78.8543 63.718 76.8979 63.0811Z" fill="#57E5CA" style="fill:#57E5CA;fill:color(display-p3 0.3412 0.8980 0.7922);fill-opacity:1;"/>
<path d="M76.8978 33.0756L84.2913 21.0414C80.4205 18.4329 76.3511 16.132 72.1205 14.1598L64.8579 25.8642C68.9129 28.2585 72.0921 30.0898 76.8978 33.0756Z" fill="#FFFDA9" style="fill:#FFFDA9;fill:color(display-p3 1.0000 0.9922 0.6627);fill-opacity:1;"/>
<path d="M69.7828 44.3819L77.017 32.8936C72.7743 30.2775 69.0549 28.0651 65.0397 25.7163L57.7599 37.1818C61.6092 39.837 65.6251 42.242 69.7828 44.3819Z" fill="#F4D862" style="fill:#F4D862;fill:color(display-p3 0.9569 0.8471 0.3843);fill-opacity:1;"/>
<path d="M57.7601 36.9316L51.4074 47.7033C51.2857 47.8959 51.2037 48.1109 51.1664 48.3357C51.1292 48.5604 51.1372 48.7904 51.1903 49.0119C51.2433 49.2335 51.3401 49.4422 51.4751 49.6258C51.6101 49.8093 51.7804 49.964 51.9761 50.0806L60.9791 55.6427C61.3715 55.883 61.8432 55.958 62.2908 55.8515C62.7384 55.7449 63.1257 55.4654 63.3677 55.074L69.965 44.1431C65.2218 41.1914 62.0085 39.3999 57.7601 36.9316Z" fill="#E5B642" style="fill:#E5B642;fill:color(display-p3 0.8980 0.7137 0.2588);fill-opacity:1;"/>
<path d="M89.1538 9.97388L80.1509 4.41173C79.9581 4.28909 79.7426 4.20642 79.5173 4.16864C79.2919 4.13085 79.0613 4.13871 78.839 4.19175C78.6168 4.2448 78.4074 4.34194 78.2234 4.47743C78.0395 4.61291 77.8845 4.78397 77.7679 4.98046L71.6598 14.8649C76.4087 17.7086 77.9954 18.664 83.694 22.1105L89.7169 12.3341C89.8361 12.1425 89.9162 11.9292 89.9525 11.7064C89.9887 11.4837 89.9804 11.256 89.9281 11.0365C89.8757 10.8169 89.7803 10.61 89.6474 10.4276C89.5145 10.2452 89.3467 10.091 89.1538 9.97388Z" fill="#FFFDDC" style="fill:#FFFDDC;fill:color(display-p3 1.0000 0.9922 0.8627);fill-opacity:1;"/>
<path d="M89.313 9.70641L80.3158 4.14995C80.0861 4.00458 79.8297 3.90642 79.5616 3.86118C79.2936 3.81595 79.0192 3.82455 78.7545 3.88649C78.4898 3.94843 78.24 4.06247 78.0199 4.22195C77.7997 4.38143 77.6135 4.58316 77.4722 4.81536L51.1174 47.4699C50.9727 47.6998 50.8752 47.9562 50.8304 48.2241C50.7856 48.492 50.7944 48.7661 50.8562 49.0306C50.9181 49.2951 51.0319 49.5447 51.1909 49.7649C51.35 49.9851 51.5511 50.1716 51.7828 50.3135L60.78 55.87C61.0103 56.0143 61.267 56.1115 61.5351 56.1559C61.8033 56.2003 62.0775 56.191 62.3421 56.1286C62.6066 56.0662 62.8561 55.9518 63.0761 55.7922C63.2961 55.6326 63.4822 55.4309 63.6237 55.1989L89.9841 12.5444C90.1269 12.3141 90.2227 12.0579 90.2662 11.7905C90.3097 11.5231 90.3 11.2497 90.2377 10.9861C90.1753 10.7224 90.0616 10.4737 89.9029 10.2541C89.7442 10.0345 89.5438 9.84838 89.313 9.70641ZM65.3696 25.6308L71.728 15.3425L83.2504 22.207L76.9148 32.4441L65.3696 25.6308ZM76.5849 33.0242L69.9422 43.7731L58.3572 36.9939L65.0398 26.1881L76.5849 33.0242ZM63.0834 54.8747C62.885 55.1935 62.5685 55.4209 62.203 55.5072C61.8375 55.5935 61.4527 55.5317 61.1326 55.3354L52.1354 49.7789C51.9763 49.6811 51.838 49.5529 51.7284 49.4016C51.6189 49.2504 51.5402 49.079 51.4969 48.8973C51.4536 48.7156 51.4465 48.5272 51.476 48.3428C51.5056 48.1583 51.5711 47.9815 51.669 47.8225L58.0274 37.5342L69.6123 44.3077L63.0834 54.8747ZM89.4439 12.2202L83.586 21.7065L72.0579 14.8136L78.0295 5.14522C78.1268 4.9863 78.2544 4.84814 78.4052 4.73865C78.556 4.62916 78.7269 4.5505 78.9081 4.50718C79.0893 4.46386 79.2773 4.45672 79.4613 4.48618C79.6452 4.51564 79.8216 4.58112 79.9802 4.67887L88.9832 10.241C89.3036 10.4395 89.5321 10.757 89.6185 11.1239C89.7048 11.4907 89.642 11.8769 89.4439 12.1974V12.2202Z" fill="#B39144" style="fill:#B39144;fill:color(display-p3 0.7020 0.5686 0.2667);fill-opacity:1;"/>
<path d="M25.3692 1.95061L37.1803 0.338998C37.1803 0.338998 39.8287 -0.0223849 40.1901 2.62609L41.1443 9.61919C41.1443 9.61919 41.5057 12.2677 38.8572 12.629L27.0462 14.2407C27.0462 14.2407 24.3977 14.602 24.0363 11.9536L23.0821 4.96047C23.0821 4.96047 22.7207 2.312 25.3692 1.95061Z" fill="#FEDAF6" style="fill:#FEDAF6;fill:color(display-p3 0.9961 0.8549 0.9647);fill-opacity:1;"/>
<path d="M41.4604 9.57548L40.505 2.58583C40.3962 1.80076 39.9809 1.09073 39.3499 0.611108C38.7189 0.131481 37.9237 -0.0786968 37.1381 0.0265596L25.3427 1.63606C24.5577 1.74484 23.8476 2.16015 23.368 2.79113C22.8884 3.4221 22.6782 4.21737 22.7835 5.00292L23.7389 11.9983C23.8463 12.784 24.2612 13.4949 24.8926 13.9748C25.5239 14.4548 26.32 14.6643 27.1058 14.5575L38.9182 12.9423C39.7002 12.8295 40.406 12.4125 40.882 11.7819C41.3581 11.1514 41.566 10.3585 41.4604 9.57548ZM38.8159 12.3338L27.0034 13.9262C26.3844 14.0105 25.7572 13.8459 25.2594 13.4685C24.7615 13.0911 24.4336 12.5317 24.3475 11.9129L23.3977 4.94036C23.3135 4.32198 23.4783 3.69548 23.8558 3.19853C24.2333 2.70158 24.7927 2.37484 25.411 2.29009L37.2234 0.674908C37.8384 0.590357 38.4618 0.752061 38.9581 1.12484C39.4545 1.49762 39.7835 2.05131 39.8737 2.66545L40.8292 9.66079C40.8733 9.96861 40.8562 10.2821 40.7788 10.5833C40.7014 10.8845 40.5652 11.1674 40.3781 11.4158C40.191 11.6642 39.9567 11.8731 39.6886 12.0307C39.4205 12.1882 39.1239 12.2912 38.8159 12.3338Z" fill="#FFAAD7" style="fill:#FFAAD7;fill:color(display-p3 1.0000 0.6667 0.8431);fill-opacity:1;"/>
<path d="M32.6452 5.95272C32.562 6.18757 32.416 6.39515 32.2232 6.55295C32.0304 6.71075 31.798 6.81276 31.5513 6.84792C31.3047 6.88307 31.0531 6.85004 30.8238 6.75239C30.5946 6.65474 30.3965 6.4962 30.2509 6.29396C30.2046 6.22618 30.1354 6.17737 30.056 6.15647C29.9766 6.13558 29.8924 6.14401 29.8187 6.18021C29.7828 6.20183 29.7515 6.23032 29.7266 6.26404C29.7018 6.29777 29.6838 6.33607 29.6738 6.37675C29.6637 6.41743 29.6618 6.45969 29.6681 6.50111C29.6745 6.54253 29.6889 6.5823 29.7106 6.61813C29.9215 6.92349 30.2131 7.16422 30.5529 7.31344C30.8927 7.46267 31.2672 7.51451 31.6348 7.46319C32.0023 7.41186 32.3483 7.25939 32.6342 7.02279C32.9201 6.7862 33.1346 6.47479 33.2538 6.12334C33.2767 6.04265 33.2668 5.95618 33.2264 5.88271C33.1859 5.80924 33.1181 5.75469 33.0377 5.73092C32.9565 5.71387 32.8718 5.72698 32.7996 5.7678C32.7274 5.80863 32.6725 5.87437 32.6452 5.95272Z" fill="#5E503B" style="fill:#5E503B;fill:color(display-p3 0.3686 0.3137 0.2314);fill-opacity:1;"/>
<path d="M7.7024 21.782L10.3566 15.2422C10.3566 15.2422 11.3618 12.7654 13.8386 13.7706L24.8841 18.2534C24.8841 18.2534 27.3609 19.2587 26.3557 21.7355L23.7015 28.2753C23.7015 28.2753 22.6963 30.7521 20.2195 29.7468L9.17398 25.264C9.17398 25.264 6.69718 24.2588 7.7024 21.782Z" fill="#FFFDA9" style="fill:#FFFDA9;fill:color(display-p3 1.0000 0.9922 0.6627);fill-opacity:1;"/>
<path d="M25.0015 17.9643L13.9682 13.4713C13.2326 13.1766 12.4103 13.1845 11.6806 13.4935C10.9508 13.8024 10.3728 14.3873 10.0724 15.1206L7.41077 21.661C7.11413 22.3957 7.12051 23.218 7.42852 23.9481C7.73653 24.6782 8.3211 25.2565 9.05439 25.5568L20.0991 30.0383C20.4627 30.1867 20.8521 30.262 21.2449 30.2597C21.6376 30.2574 22.0261 30.1776 22.388 30.0249C22.7499 29.8722 23.0781 29.6496 23.3538 29.3699C23.6296 29.0902 23.8474 28.7588 23.9948 28.3947L26.6508 21.8543C26.799 21.4907 26.8738 21.1014 26.8711 20.7088C26.8683 20.3162 26.788 19.928 26.6347 19.5665C26.4815 19.205 26.2583 18.8774 25.978 18.6024C25.6977 18.3274 25.3658 18.1106 25.0015 17.9643ZM26.0593 21.6212L23.409 28.1558C23.2928 28.4429 23.1211 28.7041 22.9038 28.9247C22.6865 29.1453 22.4278 29.3208 22.1425 29.4413C21.8572 29.5617 21.551 29.6247 21.2413 29.6266C20.9317 29.6286 20.6247 29.5694 20.3379 29.4525L9.29325 24.971C8.71456 24.735 8.25307 24.2792 8.00998 23.7035C7.7669 23.1278 7.76207 22.4791 7.99656 21.8998L10.6468 15.3652C10.8828 14.7865 11.3386 14.325 11.9143 14.0819C12.49 13.8388 13.1387 13.834 13.7179 14.0685L24.774 18.55C25.0605 18.6667 25.3211 18.8389 25.5409 19.0565C25.7607 19.2742 25.9353 19.5332 26.0547 19.8186C26.1742 20.1039 26.236 20.4101 26.2368 20.7194C26.2376 21.0287 26.1773 21.3352 26.0593 21.6212Z" fill="#B39144" style="fill:#B39144;fill:color(display-p3 0.7020 0.5686 0.2667);fill-opacity:1;"/>
<path d="M18.1541 20.8647C17.9658 21.035 17.7336 21.1493 17.4839 21.1949C17.2341 21.2404 16.9765 21.2154 16.7402 21.1226C16.5039 21.0299 16.2981 20.873 16.146 20.6697C15.9939 20.4664 15.9015 20.2247 15.8792 19.9718C15.8778 19.8878 15.8437 19.8076 15.7843 19.7482C15.7249 19.6888 15.6447 19.6548 15.5607 19.6533C15.5189 19.6533 15.4775 19.6616 15.4389 19.6776C15.4002 19.6936 15.3651 19.717 15.3355 19.7466C15.306 19.7762 15.2825 19.8113 15.2665 19.8499C15.2505 19.8886 15.2422 19.93 15.2422 19.9718C15.2728 20.3427 15.4059 20.6978 15.6266 20.9974C15.8472 21.297 16.1469 21.5294 16.492 21.6686C16.8371 21.8079 17.2141 21.8484 17.5809 21.7858C17.9477 21.7232 18.2899 21.5598 18.5693 21.314C18.6287 21.2543 18.662 21.1736 18.662 21.0894C18.662 21.0052 18.6287 20.9244 18.5693 20.8647C18.511 20.8161 18.4376 20.7895 18.3617 20.7895C18.2859 20.7895 18.2124 20.8161 18.1541 20.8647Z" fill="#5E503B" style="fill:#5E503B;fill:color(display-p3 0.3686 0.3137 0.2314);fill-opacity:1;"/>
<path d="M0.322062 35.6124L0.43046 28.5553C0.43046 28.5553 0.471512 25.8826 3.14421 25.9237L15.0633 26.1068C15.0633 26.1068 17.736 26.1478 17.695 28.8205L17.5866 35.8776C17.5866 35.8776 17.5455 38.5503 14.8728 38.5092L2.95371 38.3262C2.95371 38.3262 0.281009 38.2851 0.322062 35.6124Z" fill="#ABFFE1" style="fill:#ABFFE1;fill:color(display-p3 0.6706 1.0000 0.8824);fill-opacity:1;"/>
<path d="M15.0658 25.79L3.12258 25.608C2.331 25.5988 1.56782 25.9026 0.999073 26.4532C0.430324 27.0039 0.102019 27.7568 0.0855799 28.5483L0.000270538 35.6062C-0.0103778 36.3992 0.293691 37.1641 0.845872 37.7333C1.39805 38.3025 2.15333 38.6297 2.94628 38.6432L14.8895 38.8252C15.6741 38.8238 16.4268 38.5142 16.9853 37.9632C17.5438 37.4121 17.8634 36.6637 17.8754 35.8792L18.0062 28.827C18.0129 28.4344 17.9422 28.0443 17.798 27.6791C17.6539 27.3139 17.4391 26.9807 17.1659 26.6986C16.8928 26.4165 16.5668 26.191 16.2064 26.0351C15.846 25.8792 15.4584 25.7959 15.0658 25.79ZM17.3806 28.827L17.2668 35.8735C17.2639 36.1834 17.1994 36.4896 17.077 36.7743C16.9547 37.0591 16.7769 37.3166 16.5541 37.532C16.3313 37.7474 16.0679 37.9163 15.7792 38.029C15.4905 38.1417 15.1823 38.1958 14.8725 38.1882L2.92921 38.0062C2.61978 38.0025 2.31413 37.9377 2.02982 37.8155C1.74552 37.6933 1.48816 37.5162 1.27253 37.2942C1.05691 37.0722 0.887274 36.8098 0.77337 36.5221C0.659466 36.2344 0.603541 35.927 0.608808 35.6176L0.716866 28.5597C0.721955 28.2458 0.789613 27.9361 0.915881 27.6486C1.04215 27.3612 1.22449 27.1019 1.45222 26.8858C1.67996 26.6697 1.94851 26.5012 2.24216 26.3902C2.53582 26.2792 2.84866 26.2279 3.16239 26.2393L15.1057 26.4213C15.7252 26.4421 16.3115 26.7063 16.7374 27.1567C17.1633 27.6071 17.3944 28.2073 17.3806 28.827Z" fill="#51BDBF" style="fill:#51BDBF;fill:color(display-p3 0.3176 0.7412 0.7490);fill-opacity:1;"/>
<path d="M12.4496 28.0819C12.2143 28.0808 11.9839 28.1495 11.7877 28.2795C11.5915 28.4094 11.4383 28.5946 11.3474 28.8117C11.2566 29.0288 11.2322 29.268 11.2775 29.4989C11.3227 29.7299 11.4354 29.9422 11.6014 30.109C11.7674 30.2758 11.9792 30.3896 12.21 30.4359C12.4407 30.4823 12.68 30.459 12.8975 30.3693C13.115 30.2795 13.301 30.1271 13.4319 29.9315C13.5627 29.7359 13.6326 29.5059 13.6326 29.2706C13.6311 28.9568 13.5062 28.6561 13.2848 28.4337C13.0634 28.2113 12.7634 28.0849 12.4496 28.0819Z" fill="#5E503B" style="fill:#5E503B;fill:color(display-p3 0.3686 0.3137 0.2314);fill-opacity:1;"/>
<path d="M5.30074 28.1045C5.06702 28.1056 4.83887 28.176 4.64508 28.3066C4.4513 28.4373 4.30056 28.6224 4.2119 28.8387C4.12323 29.0549 4.10062 29.2926 4.1469 29.5217C4.19319 29.7508 4.3063 29.961 4.47196 30.1259C4.63762 30.2908 4.84841 30.4029 5.07773 30.4481C5.30704 30.4933 5.5446 30.4695 5.76043 30.3798C5.97625 30.2901 6.16067 30.1385 6.2904 29.9441C6.42014 29.7497 6.48938 29.5212 6.48938 29.2875C6.48938 29.1316 6.45859 28.9773 6.39879 28.8334C6.33899 28.6895 6.25134 28.5589 6.14089 28.449C6.03044 28.339 5.89936 28.252 5.75518 28.1929C5.611 28.1338 5.45656 28.1038 5.30074 28.1045Z" fill="#5E503B" style="fill:#5E503B;fill:color(display-p3 0.3686 0.3137 0.2314);fill-opacity:1;"/>
<path d="M9.74241 30.9482C9.62851 31.1757 9.45353 31.367 9.23708 31.5007C9.02062 31.6344 8.77122 31.7052 8.5168 31.7052C8.26238 31.7052 8.01298 31.6344 7.79652 31.5007C7.58007 31.367 7.40509 31.1757 7.29119 30.9482C7.10351 30.5785 6.55754 30.9027 6.72247 31.2667C6.89268 31.5907 7.14823 31.862 7.46147 32.0512C7.77472 32.2405 8.13375 32.3406 8.49974 32.3406C8.86573 32.3406 9.22476 32.2405 9.538 32.0512C9.85125 31.862 10.1068 31.5907 10.277 31.2667C10.4818 30.9084 9.93009 30.5842 9.74241 30.9482Z" fill="#5E503B" style="fill:#5E503B;fill:color(display-p3 0.3686 0.3137 0.2314);fill-opacity:1;"/>
<path d="M20.1389 56.4784C19.828 56.4773 19.5237 56.5685 19.2647 56.7406C19.0057 56.9126 18.8036 57.1577 18.6841 57.4448C18.5646 57.7318 18.533 58.0479 18.5934 58.3529C18.6538 58.6579 18.8034 58.9381 19.0233 59.158C19.2432 59.3779 19.5234 59.5275 19.8284 59.5879C20.1334 59.6483 20.4495 59.6167 20.7365 59.4972C21.0236 59.3777 21.2687 59.1756 21.4407 58.9166C21.6128 58.6576 21.704 58.3533 21.7029 58.0424C21.7014 57.6281 21.5361 57.2311 21.2432 56.9381C20.9502 56.6452 20.5532 56.4799 20.1389 56.4784Z" fill="#5E503B" style="fill:#5E503B;fill:color(display-p3 0.3686 0.3137 0.2314);fill-opacity:1;"/>
<path d="M28.704 52.4631C28.393 52.462 28.0888 52.5533 27.8298 52.7253C27.5708 52.8974 27.3687 53.1425 27.2492 53.4295C27.1297 53.7166 27.0981 54.0326 27.1585 54.3377C27.2189 54.6427 27.3685 54.9229 27.5884 55.1428C27.8082 55.3626 28.0884 55.5122 28.3934 55.5726C28.6985 55.633 29.0145 55.6014 29.3016 55.4819C29.5887 55.3624 29.8337 55.1604 30.0058 54.9013C30.1778 54.6423 30.2691 54.3381 30.268 54.0271C30.2665 53.6128 30.1012 53.2159 29.8082 52.9229C29.5152 52.6299 29.1183 52.4646 28.704 52.4631Z" fill="#5E503B" style="fill:#5E503B;fill:color(display-p3 0.3686 0.3137 0.2314);fill-opacity:1;"/>
<path d="M28.1522 57.8319C27.5583 58.3431 26.8466 58.6985 26.0812 58.8663C25.3157 59.0341 24.5206 59.0089 23.7673 58.7931C23.7778 59.7176 24.1005 60.6115 24.683 61.3296C24.9749 61.677 25.368 61.9246 25.8075 62.0378C26.2469 62.151 26.7108 62.1241 27.1342 61.9609C27.4749 61.7785 27.7647 61.5139 27.9773 61.1911C28.1898 60.8683 28.3184 60.4976 28.3513 60.1125C28.4163 59.3465 28.3489 58.5751 28.1522 57.8319Z" fill="white" style="fill:white;fill-opacity:1;"/>
<path d="M28.4537 57.7581C28.3969 57.4737 28.0898 57.4851 27.8452 57.6557C27.3033 58.1149 26.6563 58.433 25.9617 58.5818C25.2672 58.7307 24.5466 58.7056 23.8641 58.5088C23.8168 58.4956 23.7671 58.4936 23.7188 58.5029C23.6706 58.5121 23.6251 58.5324 23.586 58.5621C23.5469 58.5919 23.5152 58.6303 23.4934 58.6743C23.4716 58.7183 23.4603 58.7668 23.4603 58.8159C23.5741 60.232 24.0973 61.7164 25.5305 62.2738C25.8353 62.3983 26.1635 62.4551 26.4925 62.4404C26.8214 62.4257 27.1433 62.3397 27.4357 62.1885C27.7248 62.0117 27.9748 61.7777 28.1704 61.501C28.366 61.2242 28.503 60.9105 28.5732 60.579C28.7612 59.6428 28.7202 58.675 28.4537 57.7581ZM27.9248 60.5107C27.841 60.8361 27.663 61.1295 27.4131 61.3541C27.1632 61.5787 26.8525 61.7245 26.5201 61.7733C26.1822 61.7876 25.8461 61.7183 25.5415 61.5714C25.2369 61.4246 24.9733 61.2048 24.7741 60.9316C24.4216 60.4223 24.1919 59.8383 24.103 59.2254C24.7638 59.3606 25.4457 59.355 26.1042 59.209C26.7627 59.063 27.3831 58.7798 27.9248 58.378C28.0772 59.0807 28.0772 59.808 27.9248 60.5107Z" fill="#5E503B" style="fill:#5E503B;fill:color(display-p3 0.3686 0.3137 0.2314);fill-opacity:1;"/>
<path d="M78.5584 14.1308C78.53 14.5133 78.621 14.8952 78.8187 15.2238C79.0164 15.5525 79.3112 15.8117 79.6625 15.9658C80.0137 16.1199 80.404 16.1612 80.7798 16.0842C81.1555 16.0071 81.498 15.8155 81.7603 15.5356C82.0446 15.2399 81.5897 14.7906 81.311 15.0863C81.1374 15.2778 80.9077 15.4094 80.6547 15.4621C80.4017 15.5149 80.1385 15.4862 79.9029 15.38C79.6672 15.2739 79.4713 15.0958 79.3431 14.8714C79.215 14.647 79.1613 14.3877 79.1896 14.1308C79.1957 14.0858 79.1921 14.0401 79.179 13.9966C79.1659 13.9531 79.1436 13.9129 79.1137 13.8787C79.0839 13.8445 79.047 13.8171 79.0056 13.7984C78.9643 13.7796 78.9194 13.7699 78.874 13.7699C78.8286 13.7699 78.7837 13.7796 78.7424 13.7984C78.701 13.8171 78.6641 13.8445 78.6342 13.8787C78.6044 13.9129 78.5821 13.9531 78.569 13.9966C78.5559 14.0401 78.5523 14.0858 78.5584 14.1308Z" fill="#5E503B" style="fill:#5E503B;fill:color(display-p3 0.3686 0.3137 0.2314);fill-opacity:1;"/>
<path d="M35.0794 2.66554C34.8438 2.66442 34.6132 2.73332 34.4169 2.86349C34.2205 2.99367 34.0673 3.17925 33.9766 3.39667C33.886 3.6141 33.862 3.85356 33.9076 4.08467C33.9533 4.31577 34.0666 4.52808 34.2332 4.69466C34.3998 4.86124 34.6121 4.97456 34.8432 5.02024C35.0743 5.06592 35.3138 5.04191 35.5312 4.95124C35.7486 4.86057 35.9342 4.70734 36.0644 4.511C36.1946 4.31466 36.2635 4.08406 36.2623 3.84849C36.2623 3.53475 36.1377 3.23387 35.9159 3.01202C35.694 2.79017 35.3931 2.66554 35.0794 2.66554Z" fill="#5E503B" style="fill:#5E503B;fill:color(display-p3 0.3686 0.3137 0.2314);fill-opacity:1;"/>
<path d="M28.0101 3.76306C27.7759 3.76306 27.5469 3.83259 27.3523 3.96283C27.1576 4.09306 27.006 4.27815 26.9166 4.49464C26.8273 4.71113 26.8042 4.94927 26.8503 5.17889C26.8964 5.40852 27.0096 5.61929 27.1756 5.7845C27.3417 5.94971 27.553 6.06192 27.7828 6.10692C28.0127 6.15192 28.2507 6.12768 28.4667 6.03728C28.6828 5.94687 28.8671 5.79436 28.9964 5.59908C29.1257 5.4038 29.1942 5.17453 29.193 4.94033C29.1915 4.62757 29.0662 4.32815 28.8446 4.10753C28.6229 3.88691 28.3228 3.76306 28.0101 3.76306Z" fill="#5E503B" style="fill:#5E503B;fill:color(display-p3 0.3686 0.3137 0.2314);fill-opacity:1;"/>
<path d="M21.3048 19.073C21.0713 19.0753 20.8438 19.1465 20.6507 19.2779C20.4577 19.4092 20.3078 19.5947 20.2201 19.8111C20.1323 20.0274 20.1105 20.2649 20.1574 20.4936C20.2043 20.7224 20.3178 20.9321 20.4837 21.0964C20.6496 21.2607 20.8604 21.3722 21.0896 21.4169C21.3187 21.4617 21.556 21.4376 21.7715 21.3477C21.987 21.2579 22.1711 21.1063 22.3005 20.912C22.43 20.7177 22.4991 20.4894 22.4991 20.256C22.4984 20.0999 22.4669 19.9455 22.4065 19.8015C22.3461 19.6576 22.2579 19.527 22.147 19.4171C22.0361 19.3073 21.9046 19.2204 21.7601 19.1613C21.6156 19.1023 21.4609 19.0723 21.3048 19.073Z" fill="#5E503B" style="fill:#5E503B;fill:color(display-p3 0.3686 0.3137 0.2314);fill-opacity:1;"/>
<path d="M13.4564 17.6858C13.4564 17.9995 13.581 18.3004 13.8028 18.5222C14.0247 18.7441 14.3256 18.8687 14.6393 18.8687C14.9531 18.8687 15.2539 18.7441 15.4758 18.5222C15.6976 18.3004 15.8223 17.9995 15.8223 17.6858C15.8223 17.5304 15.7917 17.3766 15.7322 17.2331C15.6728 17.0895 15.5856 16.9591 15.4758 16.8493C15.3659 16.7394 15.2355 16.6523 15.092 16.5929C14.9485 16.5334 14.7947 16.5028 14.6393 16.5028C14.484 16.5028 14.3301 16.5334 14.1866 16.5929C14.0431 16.6523 13.9127 16.7394 13.8028 16.8493C13.693 16.9591 13.6059 17.0895 13.5464 17.2331C13.487 17.3766 13.4564 17.5304 13.4564 17.6858Z" fill="#5E503B" style="fill:#5E503B;fill:color(display-p3 0.3686 0.3137 0.2314);fill-opacity:1;"/>
<path d="M78.3594 9.21704C78.1254 9.21704 77.8967 9.28642 77.7022 9.4164C77.5077 9.54639 77.356 9.73114 77.2665 9.9473C77.177 10.1635 77.1535 10.4013 77.1992 10.6308C77.2448 10.8602 77.3575 11.071 77.5229 11.2365C77.6884 11.4019 77.8992 11.5146 78.1286 11.5602C78.3581 11.6059 78.5959 11.5824 78.8121 11.4929C79.0283 11.4034 79.213 11.2517 79.343 11.0572C79.473 10.8627 79.5424 10.634 79.5424 10.4C79.5424 10.0863 79.4177 9.78537 79.1959 9.56352C78.974 9.34167 78.6731 9.21704 78.3594 9.21704Z" fill="#5E503B" style="fill:#5E503B;fill:color(display-p3 0.3686 0.3137 0.2314);fill-opacity:1;"/>
<path d="M84.7405 12.4304C84.5051 12.4293 84.2748 12.4981 84.0786 12.628C83.8823 12.7579 83.7291 12.9432 83.6383 13.1602C83.5474 13.3773 83.5231 13.6165 83.5683 13.8475C83.6135 14.0784 83.7263 14.2907 83.8923 14.4575C84.0583 14.6243 84.2701 14.7381 84.5008 14.7844C84.7315 14.8308 84.9708 14.8076 85.1883 14.7178C85.4059 14.628 85.5918 14.4756 85.7227 14.28C85.8536 14.0844 85.9234 13.8544 85.9234 13.6191C85.9234 13.3048 85.799 13.0033 85.5773 12.7806C85.3556 12.5578 85.0547 12.4319 84.7405 12.4304Z" fill="#5E503B" style="fill:#5E503B;fill:color(display-p3 0.3686 0.3137 0.2314);fill-opacity:1;"/>
<path d="M91.1274 31.4713C90.8923 31.4713 90.6625 31.541 90.4671 31.6716C90.2716 31.8022 90.1192 31.9879 90.0293 32.2051C89.9393 32.4223 89.9158 32.6613 89.9616 32.8918C90.0075 33.1224 90.1207 33.3342 90.2869 33.5004C90.4532 33.6667 90.665 33.7799 90.8955 33.8258C91.1261 33.8716 91.3651 33.8481 91.5823 33.7581C91.7995 33.6681 91.9851 33.5158 92.1157 33.3203C92.2463 33.1249 92.3161 32.895 92.3161 32.66C92.3161 32.3447 92.1908 32.0424 91.9679 31.8195C91.745 31.5965 91.4427 31.4713 91.1274 31.4713Z" fill="#5E503B" style="fill:#5E503B;fill:color(display-p3 0.3686 0.3137 0.2314);fill-opacity:1;"/>
<path d="M96.2401 34.5426C96.682 34.4001 97.1489 34.3522 97.6104 34.4022C98.0719 34.4522 98.5178 34.5988 98.9188 34.8326C98.9929 34.874 99.0803 34.8847 99.1622 34.8624C99.2441 34.84 99.3139 34.7865 99.3568 34.7132C99.3979 34.64 99.4084 34.5535 99.386 34.4725C99.3636 34.3916 99.3102 34.3227 99.2373 34.281C98.763 34.0049 98.2362 33.8309 97.6907 33.7702C97.1452 33.7094 96.593 33.7633 96.0695 33.9284C95.6828 34.0535 95.8477 34.6734 96.2401 34.5653V34.5426Z" fill="#5E503B" style="fill:#5E503B;fill:color(display-p3 0.3686 0.3137 0.2314);fill-opacity:1;"/>
<path d="M91.8839 36.9937C92.8109 38.6317 95.1654 38.461 96.2858 36.715C96.5076 36.3738 95.9559 36.0781 95.7455 36.4022C94.8697 37.716 93.1294 37.898 92.4298 36.6752C92.3827 36.6135 92.3147 36.5711 92.2385 36.5561C92.1623 36.541 92.0833 36.5543 92.0162 36.5934C91.9492 36.6325 91.8987 36.6948 91.8743 36.7685C91.8499 36.8422 91.8533 36.9223 91.8839 36.9937Z" fill="#5E503B" style="fill:#5E503B;fill:color(display-p3 0.3686 0.3137 0.2314);fill-opacity:1;"/>
<path d="M27.1685 67.6027C26.6965 69.4908 26.6848 71.4646 27.1344 73.3582C29.0558 73.1435 30.8903 72.4406 32.4633 71.3165C32.4065 71.2653 30.9903 69.0472 27.1685 67.6027Z" fill="white" style="fill:white;fill-opacity:1;"/>
<path d="M32.6794 71.0776C31.2739 69.3348 29.4022 68.0272 27.2822 67.3069C27.2376 67.283 27.1878 67.2705 27.1372 67.2705C27.0866 67.2705 27.0368 67.283 26.9922 67.3069C26.9508 67.3302 26.9163 67.364 26.8923 67.405C26.8683 67.446 26.8557 67.4926 26.8557 67.5401C26.3724 69.4744 26.3724 71.4978 26.8557 73.4321C26.8745 73.5058 26.9195 73.5702 26.9823 73.6131C27.0451 73.656 27.1214 73.6745 27.1969 73.6653C29.1689 73.4366 31.0511 72.7127 32.6681 71.561C32.7036 71.5319 32.7325 71.4955 32.7527 71.4542C32.7728 71.413 32.7838 71.3678 32.7849 71.3219C32.786 71.276 32.7771 71.2304 32.7589 71.1882C32.7407 71.146 32.7136 71.1083 32.6794 71.0776ZM27.3732 73.0112C27.0122 71.3721 27.0122 69.674 27.3732 68.0349C29.1547 68.7016 30.7405 69.8045 31.9856 71.2425C30.6004 72.1708 29.024 72.7754 27.3732 73.0112Z" fill="#FF6DBD" style="fill:#FF6DBD;fill:color(display-p3 1.0000 0.4275 0.7412);fill-opacity:1;"/>
<path d="M40.4588 51.1941L57.0122 4.04213C57.0122 4.04213 57.5846 2.41159 59.2151 2.98401L69.1588 6.47486C69.1588 6.47486 70.7893 7.04728 70.2169 8.67782L53.6635 55.8298C53.6635 55.8298 53.0911 57.4604 51.4605 56.8879L41.5169 53.3971C41.5169 53.3971 39.8864 52.8247 40.4588 51.1941Z" fill="#FFC7F4" style="fill:#FFC7F4;fill:color(display-p3 1.0000 0.7804 0.9569);fill-opacity:1;"/>
<path d="M69.1347 5.89559L59.1421 2.43774C58.928 2.35994 58.7004 2.32583 58.4729 2.33741C58.2453 2.34899 58.0224 2.40602 57.8173 2.50515C57.6121 2.60428 57.4289 2.74349 57.2784 2.91457C57.128 3.08565 57.0133 3.28513 56.9412 3.50125L52.8065 15.4445C57.2426 16.9573 61.6787 18.4531 66.1545 19.8294L70.238 8.10225C70.3159 7.88521 70.3489 7.65464 70.3352 7.42446C70.3215 7.19429 70.2612 6.96928 70.1581 6.76304C70.055 6.55679 69.9111 6.37359 69.7352 6.2245C69.5593 6.07541 69.355 5.96352 69.1347 5.89559Z" fill="#FFEEFC" style="fill:#FFEEFC;fill:color(display-p3 1.0000 0.9333 0.9882);fill-opacity:1;"/>
<path d="M48.6606 27.4334C49.9289 27.8827 61.2011 31.6818 61.8551 31.8637L66.1831 19.8522C61.7527 18.4816 57.237 16.9574 52.8465 15.4617L48.6606 27.4334Z" fill="#FEDAF6" style="fill:#FEDAF6;fill:color(display-p3 0.9961 0.8549 0.9647);fill-opacity:1;"/>
<path d="M69.2484 5.61137L59.2501 2.14782C58.9944 2.05799 58.7234 2.01955 58.4527 2.03472C58.1821 2.04988 57.9171 2.11835 57.6729 2.23618C57.4288 2.35402 57.2104 2.51891 57.0301 2.72139C56.8499 2.92387 56.7114 3.15995 56.6226 3.41608L40.2262 50.8194C40.0485 51.3338 40.0822 51.8977 40.3201 52.3872C40.5579 52.8767 40.9803 53.2517 41.4945 53.4299L51.5041 56.8878C52.0184 57.0655 52.5823 57.0317 53.0718 56.7939C53.5613 56.5561 53.9363 56.1337 54.1145 55.6195L70.528 8.22182C70.6157 7.96642 70.6522 7.69621 70.6354 7.42668C70.6185 7.15715 70.5487 6.89359 70.4298 6.6511C70.3109 6.40861 70.1454 6.19195 69.9427 6.01354C69.7399 5.83512 69.504 5.69846 69.2484 5.61137ZM57.5155 43.8241C52.8292 42.3966 48.9846 41.1795 44.7135 39.7975L48.8538 27.8543C50.9752 28.5879 60.0407 31.642 61.5705 32.1311L57.5155 43.8241ZM61.781 31.5112C59.8359 30.8799 51.2538 27.9908 49.0642 27.2344L53.0055 15.8598C56.8615 17.1793 61.3032 18.7035 65.7507 20.057L61.781 31.5112ZM69.9195 8.01708L65.9384 19.4485C61.5705 18.0949 57.0037 16.548 53.1989 15.2456L57.2198 3.62651C57.3437 3.27069 57.6037 2.97859 57.9428 2.81437C58.2819 2.65015 58.6724 2.62724 59.0283 2.75067L69.0209 6.20853C69.1987 6.26823 69.3629 6.36237 69.5043 6.48558C69.6457 6.60879 69.7615 6.75866 69.8449 6.92661C69.9284 7.09457 69.9779 7.27732 69.9907 7.46443C70.0035 7.65154 69.9793 7.83933 69.9195 8.01708Z" fill="#FFAAD7" style="fill:#FFAAD7;fill:color(display-p3 1.0000 0.6667 0.8431);fill-opacity:1;"/>
<path d="M62.8446 11.0825C62.3763 11.1559 61.8968 11.0992 61.4586 10.9187C61.0203 10.7382 60.64 10.4407 60.3592 10.0588H60.1431L59.8758 12.2826C59.7962 12.948 59.7791 13.7499 60.3251 14.1309C60.5501 14.2582 60.8087 14.3133 61.066 14.2889C61.3233 14.2645 61.567 14.1617 61.764 13.9944C62.1536 13.6592 62.4693 13.2467 62.691 12.783C63.4759 11.384 63.4702 11.4352 63.4759 11.2987C63.4815 11.1622 63.0891 11.0427 62.8446 11.0825Z" fill="white" style="fill:white;fill-opacity:1;"/>
<path d="M63.0493 10.7244C62.618 10.8038 62.1742 10.7824 61.7526 10.6618C61.2997 10.5214 60.902 10.243 60.6151 9.86559C60.4275 9.56417 59.8132 9.7746 59.8075 10.0703C59.6343 11.0609 59.5317 12.0625 59.5004 13.0675C59.4957 13.4788 59.63 13.8796 59.8815 14.205C60.0274 14.3678 60.211 14.4924 60.4163 14.5678C60.6215 14.6431 60.8421 14.667 61.0587 14.6372C62.054 14.5121 62.5659 13.6192 63.0152 12.8287C63.6749 11.6912 63.6919 11.6912 63.7659 11.3727C63.7638 11.2823 63.7434 11.1933 63.7058 11.111C63.6681 11.0288 63.6141 10.955 63.5471 10.8944C63.48 10.8337 63.4013 10.7873 63.3157 10.7581C63.2301 10.7289 63.1395 10.7174 63.0493 10.7244ZM61.3431 13.8808C61.2011 13.9617 61.039 14.0003 60.8758 13.9923C60.7126 13.9842 60.5551 13.9298 60.4218 13.8353C59.9611 13.3291 60.1147 12.7377 60.3763 10.5708C60.7907 10.9955 61.3277 11.2799 61.9118 11.3841C62.3181 11.4302 62.7283 11.4302 63.1346 11.3841C62.2246 13.0334 62.0711 13.4998 61.3715 13.8808H61.3431Z" fill="#5E503B" style="fill:#5E503B;fill:color(display-p3 0.3686 0.3137 0.2314);fill-opacity:1;"/>
<path d="M59.0965 5.90723C58.8614 5.90723 58.6316 5.97694 58.4362 6.10755C58.2407 6.23816 58.0883 6.4238 57.9984 6.64099C57.9084 6.85819 57.8849 7.09718 57.9307 7.32776C57.9766 7.55833 58.0898 7.77013 58.256 7.93636C58.4223 8.10259 58.6341 8.2158 58.8646 8.26166C59.0952 8.30753 59.3342 8.28399 59.5514 8.19402C59.7686 8.10406 59.9542 7.95171 60.0849 7.75624C60.2155 7.56077 60.2852 7.33096 60.2852 7.09587C60.2852 6.78062 60.1599 6.47828 59.937 6.25537C59.7141 6.03246 59.4118 5.90723 59.0965 5.90723Z" fill="#5E503B" style="fill:#5E503B;fill:color(display-p3 0.3686 0.3137 0.2314);fill-opacity:1;"/>
<path d="M65.9668 7.90883C65.7312 7.9077 65.5006 7.9766 65.3043 8.10678C65.1079 8.23695 64.9547 8.42253 64.864 8.63996C64.7734 8.85739 64.7493 9.09685 64.795 9.32795C64.8407 9.55905 64.954 9.77137 65.1206 9.93795C65.2872 10.1045 65.4995 10.2178 65.7306 10.2635C65.9617 10.3092 66.2012 10.2852 66.4186 10.1945C66.636 10.1039 66.8216 9.95062 66.9518 9.75428C67.082 9.55794 67.1509 9.32735 67.1497 9.09178C67.1482 8.7785 67.0231 8.47848 66.8016 8.25696C66.5801 8.03543 66.2801 7.91032 65.9668 7.90883Z" fill="#5E503B" style="fill:#5E503B;fill:color(display-p3 0.3686 0.3137 0.2314);fill-opacity:1;"/>
<path d="M101.637 30.0324L91.6677 26.5063C91.4134 26.4151 91.1436 26.3751 90.8738 26.3884C90.6041 26.4016 90.3395 26.468 90.0954 26.5837C89.8514 26.6994 89.6325 26.8622 89.4514 27.0626C89.2703 27.2631 89.1306 27.4973 89.0402 27.7518L72.3082 75.0414C72.2173 75.2949 72.1773 75.5639 72.1908 75.8329C72.2042 76.1019 72.2707 76.3656 72.3865 76.6087C72.5023 76.8519 72.665 77.0698 72.8653 77.2498C73.0657 77.4298 73.2996 77.5684 73.5537 77.6576L83.5292 81.1894C84.0421 81.3681 84.6049 81.3369 85.0949 81.1025C85.585 80.8682 85.9625 80.4496 86.1454 79.9382L102.883 32.6542C103.064 32.1413 103.034 31.5777 102.801 31.0865C102.568 30.5952 102.149 30.2163 101.637 30.0324ZM81.732 50.3132L85.9179 38.4951L98.5777 42.9482L94.5568 54.3227L81.732 50.3132ZM94.3407 54.8971L89.9501 67.3124L77.2846 62.882L81.5216 50.9388L94.3407 54.8971ZM85.5539 79.7277C85.492 79.9033 85.3962 80.065 85.2718 80.2036C85.1474 80.3421 84.9969 80.4547 84.8289 80.535C84.6609 80.6153 84.4787 80.6617 84.2928 80.6715C84.1069 80.6813 83.9208 80.6544 83.7453 80.5922L73.7755 77.0604C73.5995 76.9992 73.4373 76.9037 73.2984 76.7794C73.1594 76.6552 73.0465 76.5046 72.9661 76.3364C72.8857 76.1683 72.8395 75.9858 72.83 75.7997C72.8206 75.6135 72.8481 75.4273 72.9111 75.2519L77.0742 63.4792L89.7397 67.9096L85.5539 79.7277ZM102.292 32.4438L98.7881 42.3396L86.134 37.8865L89.643 27.9679C89.7725 27.6159 90.0359 27.3294 90.3757 27.1707C90.7155 27.012 91.1042 26.9939 91.4573 27.1205L101.427 30.6466C101.778 30.7729 102.065 31.032 102.227 31.3682C102.389 31.7044 102.412 32.0907 102.292 32.4438Z" fill="#51BDBF" style="fill:#51BDBF;fill:color(display-p3 0.3176 0.7412 0.7490);fill-opacity:1;"/>
</svg>
