<?xml version="1.0" encoding="UTF-8"?>
<svg version="1.1" xmlns="http://www.w3.org/2000/svg" width="512" height="512">
<path d="M0 0 C0.69743317 0.00215515 1.39486633 0.0043103 2.11343384 0.00653076 C44.01264583 0.2132929 81.54195276 14.83716238 111.9375 43.75 C113.1440625 45.0184375 113.1440625 45.0184375 114.375 46.3125 C115.35533203 47.31796875 115.35533203 47.31796875 116.35546875 48.34375 C138.54158936 71.8663839 145.36561386 100.17855953 144.55419922 131.82373047 C143.03073313 161.48358119 124.56633992 185.76396666 104.11157227 205.62524414 C100.56033002 209.0756357 97.09442746 212.60180719 93.66015625 216.16796875 C85.16198466 224.93142451 76.76405455 232.86412131 66.375 239.3125 C65.76897949 239.6930957 65.16295898 240.07369141 64.53857422 240.46582031 C26.29943865 264.12399635 -20.21595229 269.44096548 -63.625 259.3125 C-64.86378906 258.91933594 -66.10257812 258.52617187 -67.37890625 258.12109375 C-70.97943392 257.22421141 -73.07494968 257.29051582 -76.625 258.3125 C-78.89065278 259.6316526 -78.89065278 259.6316526 -81 261.375 C-90.25755325 268.18161253 -101.10189785 272.80259908 -111.625 277.3125 C-110.85027344 278.14007813 -110.07554687 278.96765625 -109.27734375 279.8203125 C-106.33741369 283.35902111 -105.22085276 286.7588453 -104.1875 291.1875 C-104.00251953 291.85652344 -103.81753906 292.52554687 -103.62695312 293.21484375 C-102.32567355 298.51181707 -102.75018554 302.17292242 -104.625 307.3125 C-106.54296875 309.484375 -106.54296875 309.484375 -108.8125 311.0625 C-109.54855469 311.59359375 -110.28460938 312.1246875 -111.04296875 312.671875 C-113.10156351 313.97990798 -115.16736927 315.21072991 -117.28637695 316.41503906 C-118.38812256 317.04120117 -119.48986816 317.66736328 -120.625 318.3125 C-118.64387219 326.47064771 -116.59291512 334.59700044 -114.265625 342.6640625 C-114.06932495 343.34643982 -113.8730249 344.02881714 -113.67077637 344.73187256 C-112.86921443 347.51175236 -112.06469732 350.29068999 -111.25048828 353.06689453 C-110.64424938 355.13896481 -110.0479918 357.2137034 -109.453125 359.2890625 C-109.1015332 360.49643066 -108.74994141 361.70379883 -108.38769531 362.94775391 C-106.63788488 370.66730813 -106.63788488 370.66730813 -108.75 374.1875 C-111.51860949 375.84866569 -113.41921132 375.58404916 -116.625 375.3125 C-119.07867684 374.26968734 -121.30496662 373.21402492 -123.625 371.9375 C-127.86618759 369.65948221 -131.99862471 367.70887547 -136.625 366.3125 C-136.4077124 367.00811035 -136.1904248 367.7037207 -135.96655273 368.42041016 C-134.98510876 371.58879316 -134.02366502 374.76290925 -133.0625 377.9375 C-132.72025391 379.03191406 -132.37800781 380.12632812 -132.02539062 381.25390625 C-131.70634766 382.31738281 -131.38730469 383.38085938 -131.05859375 384.4765625 C-130.76009521 385.45061035 -130.46159668 386.4246582 -130.15405273 387.42822266 C-129.55107582 390.7155181 -129.79746818 393.08619537 -130.625 396.3125 C-132.375 397.75 -132.375 397.75 -134.625 398.3125 C-139.3325675 397.80933608 -143.20902358 395.65742921 -147.375 393.5625 C-155.8979147 389.41887524 -164.44598176 386.609589 -173.625 384.3125 C-175.01525391 383.96058594 -175.01525391 383.96058594 -176.43359375 383.6015625 C-195.09927139 379.58305468 -215.18079658 380.86537019 -233.625 385.3125 C-230.2591149 403.61819091 -222.03500092 414.9085564 -208.51171875 427.03515625 C-207.82456787 427.65535645 -207.13741699 428.27555664 -206.42944336 428.91455078 C-205.08454732 430.11608714 -203.72501613 431.30148722 -202.34985352 432.46826172 C-197.79325776 436.50544968 -197.79325776 436.50544968 -196.953125 440.53515625 C-197.78677685 443.98124034 -198.68349143 444.4561095 -201.625 446.3125 C-203.94335938 447.20385742 -203.94335938 447.20385742 -206.46875 447.91796875 C-207.84353516 448.30952148 -207.84353516 448.30952148 -209.24609375 448.70898438 C-210.67115234 449.10053711 -210.67115234 449.10053711 -212.125 449.5 C-213.55005859 449.90895508 -213.55005859 449.90895508 -215.00390625 450.32617188 C-219.08446318 451.47113827 -222.34963293 452.3125 -226.625 452.3125 C-226.10808594 452.90417969 -225.59117187 453.49585938 -225.05859375 454.10546875 C-224.39988281 454.89566406 -223.74117187 455.68585938 -223.0625 456.5 C-222.40121094 457.27730469 -221.73992187 458.05460937 -221.05859375 458.85546875 C-219.625 461.3125 -219.625 461.3125 -219.59765625 463.92578125 C-220.98880577 467.15769135 -222.51239929 467.70450274 -225.625 469.3125 C-228.04131395 470.14314051 -230.41116067 470.89118002 -232.8671875 471.57421875 C-233.89708298 471.86749809 -233.89708298 471.86749809 -234.94778442 472.16670227 C-236.39400104 472.57616631 -237.84128411 472.9818803 -239.28955078 473.3840332 C-241.48964655 473.99711489 -243.68422262 474.62762003 -245.87890625 475.25976562 C-247.29136731 475.65731513 -248.70411904 476.05383365 -250.1171875 476.44921875 C-251.0894075 476.73039803 -251.0894075 476.73039803 -252.08126831 477.01725769 C-256.35498174 478.18502621 -260.20341328 478.59318173 -264.625 478.3125 C-272.01730371 473.99826255 -277.44870996 465.95773721 -282.625 459.3125 C-283.429375 458.3121875 -284.23375 457.311875 -285.0625 456.28125 C-289.23287679 451.04045468 -292.97650375 445.80987603 -296.32739258 440.00268555 C-300.42417754 432.9452669 -303.48205367 429.00090638 -311.15234375 425.5703125 C-318.70778304 421.72694528 -322.42089121 411.69785714 -325.625 404.3125 C-325.625 403.6525 -325.625 402.9925 -325.625 402.3125 C-326.924375 401.94125 -326.924375 401.94125 -328.25 401.5625 C-338.3110479 397.83618596 -344.82157167 390.64656936 -349.625 381.3125 C-353.6231383 370.15979842 -353.57377659 360.46779386 -349.625 349.3125 C-345.53392358 340.77806003 -339.07464107 332.68424301 -329.9375 329.32421875 C-327.55344778 328.52788173 -327.55344778 328.52788173 -326.5078125 326.6484375 C-326.13269531 325.67777344 -326.13269531 325.67777344 -325.75 324.6875 C-321.38341364 315.12259654 -313.719295 309.07977819 -304.00878906 305.29199219 C-301.12669897 304.37043628 -298.23149221 303.54702331 -295.3125 302.75 C-293.62906494 302.26744751 -293.62906494 302.26744751 -291.91162109 301.77514648 C-286.96145744 300.35909691 -282.00233042 298.97600117 -277.04315186 297.59191895 C-271.25779216 295.97604692 -265.47628978 294.34722191 -259.69790649 292.70657349 C-256.83646183 291.89938998 -253.97067651 291.10933578 -251.10424805 290.32006836 C-233.07607417 285.26782361 -215.39383852 278.56720379 -199.625 268.3125 C-198.98054932 267.89572998 -198.33609863 267.47895996 -197.67211914 267.04956055 C-192.25014965 263.30507102 -189.05137771 259.1128429 -185.6875 253.5 C-184.74142986 251.97231895 -183.79484346 250.44495745 -182.84765625 248.91796875 C-182.44297119 248.24918701 -182.03828613 247.58040527 -181.62133789 246.89135742 C-180.625 245.3125 -180.625 245.3125 -179.625 244.3125 C-178.614375 244.333125 -177.60375 244.35375 -176.5625 244.375 C-172.61914862 243.85083264 -171.07924592 241.96583853 -168.625 238.9375 C-165.18325335 234.3330011 -162.23987044 229.49372493 -159.4609375 224.46484375 C-157.625 222.3125 -157.625 222.3125 -154.6640625 221.25390625 C-151.625 221.3125 -151.625 221.3125 -149.60986328 222.7722168 C-146.88122473 226.26440427 -145.97785767 229.77895326 -144.828125 234.015625 C-144.5896283 234.85341492 -144.35113159 235.69120483 -144.10540771 236.55438232 C-143.34951356 239.22043387 -142.61206285 241.89118807 -141.875 244.5625 C-141.36449099 246.37534111 -140.85278554 248.18784574 -140.33984375 250 C-139.08766625 254.43372104 -137.8519998 258.87174841 -136.625 263.3125 C-135.3476778 261.12789083 -134.07654748 258.94003885 -132.80859375 256.75 C-132.45164429 256.14091797 -132.09469482 255.53183594 -131.72692871 254.90429688 C-128.30642578 248.97673191 -125.65451132 242.86268247 -123.625 236.3125 C-123.13386719 234.81589844 -123.13386719 234.81589844 -122.6328125 233.2890625 C-122.30023354 230.07624599 -122.30023354 230.07624599 -125.01953125 227.5234375 C-126.14513662 226.56183208 -127.28556107 225.61739738 -128.4375 224.6875 C-129.65091965 223.63735896 -130.85918801 222.58123917 -132.0625 221.51953125 C-132.66707031 220.98666504 -133.27164063 220.45379883 -133.89453125 219.90478516 C-150.99746643 204.16757533 -164.40150495 177.81321436 -165.80200195 154.34667969 C-166.40482495 123.72999617 -160.8730579 98.26914955 -140.625 74.3125 C-139.98175781 73.54679687 -139.33851563 72.78109375 -138.67578125 71.9921875 C-133.6814566 66.25009891 -128.25631778 61.11346723 -122.64282227 55.99365234 C-119.57877572 53.18366095 -116.67176266 50.38313769 -114 47.1875 C-86.64152882 14.79289233 -41.28118881 -0.23135727 0 0 Z M-141.625 95.3125 C-154.03633419 119.9242962 -158.54695729 144.03646778 -150.55859375 170.8984375 C-143.72196131 191.34064538 -130.55448178 209.8459863 -113.2578125 222.85546875 C-110.625 225.3125 -110.625 225.3125 -110.0390625 227.98828125 C-110.10867187 228.85839844 -110.17828125 229.72851562 -110.25 230.625 C-110.30414063 231.50800781 -110.35828125 232.39101562 -110.4140625 233.30078125 C-110.51847656 234.29658203 -110.51847656 234.29658203 -110.625 235.3125 C-107.28571029 231.52410842 -105.25360732 227.66527309 -103.4375 223 C-103.17775391 222.37416016 -102.91800781 221.74832031 -102.65039062 221.10351562 C-100.8146245 216.47852344 -99.60473533 212.31787388 -99.625 207.3125 C-101.44724068 204.98320104 -102.78827904 203.62583677 -105.0625 201.875 C-106.18635113 200.9264344 -107.30743913 199.97458568 -108.42578125 199.01953125 C-108.9770166 198.55885254 -109.52825195 198.09817383 -110.09619141 197.62353516 C-128.78009557 181.6010878 -140.06399681 155.39121036 -142.625 131.3125 C-142.78140354 127.97780436 -142.81493588 124.65056677 -142.8125 121.3125 C-142.81314453 120.39637939 -142.81378906 119.48025879 -142.81445312 118.53637695 C-142.75397824 110.66021058 -141.96000571 103.07222067 -140.625 95.3125 C-140.955 95.3125 -141.285 95.3125 -141.625 95.3125 Z M-61.98828125 239.91015625 C-62.85839844 240.70292969 -63.72851562 241.49570312 -64.625 242.3125 C-65.94693593 243.3275188 -67.27530656 244.33469359 -68.625 245.3125 C-31.71935513 258.90931653 10.45492632 253.83084837 45.578125 237.6328125 C46.50109375 237.19710937 47.4240625 236.76140625 48.375 236.3125 C45.2285406 235.31281571 43.10279937 235.35671188 39.890625 236.0546875 C39.03726563 236.23386719 38.18390625 236.41304687 37.3046875 236.59765625 C36.42039062 236.79230469 35.53609375 236.98695313 34.625 237.1875 C23.48147728 239.58484539 13.03523133 240.55089626 1.625 240.5625 C0.93758728 240.56350708 0.25017456 240.56451416 -0.45806885 240.56555176 C-13.55777019 240.55261303 -26.59945757 239.93520444 -39.16015625 235.90625 C-49.1024437 232.80657644 -53.90618727 233.19404999 -61.98828125 239.91015625 Z M-108.625 257.25 C-109.85476562 257.38051758 -109.85476562 257.38051758 -111.109375 257.51367188 C-111.89828125 257.60068359 -112.6871875 257.68769531 -113.5 257.77734375 C-114.21929687 257.855896 -114.93859375 257.93444824 -115.6796875 258.01538086 C-117.83485635 258.28836011 -117.83485635 258.28836011 -120.625 259.3125 C-121.85777127 261.17272072 -121.85777127 261.17272072 -122.8125 263.375 C-123.15667969 264.10847656 -123.50085938 264.84195312 -123.85546875 265.59765625 C-124.10941406 266.16355469 -124.36335937 266.72945313 -124.625 267.3125 C-117.84234866 266.34354981 -111.8728427 264.39686164 -105.5625 261.8125 C-104.8001001 261.50368896 -104.0377002 261.19487793 -103.25219727 260.87670898 C-99.22810898 259.44046946 -99.22810898 259.44046946 -96.625 256.3125 C-100.66475401 256.3125 -104.61297179 256.80527046 -108.625 257.25 Z M-330.625 343.3125 C-336.69341536 349.38091536 -340.58732949 356.58431544 -341.125 365.3125 C-340.65290866 373.22409973 -337.32019143 380.87618091 -331.625 386.3125 C-324.74372717 391.50974825 -317.38078196 394.38558873 -308.625 393.3125 C-305.2327225 392.47292345 -301.92848772 391.44976627 -298.625 390.3125 C-300.95729025 383.07444234 -300.95729025 383.07444234 -305.97265625 377.64453125 C-307.69894646 376.83997066 -309.44184605 376.07012876 -311.19921875 375.3359375 C-318.69766889 372.17234018 -323.45499945 365.26649349 -326.6328125 358.01171875 C-328.36125749 353.15361364 -329.15904043 348.43805523 -329.625 343.3125 C-329.955 343.3125 -330.285 343.3125 -330.625 343.3125 Z M-233.625 367.3125 C-233.955 368.9625 -234.285 370.6125 -234.625 372.3125 C-232.83324107 372.16780469 -231.04159858 372.02166739 -229.25 371.875 C-228.25226563 371.79378906 -227.25453125 371.71257812 -226.2265625 371.62890625 C-224.27663843 371.45760056 -222.32703078 371.27935988 -220.3815918 371.06298828 C-196.81772193 368.47211045 -175.07533876 371.19696376 -152.625 378.3125 C-150.29587345 378.99527128 -147.9616432 379.65569744 -145.625 380.3125 C-146.10833102 375.96252079 -146.90719812 371.75559474 -147.9375 367.5 C-148.16050781 366.56542969 -148.38351563 365.63085938 -148.61328125 364.66796875 C-149.4194662 362.23422984 -149.4194662 362.23422984 -151.36328125 361.05859375 C-177.43781101 352.45715129 -208.24996893 360.1316763 -233.625 367.3125 Z M-298.3125 401.6875 C-302.7628057 402.86032425 -307.05628394 403.79332772 -311.625 404.3125 C-309.4768664 411.6566532 -309.4768664 411.6566532 -304.171875 416.796875 C-302.78742188 417.42335938 -302.78742188 417.42335938 -301.375 418.0625 C-292.38214781 422.73595075 -288.30168969 430.74440499 -283.03076172 439.07910156 C-276.70943092 448.99922307 -268.9365841 458.0009159 -260.625 466.3125 C-252.84858783 465.90238496 -244.97115158 462.6844549 -237.625 460.3125 C-239.93568408 457.30759724 -242.15577849 454.7256337 -245.125 452.375 C-257.84250675 441.42381363 -268.91760047 426.43010942 -276.6875 411.625 C-279.86041097 406.04143896 -284.91957756 403.83892072 -290.625 401.3125 C-293.53009742 399.85995129 -295.21801401 400.84107849 -298.3125 401.6875 Z " fill="#2F48DE" transform="translate(359.625,16.6875)"/>
<path d="M0 0 C1.15653076 0.26538574 1.15653076 0.26538574 2.33642578 0.53613281 C36.32201426 8.48509493 67.98835477 25.48895265 87.1875 55.75 C99.96224187 76.48057671 106.16674591 101.3480574 100.87304688 125.56323242 C100.05099839 128.75995332 99.06042575 131.87488237 98 135 C97.68651611 135.94214355 97.68651611 135.94214355 97.36669922 136.90332031 C89.48726908 160.07533735 72.58564966 179.99509751 52 193 C51.29101562 193.45117188 50.58203125 193.90234375 49.8515625 194.3671875 C44.30194717 197.50223335 38.44728908 199.11991367 32.3125 200.6875 C31.52375488 200.89004395 30.73500977 201.09258789 29.92236328 201.30126953 C17.33965137 204.32768309 4.72769815 205.36802115 -8.1875 205.3125 C-8.85742981 205.31100952 -9.52735962 205.30951904 -10.21759033 205.3079834 C-23.1790051 205.25648058 -36.11585725 204.57734925 -48.53515625 200.59375 C-55.64713212 198.07743382 -55.64713212 198.07743382 -62.92871094 198.67480469 C-67.07996472 200.89845911 -70.46261982 203.9080677 -74 207 C-77.00201074 208.89718151 -78.59193156 209.10504124 -82.0625 208.625 C-87.80552332 208.4558111 -90.85151988 211.56063483 -95.20703125 214.9609375 C-104.35995241 221.64321001 -115.99436877 222.41471617 -127 223 C-127.66 222.67 -128.32 222.34 -129 222 C-122.68163326 202.37980854 -122.68163326 202.37980854 -118 195.0625 C-113.99213854 188.72883293 -108.66634313 178.68135063 -110 171 C-111.83862237 168.81250182 -111.83862237 168.81250182 -114.375 166.875 C-135.8649582 148.47233157 -149.95753975 123.2824621 -153 95 C-153.87609857 78.89165374 -154.53035872 59.72277043 -143.35546875 46.91796875 C-140.77713239 44.0434581 -138.12104793 41.25144639 -135.43066406 38.48193359 C-134.24399859 37.25274257 -133.08329807 35.99854638 -131.9296875 34.73828125 C-113.28173583 14.8390601 -85.97522014 4.71819835 -60 -1 C-58.87464844 -1.25007813 -57.74929688 -1.50015625 -56.58984375 -1.7578125 C-38.2590161 -5.04855526 -18.09878093 -4.25999078 0 0 Z " fill="#D1D8FD" transform="translate(369,53)"/>
<path d="M0 0 C11.57988464 3.94174039 22.14058899 11.43092357 28.078125 22.31640625 C28.738125 22.64640625 29.398125 22.97640625 30.078125 23.31640625 C30.3565625 22.32640625 30.3565625 22.32640625 30.640625 21.31640625 C34.08939936 14.1189641 39.56614071 9.68980003 46.140625 5.44140625 C46.73004883 5.06016602 47.31947266 4.67892578 47.92675781 4.28613281 C55.80407966 -0.6091543 62.92791906 -1.6265539 72.078125 -0.68359375 C76.57723924 1.4108215 79.11586682 3.73780383 81.078125 8.31640625 C81.71976211 16.3987825 77.67797293 22.98913973 72.81640625 29.2109375 C69.46084647 32.9991149 66.15489215 36.31991304 62.078125 39.31640625 C63.07666504 39.33098877 64.07520508 39.34557129 65.10400391 39.3605957 C68.82799106 39.41880693 72.55138792 39.49603702 76.27490234 39.57885742 C77.8828774 39.61199988 79.49096581 39.64006479 81.09912109 39.6628418 C83.41813205 39.69658592 85.73611431 39.74890819 88.0546875 39.8046875 C89.12379868 39.81427238 89.12379868 39.81427238 90.21450806 39.8240509 C94.87664228 39.95971089 98.11526185 40.85982614 102.078125 43.31640625 C107.15386609 49.26348289 106.69419361 55.77190282 106.59960938 63.33227539 C106.57813119 65.37831634 106.59948408 67.42086188 106.625 69.46679688 C106.61984375 70.76939453 106.6146875 72.07199219 106.609375 73.4140625 C106.60486328 74.59492432 106.60035156 75.77578613 106.59570312 76.99243164 C105.84432282 81.81792353 103.59085744 84.94119494 100.015625 88.19140625 C98.078125 89.31640625 98.078125 89.31640625 95.078125 89.31640625 C95.08700745 90.16751984 95.09588989 91.01863342 95.1050415 91.89553833 C95.18529269 99.92862816 95.2461428 107.96158275 95.28537369 115.99498177 C95.30622106 120.1247586 95.3344859 124.25420334 95.37988281 128.38378906 C95.42344333 132.37142054 95.44728355 136.35873321 95.45763397 140.34658432 C95.46500713 141.86560965 95.47940542 143.38461815 95.50104523 144.90350723 C95.53021675 147.03647386 95.53407554 149.16813452 95.53222656 151.30126953 C95.54110901 152.51372345 95.54999146 153.72617737 95.55914307 154.97537231 C94.96488682 159.10293097 93.77861763 161.15279041 91.078125 164.31640625 C85.79436273 168.13318482 80.2905817 167.75406272 74.02734375 167.73632812 C72.9241983 167.74479767 71.82105286 167.75326721 70.68447876 167.76199341 C67.04474299 167.78535727 63.40543002 167.78638578 59.765625 167.78515625 C57.23266429 167.79225732 54.6997052 167.79995624 52.16674805 167.80822754 C46.86078795 167.82167038 41.55498361 167.82342302 36.24902344 167.81738281 C30.12419895 167.81073862 23.99997617 167.83362765 17.8752737 167.87069654 C11.97099176 167.90512843 6.066895 167.91172782 0.1625061 167.90760803 C-2.34453119 167.90930174 -4.85157624 167.91896823 -7.35855103 167.93675232 C-10.86321834 167.95888118 -14.36643151 167.94926968 -17.87109375 167.93164062 C-18.90608002 167.94490387 -19.94106628 167.95816711 -21.00741577 167.97183228 C-25.49919719 167.91932082 -28.86728935 167.87354331 -32.48754883 165.0279541 C-36.65887731 160.38159368 -37.17178524 157.7918129 -37.14892578 151.52832031 C-37.14921783 150.85473984 -37.14950989 150.18115936 -37.14981079 149.48716736 C-37.14842141 147.26865599 -37.13287901 145.05048369 -37.1171875 142.83203125 C-37.11345597 141.29075301 -37.11060966 139.74947238 -37.10861206 138.20819092 C-37.10098661 134.15738339 -37.08134753 130.10671995 -37.0592041 126.05596924 C-37.0387222 121.92014515 -37.02960533 117.78429772 -37.01953125 113.6484375 C-36.99810055 105.5376944 -36.96397781 97.42706826 -36.921875 89.31640625 C-37.7149707 89.17904053 -38.50806641 89.0416748 -39.32519531 88.90014648 C-43.43201631 87.97692262 -44.47625029 85.64517322 -46.921875 82.31640625 C-49.06045064 78.03925496 -48.1900584 72.43700227 -48.21704102 67.73266602 C-48.2285241 66.33900774 -48.24891785 64.94539218 -48.27856445 63.55200195 C-48.59081589 48.87618425 -48.59081589 48.87618425 -43.921875 43.31640625 C-39.72931599 40.09741104 -35.89130312 39.84886008 -30.77734375 39.8046875 C-30.00755692 39.7867363 -29.23777008 39.7687851 -28.44465637 39.75028992 C-25.99961736 39.69635238 -23.55477168 39.66234552 -21.109375 39.62890625 C-19.44593674 39.59571843 -17.78252393 39.56122741 -16.11914062 39.52539062 C-12.05352529 39.44063588 -7.98796564 39.37374652 -3.921875 39.31640625 C-4.60386963 38.72037598 -5.28586426 38.1243457 -5.98852539 37.51025391 C-6.88563232 36.7166748 -7.78273926 35.9230957 -8.70703125 35.10546875 C-10.03939819 33.93298584 -10.03939819 33.93298584 -11.39868164 32.73681641 C-17.53535892 26.85011892 -22.12823018 19.25464071 -23.484375 10.81640625 C-22.72126626 6.06817411 -20.41040998 3.51573625 -16.921875 0.31640625 C-12.01420776 -2.13742737 -5.18363434 -1.21274868 0 0 Z " fill="#3048DE" transform="translate(308.921875,75.68359375)"/>
<path d="M0 0 C0.69743317 0.00215515 1.39486633 0.0043103 2.11343384 0.00653076 C44.01264583 0.2132929 81.54195276 14.83716238 111.9375 43.75 C113.1440625 45.0184375 113.1440625 45.0184375 114.375 46.3125 C115.35533203 47.31796875 115.35533203 47.31796875 116.35546875 48.34375 C138.54158936 71.8663839 145.36561386 100.17855953 144.55419922 131.82373047 C143.03073313 161.48358119 124.56633992 185.76396666 104.11157227 205.62524414 C100.56033002 209.0756357 97.09442746 212.60180719 93.66015625 216.16796875 C85.16198466 224.93142451 76.76405455 232.86412131 66.375 239.3125 C65.76897949 239.6930957 65.16295898 240.07369141 64.53857422 240.46582031 C26.29943865 264.12399635 -20.21595229 269.44096548 -63.625 259.3125 C-64.86378906 258.91933594 -66.10257812 258.52617187 -67.37890625 258.12109375 C-70.97943392 257.22421141 -73.07494968 257.29051582 -76.625 258.3125 C-78.89065278 259.6316526 -78.89065278 259.6316526 -81 261.375 C-96.42459712 272.68171825 -116.13617859 280.45477242 -135.3125 280.6875 C-136.35603638 280.70828613 -136.35603638 280.70828613 -137.4206543 280.72949219 C-139.38671875 280.7109375 -139.38671875 280.7109375 -142.625 280.3125 C-144.625 277.3125 -144.625 277.3125 -144.44140625 274.87109375 C-143.545195 272.06239342 -142.48768257 270.58961777 -140.5625 268.375 C-132.91689794 258.90826891 -127.22493431 247.93117212 -123.625 236.3125 C-123.13386719 234.81589844 -123.13386719 234.81589844 -122.6328125 233.2890625 C-122.30023354 230.07624599 -122.30023354 230.07624599 -125.01953125 227.5234375 C-126.14513662 226.56183208 -127.28556107 225.61739738 -128.4375 224.6875 C-129.65091965 223.63735896 -130.85918801 222.58123917 -132.0625 221.51953125 C-132.66707031 220.98666504 -133.27164063 220.45379883 -133.89453125 219.90478516 C-150.99746643 204.16757533 -164.40150495 177.81321436 -165.80200195 154.34667969 C-166.40482495 123.72999617 -160.8730579 98.26914955 -140.625 74.3125 C-139.98175781 73.54679687 -139.33851563 72.78109375 -138.67578125 71.9921875 C-133.6814566 66.25009891 -128.25631778 61.11346723 -122.64282227 55.99365234 C-119.57877572 53.18366095 -116.67176266 50.38313769 -114 47.1875 C-86.64152882 14.79289233 -41.28118881 -0.23135727 0 0 Z M-55.625 36.3125 C-56.36862793 36.47878906 -57.11225586 36.64507812 -57.87841797 36.81640625 C-88.39749954 43.89405454 -120.64436254 61.7233725 -138.046875 88.57421875 C-151.51270778 111.9394385 -158.75795499 136.85046846 -152.59765625 163.7265625 C-146.6235542 185.75156525 -133.84766962 207.94650618 -114.90039062 221.55078125 C-111.882124 223.72336707 -110.71373654 224.80823165 -110.05859375 228.53125 C-110.75887615 233.2062387 -112.06456497 237.38390696 -113.6875 241.8125 C-113.99824463 242.68165039 -114.30898926 243.55080078 -114.62915039 244.44628906 C-117.49575958 252.2968974 -120.89871693 259.83728169 -124.625 267.3125 C-110.07629337 265.23411334 -91.32550059 258.11075025 -80.85546875 247.5078125 C-76.8358283 244.77620678 -75.01893741 245.01953923 -70.36816406 245.7578125 C-69.01029785 246.03238281 -69.01029785 246.03238281 -67.625 246.3125 C-66.69139648 246.49554688 -65.75779297 246.67859375 -64.79589844 246.8671875 C-61.85420115 247.47793422 -58.92738747 248.13665197 -56 248.8125 C-15.32606094 258.12917452 25.58640902 250.39550365 61.265625 229.30859375 C65.94501202 226.3046154 70.17876559 222.95202006 74.375 219.3125 C75.18324219 218.64863281 75.99148438 217.98476562 76.82421875 217.30078125 C94.91783674 201.93398795 108.26193592 179.00227831 111.375 155.3125 C113.67033683 125.91840596 105.34890551 101.25059857 86.25 78.81640625 C65.30380505 54.92465264 36.37479129 41.08936399 5.375 35.3125 C4.41335938 35.10882813 3.45171875 34.90515625 2.4609375 34.6953125 C-16.38734326 31.2811078 -36.97704637 32.08246631 -55.625 36.3125 Z " fill="#2E47DE" transform="translate(359.625,16.6875)"/>
<path d="M0 0 C0.69743317 0.00215515 1.39486633 0.0043103 2.11343384 0.00653076 C44.01264583 0.2132929 81.54195276 14.83716238 111.9375 43.75 C113.1440625 45.0184375 113.1440625 45.0184375 114.375 46.3125 C115.02855469 46.9828125 115.68210937 47.653125 116.35546875 48.34375 C138.54158936 71.8663839 145.36561386 100.17855953 144.55419922 131.82373047 C143.20315093 158.12683681 127.98595261 181.89159653 109.9375 200.0625 C109.2266626 200.77889648 108.5158252 201.49529297 107.78344727 202.23339844 C102.63184023 207.3125 102.63184023 207.3125 100.375 207.3125 C101.89563139 204.11755638 103.66248827 201.08829723 105.44677734 198.03491211 C119.78362105 173.2737036 124.74985148 146.02621261 118.3515625 117.7421875 C116.7388811 112.07845043 114.76736924 106.69191312 112.375 101.3125 C111.94445312 100.32894531 111.51390625 99.34539062 111.0703125 98.33203125 C96.86177523 67.94823827 68.85496431 46.00019679 37.89501953 34.38183594 C-5.56611638 18.7136505 -51.98803548 20.61685917 -94.01953125 39.8671875 C-101.5957167 43.49239642 -108.23851329 47.61027369 -114.98046875 52.58984375 C-117.625 54.3125 -117.625 54.3125 -120.625 54.3125 C-88.91025585 19.05573116 -47.89292109 -0.26841222 0 0 Z " fill="#D0D8FD" transform="translate(359.625,16.6875)"/>
<path d="M0 0 C2 1 2 1 2.75854492 3.22705078 C3.11589722 4.69634033 3.11589722 4.69634033 3.48046875 6.1953125 C3.75383057 7.29198242 4.02719238 8.38865234 4.30883789 9.51855469 C4.59879639 10.70868164 4.88875488 11.89880859 5.1875 13.125 C7.43117206 22.07606444 9.80374283 30.94367168 12.5625 39.75 C15.22976986 48.29163184 17.588075 56.87416628 19.7878418 65.54736328 C21.68765735 72.97874971 23.83767839 80.31339524 26.17211914 87.61987305 C27.39125317 91.5231509 28.34960466 94.85468755 28 99 C27.02804688 98.855625 26.05609375 98.71125 25.0546875 98.5625 C1.2448857 95.25884595 -21.38430663 97.24066885 -44.6875 102.8125 C-45.68644287 103.03631348 -46.68538574 103.26012695 -47.71459961 103.49072266 C-50.3037859 104.15378215 -52.61776773 104.78747252 -55 106 C-56.78416683 109.02295324 -56.78416683 109.02295324 -57 112 C-62.445 112.99 -62.445 112.99 -68 114 C-70.99095271 106.63908835 -72.94120267 99.05423607 -74.9375 91.375 C-75.61116986 88.79891756 -76.28777878 86.2236326 -76.96484375 83.6484375 C-77.29597168 82.38612305 -77.62709961 81.12380859 -77.96826172 79.82324219 C-79.31654422 74.82700366 -80.77945839 69.86903213 -82.26782227 64.91259766 C-83 62 -83 62 -83 58 C-82.47792969 57.82984375 -81.95585938 57.6596875 -81.41796875 57.484375 C-69.40714314 53.52984748 -58.10663119 49.04776773 -47 43 C-45.95585937 42.44699219 -44.91171875 41.89398438 -43.8359375 41.32421875 C-25.69110622 31.29429222 -11.50762832 17.09918742 0 0 Z " fill="#D0D8FD" transform="translate(181,279)"/>
<path d="M0 0 C1.81997798 4.84464232 2.59886196 9.43633801 3.17578125 14.5390625 C3.26885056 15.34233978 3.36191986 16.14561707 3.45780945 16.97323608 C3.65037971 18.66208702 3.83926739 20.35136151 4.0246582 22.04101562 C4.31260815 24.6259709 4.62566672 27.20713276 4.93945312 29.7890625 C5.12394665 31.43472271 5.30694144 33.08055179 5.48828125 34.7265625 C5.58498611 35.49642487 5.68169098 36.26628723 5.78132629 37.05947876 C6.11225181 40.29057713 6.24426819 42.50774255 4.78198242 45.45458984 C2.75770107 47.21013183 1.65325165 47.72602969 -1 48 C-3.10644531 47.83813477 -3.10644531 47.83813477 -5.328125 47.44140625 C-6.12734375 47.30283203 -6.9265625 47.16425781 -7.75 47.02148438 C-8.575 46.87001953 -9.4 46.71855469 -10.25 46.5625 C-11.09046875 46.41490234 -11.9309375 46.26730469 -12.796875 46.11523438 C-14.86588544 45.7508064 -16.93312939 45.37637459 -19 45 C-18.7834375 46.25103516 -18.7834375 46.25103516 -18.5625 47.52734375 C-15.66915863 65.06822583 -15.66915863 65.06822583 -18.20605469 68.75064087 C-20.68062899 70.47401113 -22.03546644 70.19896486 -25.015625 69.86474609 C-26.09134766 69.74524597 -27.16707031 69.62574585 -28.27539062 69.50262451 C-35.78356211 68.48942 -43.26812625 67.35522693 -50.75 66.1640625 C-52.53929795 65.88116044 -54.32860475 65.59831435 -56.11791992 65.31552124 C-59.8433117 64.72539677 -63.56805985 64.13137722 -67.29248047 63.53515625 C-72.06327347 62.77222623 -76.83627547 62.02417542 -81.60995483 61.27955055 C-85.2949035 60.7022172 -88.97815474 60.11458092 -92.66101074 59.5240593 C-94.42106651 59.24360637 -96.18173049 58.96694275 -97.94299316 58.69417191 C-100.39746649 58.31297756 -102.84919543 57.91735233 -105.30078125 57.51806641 C-106.02495743 57.40886368 -106.74913361 57.29966095 -107.49525452 57.18714905 C-111.36416227 56.53975665 -114.22138643 55.8621409 -117 53 C-117.44043538 49.9798717 -117.70403129 47.99676747 -115.89672852 45.43798828 C-113.18590903 43.38280399 -110.50394533 42.8304802 -107.21484375 41.9921875 C-106.22950401 41.73575974 -106.22950401 41.73575974 -105.22425842 41.47415161 C-103.13104763 40.9313251 -101.03457127 40.40269519 -98.9375 39.875 C-96.83767284 39.33737122 -94.7386216 38.79685534 -92.64002991 38.25442505 C-90.73912609 37.76455178 -88.83627845 37.28224002 -86.93334961 36.80029297 C-84.09372274 36.12853902 -84.09372274 36.12853902 -82 35 C-82.68707031 34.89042969 -83.37414062 34.78085937 -84.08203125 34.66796875 C-85.43361328 34.43013672 -85.43361328 34.43013672 -86.8125 34.1875 C-87.70582031 34.03667969 -88.59914063 33.88585937 -89.51953125 33.73046875 C-92.21893811 32.93552531 -93.31453201 32.22350012 -95 30 C-95.40959943 27.2693371 -95.53842618 25.73851301 -93.88458252 23.47007751 C-91.24969374 21.41472005 -88.6970306 20.84165821 -85.47167969 19.97875977 C-84.81258606 19.79942902 -84.15349243 19.62009827 -83.47442627 19.43533325 C-81.29272943 18.84431714 -79.1074615 18.26785608 -76.921875 17.69140625 C-75.39244184 17.28017597 -73.8632501 16.86804687 -72.33428955 16.45506287 C-68.29823494 15.36750603 -64.25900312 14.29224189 -60.21899414 13.21948242 C-56.16224806 12.14001009 -52.10860491 11.04902178 -48.0546875 9.95898438 C-43.4690111 8.72715601 -38.88297487 7.49672324 -34.29510498 6.27308655 C-33.59347858 6.08590026 -32.89185219 5.89871397 -32.16896439 5.70585537 C-30.79073735 5.33935482 -29.41203919 4.9746208 -28.03284836 4.61176395 C-24.63321018 3.71532315 -21.24763957 2.78826278 -17.87365723 1.79928589 C-17.20469044 1.60794791 -16.53572365 1.41660994 -15.84648514 1.21947384 C-14.021219 0.69596746 -12.19980762 0.15907298 -10.37872314 -0.37879944 C-6.62660162 -1.06865176 -3.72345944 -0.73248474 0 0 Z M-68.5625 44 C-69.96650922 44.38646322 -71.37080456 44.77188858 -72.77539062 45.15625 C-76.18697585 46.09222233 -79.5944736 47.04218575 -83 48 C-83 48.33 -83 48.66 -83 49 C-76.11412105 50.14493333 -69.22722926 51.28361507 -62.33959961 52.41796875 C-59.99691395 52.80455161 -57.65446337 53.19256186 -55.31225586 53.58203125 C-51.94445696 54.14178413 -48.57584443 54.69638851 -45.20703125 55.25 C-43.63801811 55.51248535 -43.63801811 55.51248535 -42.03730774 55.78027344 C-40.56634895 56.02052246 -40.56634895 56.02052246 -39.06567383 56.265625 C-38.20629715 56.40774414 -37.34692047 56.54986328 -36.46150208 56.69628906 C-33.94853303 57.00635022 -31.52932856 57.0531705 -29 57 C-29.1141866 55.06183265 -29.24173423 53.12444901 -29.375 51.1875 C-29.47941406 49.56908203 -29.47941406 49.56908203 -29.5859375 47.91796875 C-29.81195733 44.81373814 -29.81195733 44.81373814 -32 42 C-34.5687656 41.18942649 -34.5687656 41.18942649 -37.5625 40.8125 C-38.55378906 40.65394531 -39.54507813 40.49539063 -40.56640625 40.33203125 C-50.67674592 39.35435335 -58.92843706 41.28611532 -68.5625 44 Z " fill="#2E47DE" transform="translate(392,284)"/>
<path d="M0 0 C4.56454537 1.15544934 8.44563325 3.14628964 12.61328125 5.3046875 C13.4962085 5.75424805 14.37913574 6.20380859 15.28881836 6.66699219 C21.80771015 9.99821156 28.2941145 13.39309005 34.76171875 16.82275391 C39.60525196 19.39090196 44.46504852 21.92532567 49.33984375 24.43359375 C50.55460813 25.05956641 51.76937049 25.68554299 52.98413086 26.31152344 C55.3503503 27.53057728 57.71860985 28.74535978 60.08813477 29.95800781 C76.72208522 38.53016505 76.72208522 38.53016505 78.67578125 42.2421875 C78.05582347 48.75174415 72.47913766 54.68819532 68.61328125 59.7421875 C68.07993164 60.44110107 67.54658203 61.14001465 66.99707031 61.86010742 C65.94413292 63.23964743 64.89029133 64.61849788 63.83544922 65.99658203 C62.64676924 67.57394018 61.50171032 69.18403241 60.3671875 70.80078125 C59.80902344 71.58582031 59.25085938 72.37085938 58.67578125 73.1796875 C58.2271875 73.83582031 57.77859375 74.49195313 57.31640625 75.16796875 C55.42578125 76.8671875 55.42578125 76.8671875 51.6171875 78.06640625 C46.25678814 79.9087744 44.0590009 83.74206018 41.11328125 88.3671875 C40.09867314 89.89997504 39.08182709 91.4312841 38.0625 92.9609375 C37.62639404 93.63833984 37.19028809 94.31574219 36.7409668 95.01367188 C35.42234921 96.87202434 34.16609528 98.39504475 32.42578125 99.8671875 C29.50390625 100.31640625 29.50390625 100.31640625 26.42578125 99.8671875 C24.22265625 98.13671875 24.22265625 98.13671875 22.17578125 95.6796875 C21.40363281 94.761875 20.63148438 93.8440625 19.8359375 92.8984375 C16.53915063 88.75207347 13.28847727 84.57397905 10.08984375 80.3515625 C7.28489349 76.66050772 4.39303012 73.04243393 1.48828125 69.4296875 C-3.77897921 62.87169581 -8.98919262 56.27130864 -14.17578125 49.64941406 C-15.65951044 47.75848824 -17.14764727 45.87109625 -18.63671875 43.984375 C-19.13872803 43.34765869 -19.6407373 42.71094238 -20.15795898 42.05493164 C-21.12018456 40.8347146 -22.08319677 39.61511732 -23.04711914 38.39624023 C-29.07447072 30.74514817 -29.07447072 30.74514817 -28.57421875 24.8671875 C-26.57421875 22.8671875 -26.57421875 22.8671875 -23.52294922 22.46875 C-18.4188301 22.98376932 -14.86764177 24.83760483 -10.39453125 27.2421875 C-9.5411618 27.6861084 -8.68779236 28.1300293 -7.80856323 28.58740234 C-5.09823721 30.00070254 -2.39867468 31.43325191 0.30078125 32.8671875 C3.02375344 34.29679587 5.74875673 35.72245645 8.47439575 37.14697266 C10.1669272 38.03338641 11.85747559 38.92359855 13.54586792 39.81787109 C14.68307785 40.41849365 14.68307785 40.41849365 15.84326172 41.03125 C16.51275848 41.38654785 17.18225525 41.7418457 17.87203979 42.10791016 C19.28730128 42.94036355 19.28730128 42.94036355 20.42578125 42.8671875 C18.53332979 40.36456757 16.63723156 37.864872 14.73828125 35.3671875 C14.16045898 34.60486816 13.58263672 33.84254883 12.98730469 33.05712891 C9.97298844 29.10562249 6.9140631 25.21592557 3.703125 21.421875 C3.11168701 20.71869141 2.52024902 20.01550781 1.91088867 19.29101562 C0.77853523 17.95392401 -0.36540482 16.62653485 -1.5222168 15.31054688 C-5.03844798 11.14429756 -6.32088835 8.34193901 -6.57421875 2.8671875 C-4.29853595 0.67903096 -3.21165214 -0.16569981 0 0 Z M-0.57421875 46.8671875 C2.49796073 51.66839552 5.92062519 56.03981837 9.55078125 60.4296875 C14.63436194 66.62255703 19.57345051 72.89989913 24.40234375 79.29296875 C26.47688136 82.03723325 26.47688136 82.03723325 29.42578125 84.8671875 C33.38578125 79.5871875 37.34578125 74.3071875 41.42578125 68.8671875 C37.95490256 66.26402848 34.77889301 64.39615866 30.9375 62.43359375 C30.0053643 61.95478004 30.0053643 61.95478004 29.05439758 61.46629333 C27.07580777 60.45056751 25.094726 59.43983107 23.11328125 58.4296875 C21.14293511 57.42238522 19.17316899 56.41397977 17.20429993 55.40379333 C15.41039541 54.48379889 13.61479141 53.56712049 11.8190918 52.65063477 C9.37272026 51.36487722 6.99965228 50.04276059 4.62036133 48.64428711 C1.74375282 46.705144 1.74375282 46.705144 -0.57421875 46.8671875 Z " fill="#D1D8FD" transform="translate(291.57421875,345.1328125)"/>
<path d="M0 0 C2.51806285 4.21990687 3.94916744 8.6700605 5.26171875 13.375 C5.45723831 14.06255371 5.65275787 14.75010742 5.85420227 15.45849609 C6.26302209 16.90311371 6.66875607 18.34860785 7.0715332 19.79492188 C7.6865308 21.99653038 8.31627073 24.19355526 8.94726562 26.390625 C9.34464781 27.80183083 9.74116173 29.2132815 10.13671875 30.625 C10.3241716 31.2751709 10.51162445 31.9253418 10.70475769 32.59521484 C11.77367319 36.48739184 12.30447814 39.96696107 12 44 C10.58672288 45.99907025 9.00723956 47.43547905 7.21484375 49.09375 C5.67344274 51.07964428 5.67344274 51.07964428 6.31640625 54.21875 C6.54199219 55.1365625 6.76757812 56.054375 7 57 C17.51936424 57.36886082 26.75430906 56.68949387 37 54 C41.83803242 58.39821129 43.86448021 62.65106157 45.5 68.9375 C45.68401367 69.60523438 45.86802734 70.27296875 46.05761719 70.9609375 C47.30202509 76.22593754 46.85313793 79.89986536 45 85 C43.08203125 87.171875 43.08203125 87.171875 40.8125 88.75 C39.70841797 89.54664063 39.70841797 89.54664063 38.58203125 90.359375 C36.52343649 91.66740798 34.45763073 92.89822991 32.33862305 94.10253906 C31.23687744 94.72870117 30.13513184 95.35486328 29 96 C30.98112781 104.15814771 33.03208488 112.28450044 35.359375 120.3515625 C35.55567505 121.03393982 35.7519751 121.71631714 35.95422363 122.41937256 C36.75578557 125.19925236 37.56030268 127.97818999 38.37451172 130.75439453 C38.98075062 132.82646481 39.5770082 134.9012034 40.171875 136.9765625 C40.6992627 138.78761475 40.6992627 138.78761475 41.23730469 140.63525391 C42.98711512 148.35480813 42.98711512 148.35480813 40.875 151.875 C38.10922149 153.5344671 36.20204748 153.26778018 33 153 C30.56447604 151.97937285 28.36326009 150.94545134 26.0625 149.6875 C22.46570038 147.78752943 18.96021771 145.9634632 15.1640625 144.51171875 C12 143 12 143 10.80078125 141.1953125 C10.55908203 140.17050781 10.55908203 140.17050781 10.3125 139.125 C10.10753906 138.33996094 9.90257812 137.55492187 9.69140625 136.74609375 C9.46324219 135.83988281 9.23507813 134.93367187 9 134 C8.25331986 131.72807289 7.50318836 129.45727781 6.75 127.1875 C4.61097667 120.70067924 4.61097667 120.70067924 6 117 C8.29341411 115.32705444 10.50255248 113.86854448 12.9375 112.4375 C18.08863972 109.44221325 18.08863972 109.44221325 22 105 C23.17691699 97.02159763 21.47284781 89.21366227 18 82 C15.54356594 79.21508929 13.73795785 77.17297308 9.93701172 76.79467773 C9.10959473 76.75802002 8.28217773 76.7213623 7.4296875 76.68359375 C6.53378906 76.64169922 5.63789063 76.59980469 4.71484375 76.55664062 C3.77769531 76.51732422 2.84054688 76.47800781 1.875 76.4375 C0.45767578 76.37272461 0.45767578 76.37272461 -0.98828125 76.30664062 C-3.32537092 76.20040928 -5.6625683 76.09836824 -8 76 C-8.24234375 75.00742187 -8.4846875 74.01484375 -8.734375 72.9921875 C-10.7883455 64.64054863 -12.98418335 56.35113214 -15.39208984 48.09326172 C-16.67055976 43.6910123 -17.92714988 39.28246319 -19.1875 34.875 C-19.44966309 33.96145752 -19.71182617 33.04791504 -19.98193359 32.10668945 C-20.2289502 31.24390381 -20.4759668 30.38111816 -20.73046875 29.4921875 C-20.95114014 28.72245605 -21.17181152 27.95272461 -21.39916992 27.15966797 C-21.59744385 26.44697754 -21.79571777 25.73428711 -22 25 C-22.22018799 24.29254639 -22.44037598 23.58509277 -22.66723633 22.85620117 C-23 21 -23 21 -21.59375 18.80859375 C-20.9028125 18.02613281 -20.211875 17.24367188 -19.5 16.4375 C-15.66092824 11.91143645 -12.50741005 7.22972875 -9.4453125 2.15234375 C-6.79351217 -1.79668864 -4.31452051 -1.32077159 0 0 Z " fill="#D1D8FD" transform="translate(210,239)"/>
<path d="M0 0 C1.6406543 -0.00422974 1.6406543 -0.00422974 3.31445312 -0.00854492 C4.52488281 -0.00652069 5.7353125 -0.00449646 6.98242188 -0.00241089 C8.24892578 -0.00416321 9.51542969 -0.00591553 10.8203125 -0.00772095 C14.30369007 -0.0122948 17.78703815 -0.01050592 21.27041626 -0.00734186 C24.90814293 -0.00481801 28.54586699 -0.00715587 32.18359375 -0.00872803 C38.29362442 -0.01054965 44.40364303 -0.0081436 50.51367188 -0.00338745 C57.58745033 0.00205516 64.66119997 0.0002925 71.73497772 -0.00521386 C77.79781085 -0.00974519 83.86063527 -0.01039543 89.92346954 -0.00777519 C93.54916354 -0.00621253 97.17484397 -0.00601835 100.80053711 -0.00931168 C104.84034952 -0.01272454 108.8801119 -0.00800032 112.91992188 -0.00241089 C114.13035156 -0.00443512 115.34078125 -0.00645935 116.58789062 -0.00854492 C117.68166016 -0.0057251 118.77542969 -0.00290527 119.90234375 0 C120.85878784 0.00037703 121.81523193 0.00075405 122.80065918 0.0011425 C124.95117188 0.12698364 124.95117188 0.12698364 125.95117188 1.12698364 C125.95117188 10.36698364 125.95117188 19.60698364 125.95117188 29.12698364 C82.39117187 29.12698364 38.83117187 29.12698364 -6.04882812 29.12698364 C-6.04882812 0.00238442 -6.04882812 0.00238442 0 0 Z " fill="#CFD6FD" transform="translate(278.048828125,125.87301635742188)"/>
<path d="M0 0 C2.41062181 8.28580796 4.81786377 16.5725836 7.2195282 24.86099243 C8.45334802 29.11819753 9.69214316 33.37391849 10.93359375 37.62890625 C11.47680603 39.50253358 12.01979366 41.37622606 12.5625 43.25 C12.93882568 44.53233521 12.93882568 44.53233521 13.32275391 45.84057617 C14.22819812 48.98107211 15 51.71364452 15 55 C11.21404135 56.085285 7.4278146 57.1696294 3.64135742 58.25317383 C1.73407615 58.79916676 -0.17300356 59.34586364 -2.08007812 59.89257812 C-4.54664137 60.59823533 -7.01424573 61.30026421 -9.48291016 61.99853516 C-11.73667145 62.64027671 -13.98679033 63.29503823 -16.23193359 63.96630859 C-17.685271 64.39097412 -17.685271 64.39097412 -19.16796875 64.82421875 C-20.00996826 65.07647217 -20.85196777 65.32872559 -21.71948242 65.58862305 C-24.20810377 66.03753933 -25.65103155 65.90486434 -28 65 C-29.265625 63.22265625 -29.265625 63.22265625 -30.25 61.0625 C-30.58515625 60.35222656 -30.9203125 59.64195312 -31.265625 58.91015625 C-32 57 -32 57 -32 55 C-32.72574219 54.89429688 -33.45148437 54.78859375 -34.19921875 54.6796875 C-42.70473126 52.61558823 -48.65155408 45.74482306 -53.37109375 38.765625 C-56.94487402 32.69791174 -58.27169756 27.02539512 -58.69140625 20.04296875 C-57.80387793 17.42049806 -56.39155735 16.3545669 -54.05395508 14.94897461 C-49.60088319 12.89155271 -44.80675468 11.86478188 -40.0625 10.6875 C-29.99208691 8.09515176 -20.03865124 5.26735551 -10.12329102 2.13354492 C-8.78028931 1.71359253 -8.78028931 1.71359253 -7.41015625 1.28515625 C-6.23658569 0.91209351 -6.23658569 0.91209351 -5.03930664 0.53149414 C-3 0 -3 0 0 0 Z " fill="#D0D7FD" transform="translate(88,341)"/>
<path d="M0 0 C1.81997798 4.84464232 2.59886196 9.43633801 3.17578125 14.5390625 C3.26885056 15.34233978 3.36191986 16.14561707 3.45780945 16.97323608 C3.65037971 18.66208702 3.83926739 20.35136151 4.0246582 22.04101562 C4.31260815 24.6259709 4.62566672 27.20713276 4.93945312 29.7890625 C5.12394665 31.43472271 5.30694144 33.08055179 5.48828125 34.7265625 C5.58498611 35.49642487 5.68169098 36.26628723 5.78132629 37.05947876 C6.11225181 40.29057713 6.24426819 42.50774255 4.78198242 45.45458984 C2.18040008 47.71079155 0.30662762 48.09124878 -3.09057617 47.85400391 C-3.81736572 47.72944824 -4.54415527 47.60489258 -5.29296875 47.4765625 C-6.08767578 47.3425 -6.88238281 47.2084375 -7.70117188 47.0703125 C-8.52166016 46.92335938 -9.34214844 46.77640625 -10.1875 46.625 C-11.01958984 46.48578125 -11.85167969 46.3465625 -12.70898438 46.203125 C-18.85956743 45.14043257 -18.85956743 45.14043257 -20 44 C-20.4147272 40.20713123 -20.77255392 36.41662412 -21.07421875 32.61328125 C-21.15027344 31.81535156 -21.22632813 31.01742187 -21.3046875 30.1953125 C-21.36640137 29.46328613 -21.42811523 28.73125977 -21.49169922 27.97705078 C-22.13520981 25.47409748 -22.90145718 24.49874611 -25 23 C-30.71458215 22.56296932 -36.69198905 24.5710357 -42.125 26.1875 C-43.69374154 26.63245945 -45.262767 27.07641879 -46.83203125 27.51953125 C-49.51085472 28.28379454 -52.18730164 29.05482545 -54.86083984 29.83740234 C-81.17313588 37.48960246 -81.17313588 37.48960246 -93 32 C-95 30 -95 30 -95.3125 27.5625 C-95 25 -95 25 -93.88848877 23.46617126 C-91.2502221 21.41789285 -88.69559748 20.8412748 -85.47167969 19.97875977 C-84.81258606 19.79942902 -84.15349243 19.62009827 -83.47442627 19.43533325 C-81.29272943 18.84431714 -79.1074615 18.26785608 -76.921875 17.69140625 C-75.39244184 17.28017597 -73.8632501 16.86804687 -72.33428955 16.45506287 C-68.29823494 15.36750603 -64.25900312 14.29224189 -60.21899414 13.21948242 C-56.16224806 12.14001009 -52.10860491 11.04902178 -48.0546875 9.95898438 C-43.4690111 8.72715601 -38.88297487 7.49672324 -34.29510498 6.27308655 C-33.24266539 5.99230711 -33.24266539 5.99230711 -32.16896439 5.70585537 C-30.79073735 5.33935482 -29.41203919 4.9746208 -28.03284836 4.61176395 C-24.63321018 3.71532315 -21.24763957 2.78826278 -17.87365723 1.79928589 C-17.20469044 1.60794791 -16.53572365 1.41660994 -15.84648514 1.21947384 C-14.021219 0.69596746 -12.19980762 0.15907298 -10.37872314 -0.37879944 C-6.62660162 -1.06865176 -3.72345944 -0.73248474 0 0 Z " fill="#D1D8FD" transform="translate(392,284)"/>
<path d="M0 0 C0.22042969 1.19882812 0.22042969 1.19882812 0.4453125 2.421875 C3.95770081 19.62046604 12.37468684 30.29970174 25.11328125 41.72265625 C25.80043213 42.34285645 26.48758301 42.96305664 27.19555664 43.60205078 C28.54045268 44.80358714 29.89998387 45.98898722 31.27514648 47.15576172 C35.83174224 51.19294968 35.83174224 51.19294968 36.671875 55.22265625 C35.83365989 58.68760361 34.97416914 59.14412347 32 61 C27.91712787 62.5429545 23.70305106 63.64181968 19.5 64.8125 C18.35917969 65.14958984 17.21835938 65.48667969 16.04296875 65.83398438 C14.39748047 66.29708008 14.39748047 66.29708008 12.71875 66.76953125 C11.21731445 67.19649292 11.21731445 67.19649292 9.68554688 67.63208008 C5.85326201 68.1571031 4.15082397 66.86743049 1.17578125 64.625 C-6.89062368 57.5901479 -13.58176688 50.53138046 -18.4375 40.9375 C-18.7675 40.28918213 -19.0975 39.64086426 -19.4375 38.97290039 C-23.45593632 30.59870608 -24.30061143 22.64359131 -24.125 13.4375 C-24.11597656 12.52419922 -24.10695313 11.61089844 -24.09765625 10.66992188 C-24.07437253 8.44632681 -24.0416771 6.22331323 -24 4 C-20.75393904 3.1303597 -17.50267592 2.28203087 -14.25 1.4375 C-13.32960938 1.19064453 -12.40921875 0.94378906 -11.4609375 0.68945312 C-10.57148437 0.46064453 -9.68203125 0.23183594 -8.765625 -0.00390625 C-7.94868164 -0.21861572 -7.13173828 -0.4333252 -6.29003906 -0.65454102 C-3.85854591 -1.02133876 -2.31574702 -0.76494053 0 0 Z " fill="#D0D8FD" transform="translate(126,402)"/>
<path d="M0 0 C4.93615537 0.47956669 8.3134582 2.16507375 12.64282227 4.47460938 C13.46535995 4.89955688 14.28789764 5.32450439 15.13536072 5.7623291 C17.75824303 7.12198016 20.37019736 8.50132522 22.98266602 9.88085938 C24.71053809 10.77793335 26.4390489 11.67377818 28.16821289 12.56835938 C36.82738004 17.06696697 45.3813499 21.71007902 53.82617188 26.59863281 C59.26596933 29.73210724 64.79469061 32.70361159 70.31860352 35.68554688 C71.15133789 36.13929688 71.98407227 36.59304688 72.84204102 37.06054688 C73.58035156 37.45999512 74.31866211 37.85944336 75.0793457 38.27099609 C76.92016602 39.38085938 76.92016602 39.38085938 78.92016602 41.38085938 C78.6988 46.36159483 77.08744266 48.67062102 73.92016602 52.38085938 C73.34137695 53.41726563 72.76258789 54.45367187 72.16625977 55.52148438 C69.73483389 59.85502688 66.80210532 63.74629428 63.79516602 67.69335938 C62.98885742 68.76553711 62.98885742 68.76553711 62.16625977 69.859375 C58.21698069 75.0840447 58.21698069 75.0840447 55.92016602 77.38085938 C53.06079102 77.76757812 53.06079102 77.76757812 49.92016602 77.38085938 C47.71704102 75.65039062 47.71704102 75.65039062 45.67016602 73.19335938 C44.89801758 72.27554688 44.12586914 71.35773438 43.33032227 70.41210938 C40.0335354 66.26574534 36.78286204 62.08765092 33.58422852 57.86523438 C30.77927826 54.17417959 27.88741488 50.5561058 24.98266602 46.94335938 C19.71540556 40.38536768 14.50519214 33.78498052 9.31860352 27.16308594 C7.83487432 25.27216012 6.34673749 23.38476812 4.85766602 21.49804688 C4.1046521 20.54297241 4.1046521 20.54297241 3.33642578 19.56860352 C2.37420021 18.34838647 1.411188 17.1287892 0.44726562 15.90991211 C-5.58008596 8.25882005 -5.58008596 8.25882005 -5.07983398 2.38085938 C-3.07983398 0.38085938 -3.07983398 0.38085938 0 0 Z M22.92016602 24.38085938 C25.99234549 29.1820674 29.41500995 33.55349024 33.04516602 37.94335938 C38.1287467 44.13622891 43.06783528 50.41357101 47.89672852 56.80664062 C49.97126613 59.55090512 49.97126613 59.55090512 52.92016602 62.38085938 C56.88016602 57.10085938 60.84016602 51.82085937 64.92016602 46.38085938 C61.44928733 43.77770036 58.27327777 41.90983054 54.43188477 39.94726562 C53.49974907 39.46845192 53.49974907 39.46845192 52.54878235 38.97996521 C50.57019254 37.96423938 48.58911076 36.95350295 46.60766602 35.94335938 C44.63731987 34.93605709 42.66755375 33.92765165 40.69868469 32.91746521 C38.90478018 31.99747077 37.10917618 31.08079237 35.31347656 30.16430664 C32.86710502 28.8785491 30.49403705 27.55643246 28.11474609 26.15795898 C25.23813758 24.21881587 25.23813758 24.21881587 22.92016602 24.38085938 Z " fill="#2D46DE" transform="translate(268.079833984375,367.619140625)"/>
<path d="M0 0 C10.23 0 20.46 0 31 0 C31 22.11 31 44.22 31 67 C21.43 67 11.86 67 2 67 C0 65 0 65 -0.24050903 62.2918396 C-0.23606781 61.14156281 -0.23162659 59.99128601 -0.22705078 58.80615234 C-0.22689972 57.50495453 -0.22674866 56.20375671 -0.22659302 54.86312866 C-0.21637893 53.43739673 -0.20594692 52.01166635 -0.1953125 50.5859375 C-0.19158295 49.13148187 -0.1887357 47.67702373 -0.18673706 46.2225647 C-0.179096 42.39201944 -0.15944357 38.56162554 -0.1373291 34.73114014 C-0.11328641 30.13648608 -0.10409193 25.54178146 -0.09242249 20.94708252 C-0.07301931 13.96461637 -0.03470035 6.9824824 0 0 Z " fill="#CCD3FC" transform="translate(282,166)"/>
<path d="M0 0 C9.9 0 19.8 0 30 0 C30 22.11 30 44.22 30 67 C20.1 67 10.2 67 0 67 C0 44.89 0 22.78 0 0 Z " fill="#D1D8FD" transform="translate(323,166)"/>
<path d="M0 0 C9.9 0 19.8 0 30 0 C30.04010881 16.43124222 30.04010881 16.43124222 30.04882812 23.41210938 C30.0548159 28.18352362 30.06191446 32.95491875 30.07543945 37.72631836 C30.08627061 41.57125114 30.09227732 45.41616345 30.09487724 49.26111031 C30.09673108 50.73118983 30.10035091 52.20126818 30.10573006 53.67133904 C30.11294355 55.72354467 30.11399081 57.77566467 30.11352539 59.82788086 C30.115746 60.99814316 30.11796661 62.16840546 30.12025452 63.37413025 C30 66 30 66 29 67 C19.43 67 9.86 67 0 67 C0 44.89 0 22.78 0 0 Z " fill="#CED6FD" transform="translate(363,166)"/>
<path d="M0 0 C0.99 0.495 0.99 0.495 2 1 C-0.96904479 4.36210982 -3.9728713 7.69009205 -7 11 C-7.70769531 11.77601563 -8.41539062 12.55203125 -9.14453125 13.3515625 C-15.08191125 19.58636227 -21.75035084 24.42628925 -29 29 C-29.87108398 29.556875 -29.87108398 29.556875 -30.75976562 30.125 C-48.23239564 41.12416381 -68.00122447 46.98547976 -87.796875 52.3046875 C-94.01370947 53.97935463 -100.16277927 55.84559306 -106.3125 57.75 C-126.60317379 64 -126.60317379 64 -132 64 C-130.25000799 56.41670128 -125.19428895 50.29325919 -119 45.75 C-103.9661682 36.83773823 -84.27585603 33.76881626 -67.6105957 29.16479492 C-44.07970916 22.65160043 -19.26883619 15.72966219 0 0 Z " fill="#D0D7FD" transform="translate(165,281)"/>
<path d="M0 0 C8.69978769 -1.00382166 15.36984191 2.72761479 22.37109375 7.67578125 C28.25546981 12.51454039 32.75554217 18.65450164 35 26 C35 27.32 35 28.64 35 30 C21.52422746 26.47336166 9.86535612 20.65675602 1.875 8.75 C0.16755254 5.75447814 -0.54723982 3.50233483 0 0 Z " fill="#CCD4FC" transform="translate(297,85)"/>
<path d="M0 0 C1.05882931 3.1694758 1.05183431 4.75897176 -0.4375 7.75 C-4.89671921 15.80343937 -10.99629767 20.34331928 -19.0625 24.4375 C-20.07135254 24.95086914 -20.07135254 24.95086914 -21.10058594 25.47460938 C-25.43581416 27.55636689 -29.21004928 28.55775487 -34 29 C-33.57191426 20.86637085 -28.54101921 14.12805056 -22.8125 8.6875 C-16.20363456 3.1931144 -8.76150825 -0.97350092 0 0 Z " fill="#CDD5FD" transform="translate(378,85)"/>
<path d="M0 0 C0.04898438 1.27875 0.09796875 2.5575 0.1484375 3.875 C0.22352991 5.58335222 0.29907487 7.29168459 0.375 9 C0.4059375 9.83917969 0.436875 10.67835938 0.46875 11.54296875 C1.02798109 23.5664371 4.56605916 36.36341002 12 46 C11.505 46.99 11.505 46.99 11 48 C3.63367924 39.26228974 -2.9533762 30.48463297 -8.46191406 20.4362793 C-11.73385509 14.85033972 -14.91351654 12.50408839 -20.92138672 10.07470703 C-23 9 -23 9 -24 6 C-20.56435978 4.99353274 -17.12620371 3.9959455 -13.6875 3 C-12.71103516 2.71382813 -11.73457031 2.42765625 -10.72851562 2.1328125 C-9.79072266 1.86210937 -8.85292969 1.59140625 -7.88671875 1.3125 C-7.02264404 1.06113281 -6.15856934 0.80976563 -5.26831055 0.55078125 C-3 0 -3 0 0 0 Z " fill="#CBD3FC" transform="translate(92,410)"/>
<path d="M0 0 C4.29 0 8.58 0 13 0 C15.45489316 5.12325529 16.50341703 9.33895411 17 15 C13.7 17.31 10.4 19.62 7 22 C5 21 5 21 4.31396484 19.28173828 C4.01546631 18.18708252 4.01546631 18.18708252 3.7109375 17.0703125 C3.49179688 16.27496094 3.27265625 15.47960937 3.046875 14.66015625 C2.82515625 13.82355469 2.6034375 12.98695313 2.375 12.125 C2.14554688 11.29613281 1.91609375 10.46726562 1.6796875 9.61328125 C0 3.42443266 0 3.42443266 0 0 Z " fill="#CAD2FC" transform="translate(206,325)"/>
<path d="M0 0 C0 2.97 0 5.94 0 9 C-9.405 7.515 -9.405 7.515 -19 6 C-18.67 5.34 -18.34 4.68 -18 4 C-15.53792482 3.19497781 -13.13174861 2.50401685 -10.625 1.875 C-9.93921875 1.69324219 -9.2534375 1.51148438 -8.546875 1.32421875 C-5.61869471 0.56653786 -3.03665271 0 0 0 Z " fill="#CAD2FC" transform="translate(361,318)"/>
</svg>
