<svg width="91" height="89" viewBox="0 0 91 89" fill="none" xmlns="http://www.w3.org/2000/svg">
<path d="M75.9951 20.332C77.1826 18.9735 79.2536 18.5793 79.9708 20.807C80.6881 23.0348 80.1941 25.6948 80.8591 26.3883C81.5241 27.0818 86.2123 27.7373 88.8818 30.117C91.5513 32.4968 91.3186 35.494 86.9438 37.0093C82.5691 38.5245 76.3371 37.9213 76.3371 37.9213L75.9951 20.332Z" fill="#FEF0BB" style="fill:#FEF0BB;fill:color(display-p3 0.9961 0.9412 0.7333);fill-opacity:1;"/>
<path d="M4.12754 33.841C3.54329 33.841 1.82379 32.2308 1.10179 32.891C0.379791 33.5513 1.87604 35.5843 1.62904 36.254C1.38204 36.9238 0.156541 37.85 0.598291 38.895C1.04004 39.94 2.76904 38.7858 3.07304 38.9805C3.37704 39.1753 3.47204 41.7118 4.14179 41.7735C4.81154 41.8353 4.98254 38.4485 5.26279 38.173C5.54304 37.8975 8.43104 38.2158 8.54029 37.6125C8.64954 37.0093 6.12729 35.8408 6.01804 35.5605C5.90879 35.2803 7.44304 33.1855 6.94429 32.6298C6.44554 32.074 4.65004 33.8458 4.12754 33.841Z" fill="#FEF0BB" style="fill:#FEF0BB;fill:color(display-p3 0.9961 0.9412 0.7333);fill-opacity:1;"/>
<path d="M30.2525 27.3715C30.0863 25.8895 30.0435 22.8257 30.5518 22.4457C31.06 22.0657 36.19 21.7 38.85 21.5717C41.51 21.4435 50.6015 22.3127 52.2925 22.1037C53.9835 21.8947 57.0805 21.035 58.3583 21.6905C59.636 22.346 59.7215 23.5287 59.5458 24.7447C59.2905 27.4523 59.2302 30.1747 59.3653 32.891C59.56 34.5535 59.6883 36.3917 59.1088 37.0615C58.5293 37.7312 57.1185 37.5365 56.292 37.831C55.4655 38.1255 55 38.8 54.525 38.4437C54.05 38.0875 53.7555 36.3537 54.2163 35.817C54.2163 35.817 55.7125 36.292 55.9405 35.893C56.1685 35.494 55.8503 24.398 55.57 24.2317C55.2898 24.0655 46.3265 23.9752 44.721 24.0037C43.1155 24.0322 32.0148 24.0037 31.649 24.2555C31.2833 24.5072 31.649 27.3857 31.649 27.3857L30.2525 27.3715Z" fill="#FEF0BB" style="fill:#FEF0BB;fill:color(display-p3 0.9961 0.9412 0.7333);fill-opacity:1;"/>
<path d="M62.6001 53.2542C63.2746 52.461 64.3528 52.746 64.8468 53.6675C65.3408 54.589 65.9916 55.6577 65.5973 57.2157C65.2031 58.7737 64.2388 59.0777 63.3696 59.0635C62.8605 59.0657 62.3631 58.9115 61.9446 58.6217C61.7736 57.5957 61.8353 57.5957 61.7736 57.1967C61.533 56.3923 61.5231 55.5365 61.7451 54.7267C62.1251 53.5677 62.6001 53.2542 62.6001 53.2542Z" fill="#FEF0BB" style="fill:#FEF0BB;fill:color(display-p3 0.9961 0.9412 0.7333);fill-opacity:1;"/>
<path d="M50.573 31.9648V31.6751H49.3095C49.3095 31.4186 49.281 31.2001 49.3095 31.0053C49.3089 30.6731 49.3327 30.3413 49.3808 30.0126L49.1053 30.0743V31.6798H46.906C46.906 31.0006 46.9488 29.9651 46.9488 29.9651L46.6068 30.0553C46.6068 30.1931 46.6068 30.8391 46.64 31.6751C46.2125 31.6751 45.766 31.6751 45.3195 31.6418L43.9373 31.5943C43.9373 30.7868 43.904 30.0411 43.8898 29.9936C43.8755 29.9461 43.6903 29.9936 43.6903 29.9936C43.6903 29.9936 43.6903 30.7061 43.733 31.5753L41.358 31.4993V31.2333V30.0933L41.1253 30.1456V31.4898L38.6458 31.4138C38.6458 30.5636 38.6885 29.9603 38.6885 29.9603L38.4463 30.0268V31.4091L36.0333 31.3283C36.0333 30.7488 36.0665 30.0506 36.0665 30.0506H35.8195C35.8049 30.2197 35.8049 30.3897 35.8195 30.5588V31.3188L32.8508 31.2143C32.8508 30.9483 32.8175 30.6681 32.8128 30.5018C32.8128 30.1503 32.6228 30.1788 32.6418 30.5018C32.6418 30.6538 32.6418 30.9341 32.6703 31.2048L31.7583 31.2001C31.1503 31.2001 30.509 31.1573 29.8583 31.1431C29.8559 31.1225 29.8559 31.1018 29.8583 31.0813V29.8511L29.673 29.8796V31.1431H27.7065C27.6924 30.689 27.7162 30.2346 27.7778 29.7846C27.8775 29.5281 27.4833 29.6801 27.4833 29.6801V31.1431H25.3125V31.0196C25.3125 30.1693 25.2555 29.6278 25.2555 29.6278L25.0323 29.6848C25.0323 29.6848 25.0323 30.2643 25.0845 31.1431H23.726L23.6833 31.4281C23.6833 31.4281 24.2438 31.4281 25.1083 31.3806C25.1083 31.8556 25.1463 32.4066 25.1653 32.9956H23.8258L23.859 33.2283C24.2932 33.1674 24.7321 33.1468 25.17 33.1666C25.1985 33.9076 25.227 34.6961 25.2508 35.4561C24.7896 35.4496 24.3287 35.483 23.8733 35.5558L23.8353 35.7316C24.1013 35.7031 24.6333 35.6793 25.2603 35.6651C25.2888 36.5391 25.3173 37.3656 25.341 38.0401C24.4765 38.0686 23.7213 38.0923 23.631 38.1113C23.4268 38.1541 23.3318 38.3298 23.631 38.3061L25.3553 38.2776C25.379 38.9188 25.3933 39.3938 25.3933 39.5886C25.3933 39.7833 25.3933 40.1728 25.4265 40.6478H23.5645C23.156 40.6478 23.3223 40.9423 23.5645 40.8948C23.65 40.8948 24.4385 40.8663 25.4313 40.8568C25.4313 41.5123 25.4835 42.3103 25.512 43.0893H24.011C23.8068 43.0893 23.6928 43.3316 24.0395 43.3458H25.5215C25.5548 44.2436 25.588 45.0843 25.607 45.6116H24.3198C23.954 45.6116 24.0395 45.8111 24.2818 45.8063C24.524 45.8016 25.1035 45.8063 25.6165 45.8063V46.1673C25.6165 46.3716 25.797 46.5188 25.8018 46.1673V45.8063H27.7255V46.1816C27.7635 46.4856 27.9773 46.4571 27.9773 46.1341V45.8063H29.977V46.1626C30.015 46.3811 30.1955 46.4333 30.1955 46.1863V45.8063H30.5613C30.9603 45.8063 31.9293 45.8063 32.827 45.8348V46.6233L33.0883 46.6518V45.8396H34.6035H35.7435C35.7435 46.2813 35.7815 46.5948 35.7815 46.5948L36.076 46.6281C36.076 46.6281 36.076 46.3003 36.0285 45.8396H38.451H38.6315C38.6315 46.2576 38.66 46.5473 38.66 46.5473L38.8928 46.6186C38.8928 46.6186 38.8928 46.2956 38.8595 45.8348C39.534 45.8348 40.6408 45.8016 41.6098 45.7921V46.5568L41.8188 46.6423V45.7873H43.353C43.6095 45.7873 43.828 45.7873 44.1178 45.7588V46.5948L44.3553 46.6803C44.3553 46.6803 44.3553 46.2956 44.3268 45.7303C45.101 45.6828 46.032 45.6068 46.583 45.6353H46.6875V46.7896H46.925V45.6591C47.6328 45.6591 48.3215 45.6591 48.6778 45.6306L49.414 45.5973V45.9346C49.414 46.2433 49.6943 46.2528 49.6848 45.9346V45.5736H49.908C50.2643 45.5736 50.2025 45.3551 49.9413 45.3408H49.6753C49.6753 44.8658 49.6753 44.2008 49.6325 43.4788H49.9793C50.25 43.4788 50.3735 43.2936 49.9175 43.2556H49.6278C49.6278 42.3626 49.5898 41.4316 49.5755 40.7761H49.9033C50.2548 40.7761 50.193 40.6811 49.9745 40.6288C49.8422 40.6095 49.7078 40.6095 49.5755 40.6288V40.1253V38.3678H50.079C50.345 38.3678 50.2738 38.1683 50.0458 38.1683H49.5708C49.5708 37.4511 49.5708 36.6578 49.5423 35.9596H50.0933C50.3213 35.9596 50.2025 35.8123 50.0933 35.7886L49.5613 35.7506C49.5613 34.9668 49.5375 34.3256 49.528 34.0976C49.5302 34.0548 49.5302 34.012 49.528 33.9693H49.718C49.9983 33.9693 50.0885 33.7318 49.7893 33.7318H49.509C49.471 33.2568 49.3855 32.5586 49.338 31.9601L50.573 31.9648ZM44.55 31.8366L46.6495 31.8936V33.5038C45.8183 33.4563 44.5358 33.4516 43.9705 33.4373V33.3328C43.9705 32.9718 43.9705 32.3828 43.9325 31.8128L44.55 31.8366ZM44.018 35.6366C44.6355 35.6698 46.1793 35.7981 46.6068 35.8123H46.6828V36.4251C46.6828 36.8716 46.6828 37.4986 46.7255 38.1161H44.2318C44.1368 38.1161 44.0323 37.9498 44.0323 37.7931C44.0323 37.6363 44.0038 36.7196 43.9943 35.6603L44.018 35.6366ZM44.018 35.3848V33.6131L46.6923 33.7698V35.5606L44.018 35.3848ZM43.7473 31.7843C43.7473 32.3258 43.7758 32.9101 43.79 33.4088C43.2248 33.4088 41.89 33.2521 41.4483 33.2426H41.377V31.7036L43.7473 31.7843ZM41.1918 31.6988V32.6773V33.2331C40.56 33.2331 39.3345 33.1476 38.7693 33.1333V32.0836V31.6086L41.1918 31.6988ZM38.527 31.6181V32.9623V33.1286H36.0475V32.7723C36.0475 32.6298 36.1425 32.2973 36.1378 32.0361V31.5611L38.527 31.6181ZM32.7653 31.4376C32.7715 31.5833 32.7921 31.7281 32.827 31.8698C32.903 32.1216 33.074 32.0503 33.0123 31.8698C32.9795 31.7277 32.9588 31.5831 32.9505 31.4376C34.0288 31.4898 35.0358 31.5421 35.8528 31.5611H35.9003V32.1406C35.9003 32.2451 35.9003 32.7771 35.8718 33.1286H35.772C35.4348 33.0906 35.4348 33.3091 35.6295 33.3138H35.867V33.4896C35.867 33.6986 36.0285 33.6226 36.0285 33.5181V33.3186H36.5035H38.5175V35.0666C38.242 35.0666 38.0045 35.0286 37.8525 35.0048C37.7005 34.9811 37.539 35.1283 37.7385 35.1853C37.8098 35.1853 38.128 35.2233 38.5175 35.2423V36.1923C38.6111 36.2571 38.6877 36.3434 38.7408 36.4441V35.2566C39.4153 35.2851 40.1658 35.3088 40.2845 35.3041C40.4033 35.2993 40.446 35.1188 40.2418 35.1188C40.0375 35.1188 39.3868 35.1188 38.7408 35.0808C38.7408 34.4776 38.7408 33.8838 38.7075 33.3281L39.6908 33.3518L41.1443 33.4231V33.8981C41.1643 34.1241 41.2154 34.3463 41.2963 34.5583C41.3343 34.6153 41.3438 34.6106 41.3533 34.2971V33.4183L43.41 33.5371H43.771V34.3921C43.771 34.5868 43.771 34.9526 43.7995 35.3088H43.7283C43.7097 35.3052 43.6906 35.3057 43.6722 35.3104C43.6539 35.315 43.6368 35.3237 43.6222 35.3357C43.6076 35.3477 43.5958 35.3628 43.5877 35.38C43.5797 35.3971 43.5755 35.4158 43.5755 35.4347C43.5755 35.4536 43.5797 35.4723 43.5877 35.4894C43.5958 35.5065 43.6076 35.5216 43.6222 35.5337C43.6368 35.5457 43.6539 35.5544 43.6722 35.559C43.6906 35.5636 43.7097 35.5642 43.7283 35.5606C43.7536 35.558 43.779 35.558 43.8043 35.5606C43.8563 36.364 43.8563 37.1701 43.8043 37.9736C43.7696 38.0129 43.7228 38.0396 43.6713 38.0496C43.2438 37.1376 42.2795 34.6011 42.0943 34.7578C41.5264 35.3266 41.0009 35.9362 40.522 36.5818C40.0043 37.2801 40.2418 37.2373 40.2845 37.7313C40.3225 38.1351 40.389 41.4696 40.598 41.4411C40.807 41.4126 43.8043 41.4696 44.4313 41.4696C45.0583 41.4696 45.1248 41.2891 44.9063 40.8711C44.7353 40.5528 44.3695 39.5648 44.0418 38.8191V38.3441C44.0418 38.2823 44.1415 38.2586 44.2698 38.2681H46.7065C46.7065 38.9616 46.754 39.6171 46.7445 39.9638V40.4388H46.2315C45.9543 40.4271 45.6782 40.397 45.405 40.3486C44.9918 40.3153 45.1485 40.6193 45.481 40.6288C45.8135 40.6383 46.2743 40.6716 46.7398 40.7048V42.6903V43.0513L44.2793 43.0751C44.2793 42.6001 44.2555 42.2866 44.2555 42.1963C44.2555 41.8401 44.0465 41.7641 44.056 42.0871C44.056 42.1726 44.056 42.5621 44.0798 43.0703H44.018H41.7808C41.7808 42.5621 41.7808 42.1773 41.7428 42.1203C41.6953 41.8116 41.605 41.7593 41.5718 42.0823V43.0941H38.755V42.8708C38.755 42.5478 38.5603 42.3626 38.5318 42.6713V43.0941H35.848V42.9658C35.81 42.6951 35.6628 42.7806 35.6485 42.9658V43.0798H35.3825H33.0645V41.5978C33.0645 41.3936 33.0123 41.3223 33.226 41.2938C33.5544 41.2923 33.8826 41.3082 34.2093 41.3413L34.0288 41.1418L33.1073 41.0896C33.0503 41.0896 33.0598 41.0421 33.0645 40.9376C33.0693 40.8331 32.9173 40.7571 32.8935 40.9376V43.0893L30.1243 43.0751C30.0958 42.0538 30.072 41.1466 30.0863 41.0136C30.1243 40.7048 30.1385 40.7048 29.7538 40.6953C29.6113 40.6953 28.8275 40.6953 27.8538 40.6621C27.8538 39.8641 27.811 38.8856 27.7968 38.2206H28.1198C28.172 38.2206 28.3668 37.9308 28.039 37.9498H27.7873V37.4748V35.5748H28.8133C29.5305 35.6128 29.103 35.3611 28.7278 35.3611H27.7778V33.1666C28.4475 33.1951 29.141 33.2283 29.8013 33.2711C29.8013 34.2211 29.8393 35.3563 29.8393 35.3563L30.0815 35.2471C30.0815 35.2471 30.0388 34.1071 30.0245 33.2806L31.288 33.3613L31.3403 33.1523L29.9913 33.1001V32.7296C29.9913 32.1548 29.8963 31.6988 29.8725 31.3046C30.832 31.3426 31.8248 31.3901 32.7653 31.4376ZM27.925 41.8828C27.925 41.6976 27.8965 41.3033 27.8823 40.8236C28.9843 40.8236 29.8725 40.8236 29.9153 40.8616C29.9769 41.5977 29.996 42.3367 29.9723 43.0751H27.9488C27.925 42.5336 27.925 42.0823 27.925 41.8828ZM28.7135 31.3046H29.73V32.1168C29.73 32.2688 29.73 32.6441 29.7633 33.0953L27.7445 33.0193V32.8341V31.2951L28.7135 31.3046ZM25.3648 31.3568C25.987 31.3568 26.7328 31.3236 27.5165 31.3141V33.0288C26.9133 33.0288 26.2625 32.9908 25.5595 32.9813C25.474 32.3068 25.3885 31.8841 25.3458 31.3568H25.3648ZM25.55 33.4421V33.1333C26.12 33.1333 26.7898 33.1618 27.4928 33.1903V35.3991H25.5928C25.5738 34.5821 25.55 33.8458 25.55 33.4421ZM25.5975 35.6223H27.4738V36.5248C27.4738 36.9001 27.507 37.3988 27.5213 37.9498L25.6213 38.0068C25.6165 37.2706 25.607 36.4251 25.5928 35.6223H25.5975ZM25.6403 39.4651V38.2396L27.5403 38.2016C27.5403 38.9853 27.583 39.8546 27.6068 40.6383L25.664 40.6146C25.645 40.1016 25.6355 39.6883 25.6355 39.4651H25.6403ZM27.6068 40.8236C27.6353 41.7736 27.6543 42.5811 27.6685 42.8566V43.0703H27.4025H25.7258C25.7258 42.2961 25.6783 41.4981 25.664 40.8378C26.2863 40.8236 26.975 40.8188 27.602 40.8236H27.6068ZM25.8065 45.5736C25.8065 45.0463 25.7685 44.2056 25.74 43.3078H27.6828C27.6828 43.9586 27.7113 44.9561 27.7303 45.5926L25.8065 45.5736ZM28.001 45.5736C28.001 45.0036 28.001 44.0821 27.9583 43.2888H29.9818V45.5926L28.001 45.5736ZM32.3805 45.5736H30.2193C30.2193 45.0131 30.167 44.1201 30.1385 43.2651H32.8793V45.1651V45.6401L32.3805 45.5736ZM33.093 45.5736V43.1986H35.5583H35.6675C35.6675 43.7401 35.7293 44.8136 35.7673 45.5736H33.093ZM37.4583 45.5736H36.0333C35.9858 44.7898 35.9193 43.7258 35.8765 43.1986L38.5508 43.2366C38.5508 43.8778 38.6078 44.8278 38.641 45.5356C38.1185 45.6116 37.7005 45.6258 37.4535 45.6401L37.4583 45.5736ZM38.8833 45.5213C38.8548 44.7851 38.812 43.8161 38.793 43.2366L41.6003 43.2936C41.6003 43.9871 41.6003 44.8231 41.6383 45.4596C40.7215 45.5403 39.6955 45.5641 38.85 45.5878L38.8833 45.5213ZM43.0728 45.4453H41.8568C41.8568 44.7993 41.8568 43.9728 41.8188 43.2888L44.075 43.4076C44.075 44.0726 44.1035 44.8326 44.113 45.4786C43.7805 45.4976 43.4243 45.5118 43.0443 45.5118L43.0728 45.4453ZM44.3743 45.3978C44.3743 44.7661 44.3363 43.9728 44.3173 43.3458H46.0415H46.754V45.2458C45.8753 45.3361 45.139 45.4168 44.3458 45.4501L44.3743 45.3978ZM49.4425 43.8303C49.4425 44.1058 49.4425 44.7803 49.4805 45.3076C49.319 45.3076 49.1385 45.3503 48.9343 45.3551C48.4973 45.3551 48.103 45.2553 47.001 45.2553C47.001 44.6711 47.001 43.9871 47.0248 43.3553C47.9368 43.3553 48.8488 43.3553 49.4378 43.3838C49.4093 43.6736 49.414 43.8256 49.414 43.8968L49.4425 43.8303ZM49.4425 43.1701L47.0295 43.0751V41.9683V40.7333C47.267 40.7333 47.5045 40.7571 47.647 40.7571C48.0175 40.7571 48.8393 40.7286 49.4235 40.7143C49.3903 41.5788 49.3998 42.6001 49.4093 43.2366L49.4425 43.1701ZM49.395 39.6456V40.5481H49.3C48.996 40.5481 47.8228 40.4911 47.0105 40.4721C47.0105 39.7643 47.0105 38.9711 47.039 38.2871H49.357C49.3475 38.9473 49.357 39.4556 49.3618 39.7121L49.395 39.6456ZM49.3665 38.0828H47.02V36.7433C47.02 36.5106 47.02 36.2208 46.9915 35.7933L49.3 35.9501C49.3 36.6056 49.3 37.4321 49.3333 38.1493L49.3665 38.0828ZM49.319 34.6391V35.6603L47.362 35.5558H47.0153C47.0153 35.0096 46.982 34.3683 46.9678 33.7603C47.476 33.7936 48.6255 33.8696 49.2858 33.9028C49.3 34.2353 49.3 34.4966 49.3 34.7056L49.319 34.6391ZM49.2715 33.6368C48.6208 33.5941 47.5948 33.5181 47.001 33.4611H46.925C46.925 32.7438 46.8918 32.1168 46.887 31.8318L49.0863 31.8746V32.0171C49.0958 32.3163 49.1813 33.0288 49.2383 33.7033L49.2715 33.6368Z" fill="#FEF0BB" style="fill:#FEF0BB;fill:color(display-p3 0.9961 0.9412 0.7333);fill-opacity:1;"/>
<path d="M34.2853 7.89654C33.3733 8.02479 33.2925 7.92504 33.3353 8.88929C33.378 9.85354 33.4208 10.756 33.5965 12.6893C33.7723 14.6225 33.4588 16.8503 32.8983 17.786C32.3378 18.7218 32.086 18.8785 33.568 19.0163C35.05 19.154 40.5078 19.3583 43.2723 19.8285C44.5643 20.047 44.7448 19.7905 45.101 18.5365C45.4573 17.2825 45.7043 15.8813 45.2435 13.3115C44.7828 10.7418 44.4455 8.92254 44.474 8.30504C44.5025 7.68754 43.8043 7.26479 42.5455 7.30754C39.0543 7.45004 34.9883 7.80154 34.2853 7.89654Z" fill="#FFC7D6" style="fill:#FFC7D6;fill:color(display-p3 1.0000 0.7804 0.8392);fill-opacity:1;"/>
<path d="M77.002 39.4935C76.8928 38.1208 76.1993 34.981 76.1993 33.6795C76.1993 32.378 75.6293 22.4458 75.9713 20.3035C76.3133 18.1613 76.774 17.1305 76.812 15.145C76.85 13.1595 76.926 10.6325 76.736 10.1765C76.546 9.72052 74.57 10.3143 72.556 10.414C70.542 10.5138 64.481 10.5328 64.006 10.8273C63.6355 11.0648 64.0868 20.7548 63.892 24.2033C63.6973 27.6518 63.8303 30.9673 63.7163 32.378C63.6023 33.7888 63.9775 35.4703 63.9775 36.7765C64.0021 38.1666 64.1821 39.5495 64.5143 40.8995C64.69 41.2558 65.1365 41.137 65.583 41.137C66.0295 41.137 68.357 41.3983 70.2523 41.346C72.1475 41.2938 74.703 41.1085 75.5865 41.2415C76.47 41.3745 77.1113 40.871 77.002 39.4935ZM74.1853 37.812C73.639 38.2063 65.5593 37.983 65.184 37.7123C64.8088 37.4415 64.804 34.4965 64.8705 33.6178C64.937 32.739 64.8705 25.1675 64.9988 24.4978C65.127 23.828 64.975 18.698 64.975 17.9523C64.975 17.2065 64.671 12.5515 65.1745 11.9958C65.678 11.44 73.373 11.763 73.7245 12.105C74.076 12.447 74.152 18.1898 74.1995 18.8738C74.247 19.5578 74.3705 28.901 74.3705 29.4473C74.3705 29.9935 74.7363 37.413 74.1853 37.812Z" fill="#FFC7D6" style="fill:#FFC7D6;fill:color(display-p3 1.0000 0.7804 0.8392);fill-opacity:1;"/>
<path d="M79.8948 9.66825C79.7523 8.87025 81.4623 8.56625 81.7948 8.24325C82.1273 7.92025 82.037 4.2105 82.9395 4.09175C83.842 3.973 84.887 6.7185 85.2243 6.94175C85.5615 7.165 87.5328 6.46675 87.794 7.16025C88.0553 7.85375 86.2075 8.98425 86.1268 9.50675C86.046 10.0293 88.1123 11.7535 87.7323 12.2333C87.3523 12.713 84.7445 11.6918 84.241 11.6918C83.7375 11.6918 82.74 13.72 82.075 13.5205C81.41 13.321 81.9563 10.7323 81.8565 10.509C81.7568 10.2858 80.0373 10.452 79.8948 9.66825Z" fill="#FFC7D6" style="fill:#FFC7D6;fill:color(display-p3 1.0000 0.7804 0.8392);fill-opacity:1;"/>
<path d="M58.002 44.2626C57.2943 44.4431 57.242 45.1271 57.2278 45.6068C57.2135 46.0866 57.2278 48.5328 57.261 49.0648C57.2943 49.5968 58.1445 50.0528 59.275 50.3331C60.4055 50.6133 61.3745 50.4756 61.8685 49.7156C62.3625 48.9556 63.2935 46.9273 63.1035 45.5546C62.9135 44.1818 62.8898 44.2103 62.1868 44.2293C61.4838 44.2483 58.002 44.2626 58.002 44.2626Z" fill="#FFC7D6" style="fill:#FFC7D6;fill:color(display-p3 1.0000 0.7804 0.8392);fill-opacity:1;"/>
<path d="M23.8875 51.15C23.6833 50.618 24.1393 50.3615 24.7093 50.675C25.5661 51.2944 26.3155 52.0502 26.9275 52.9123C27.5783 53.81 28.875 55.8525 29.3025 56.3893C29.73 56.926 29.7395 58.2228 28.5948 57.477C27.45 56.7313 24.923 52.936 24.5288 52.3755C24.2493 52.0049 24.0327 51.5909 23.8875 51.15Z" fill="#FFC7D6" style="fill:#FFC7D6;fill:color(display-p3 1.0000 0.7804 0.8392);fill-opacity:1;"/>
<path d="M22.1965 49.9673C21.294 48.9413 15.5465 49.364 14.7438 49.7108C13.6228 50.1858 13.4945 52.1998 13.3188 53.259C13.143 54.3183 12.3688 55.919 12.3688 56.8785C12.3688 57.838 12.3688 57.9188 12.8865 58.0375C13.4043 58.1563 19.8453 58.3463 20.7478 58.1658C21.6503 57.9853 22.263 57.591 22.4245 56.527C22.586 55.463 23.0943 50.9933 22.1965 49.9673ZM16.449 54.6128C15.9177 54.763 15.3597 54.7938 14.815 54.703C14.2498 54.5985 14.3685 53.8433 14.9813 53.7815C15.4872 53.7417 15.9954 53.7417 16.5013 53.7815C17.0618 53.8338 16.9335 54.475 16.449 54.6128ZM16.8243 52.2805C16.2262 52.3777 15.6191 52.4064 15.0145 52.366C14.4018 52.2663 14.72 51.473 15.3565 51.5395C15.7763 51.53 16.196 51.5586 16.6105 51.625C17.095 51.7533 17.2518 52.252 16.8243 52.2805ZM18.33 52.9028C18.8102 52.937 19.2867 53.01 19.755 53.1213C20.1635 53.2495 20.1303 53.867 19.6838 53.8005C19.2373 53.734 18.786 53.8765 18.1875 53.8005C17.589 53.7245 17.836 52.841 18.33 52.9028ZM19.9783 55.9C19.6457 55.9702 19.3038 55.9846 18.9665 55.9428C18.5818 55.8953 18.7243 55.7813 18.3775 55.6103C18.0308 55.4393 18.2635 55.0355 18.7385 55.1353C19.014 55.197 19.5508 55.254 19.9308 55.33C20.0064 55.3237 20.0814 55.3477 20.1393 55.3967C20.1972 55.4457 20.2332 55.5157 20.2395 55.5913C20.2458 55.6669 20.2218 55.7418 20.1728 55.7997C20.1238 55.8577 20.0539 55.8937 19.9783 55.9ZM20.1018 52.1C19.4985 52.005 19.413 51.9338 19.09 51.9005C18.615 51.8483 18.615 51.378 19.09 51.3163C19.4686 51.2717 19.852 51.3343 20.1968 51.4968C20.5293 51.6535 20.7098 52.2235 20.1018 52.1285V52.1Z" fill="#FFC7D6" style="fill:#FFC7D6;fill:color(display-p3 1.0000 0.7804 0.8392);fill-opacity:1;"/>
<path d="M36.1235 36.1352C36.383 35.8569 36.592 35.5354 36.741 35.1852C36.798 34.867 33.891 32.397 33.473 32.5157C33.055 32.6345 31.6823 34.6865 31.022 35.5557C30.3128 36.511 29.6942 37.5303 29.1743 38.6005C29.0223 39.0755 28.875 39.4745 29.5068 39.959C30.1385 40.4435 31.2643 41.0705 31.6395 41.384C32.0148 41.6975 32.2143 41.7735 32.3045 41.441C32.6591 40.6822 33.0821 39.9572 33.568 39.275C33.559 38.3768 33.886 37.5077 34.4848 36.8382C35.4775 35.76 36.1235 36.1352 36.1235 36.1352Z" fill="#FFC7D6" style="fill:#FFC7D6;fill:color(display-p3 1.0000 0.7804 0.8392);fill-opacity:1;"/>
<path d="M3.33901 9.61118C4.46001 10.7322 5.41476 12.0717 5.89451 11.7582C6.37426 11.4447 6.03701 8.30018 5.12976 7.27418C2.58851 4.40043 0.57926 6.85143 3.33901 9.61118Z" fill="#A6EEF8" style="fill:#A6EEF8;fill:color(display-p3 0.6510 0.9333 0.9725);fill-opacity:1;"/>
<path d="M2.46026 15.563C3.66676 16.3135 5.78526 17.6102 6.10351 17.2492C6.42176 16.8882 5.07752 14.5987 3.90427 13.4492C0.398765 10.0387 -1.18299 13.283 2.46026 15.563Z" fill="#A6EEF8" style="fill:#A6EEF8;fill:color(display-p3 0.6510 0.9333 0.9725);fill-opacity:1;"/>
<path d="M12.3117 6.74697C11.4045 6.87522 11.0767 7.25522 11.0482 8.11022C11.0197 8.96522 11.0862 13.9242 11.0197 15.2352C10.9532 16.5462 11.0197 21.016 10.6635 22.7402C10.3072 24.4645 10.5542 27.932 10.6397 28.4402C10.7252 28.9485 20.5862 29.5707 20.5862 29.5707C20.4072 28.9327 20.4875 28.2498 20.8095 27.6707L12.6442 26.6732C12.5329 24.9919 12.3331 23.3176 12.0457 21.6572C11.6895 20.1277 11.4425 19.2822 11.509 17.7765C11.5755 16.2707 11.6895 13.9765 11.642 12.5515C11.5945 11.1265 11.889 9.44497 11.7322 8.97947C11.5755 8.51397 11.11 8.09122 12.1312 8.11497C13.1525 8.13872 18.938 8.82747 20.401 8.87497C21.3894 8.90217 22.3749 8.9958 23.3507 9.15522C23.6924 10.7405 23.8518 12.3597 23.8257 13.9812C23.7497 16.4987 23.6452 20.37 23.4932 22.118C23.3412 23.866 23.1892 26.8395 23.4552 26.8395C23.7212 26.8395 24.0442 26.6922 24.4907 26.6922C24.8957 26.7277 25.2947 26.8139 25.6782 26.9487C26.8515 25.405 26.4857 19.135 26.462 17.8192C26.4382 16.5035 26.177 8.99372 25.8492 8.06747C25.5215 7.14122 25.569 6.38597 24.5287 6.44297C23.4885 6.49997 21.1515 6.66622 20.5482 6.68522C19.945 6.70422 12.3117 6.74697 12.3117 6.74697Z" fill="#A6EEF8" style="fill:#A6EEF8;fill:color(display-p3 0.6510 0.9333 0.9725);fill-opacity:1;"/>
<path d="M21.1943 32.6249C19.0188 32.5394 15.746 33.3517 14.15 35.9499C12.554 38.5482 11.224 39.9732 8.792 41.1322C6.36 42.2912 5.866 43.5072 6.417 44.5807C6.968 45.6542 10.5305 45.9439 13.1097 45.1032C15.689 44.2624 21.3652 45.0462 21.3652 45.0462C21.3652 45.0462 21.047 35.1377 21.047 33.9787C21.047 32.8197 21.1943 32.6249 21.1943 32.6249Z" fill="#A6EEF8" style="fill:#A6EEF8;fill:color(display-p3 0.6510 0.9333 0.9725);fill-opacity:1;"/>
<path d="M50.8818 27.5187C48.4783 27.6232 29.92 27.8797 28.1482 27.9319C26.3765 27.9842 24.4005 27.6137 23.346 28.4592C22.149 29.4092 22.0112 31.4232 22.1347 33.2092C22.2582 34.9952 22.111 41.6689 22.4672 43.9537C22.8235 46.2384 22.9422 47.1029 22.985 47.7062C23.0277 48.3094 32.637 48.6562 37.121 48.6894C41.605 48.7227 47.666 49.2784 50.1787 48.8604C52.9955 48.3854 54.0167 46.9034 53.5037 43.0892C53.1009 40.543 53.2172 37.9417 53.8457 35.4417C54.278 33.5749 53.2852 27.3999 50.8818 27.5187ZM50.4827 46.6327C49.8177 47.2502 47.742 46.7657 44.075 46.7657C40.408 46.7657 36.0285 46.7942 32.6227 46.7942C29.217 46.7942 24.1583 46.7942 23.7213 46.3714C23.2843 45.9487 23.1322 43.2602 23.27 41.0419C23.4077 38.8237 23.7212 35.3419 23.6737 33.0999C23.6262 30.8579 23.6025 29.6894 23.6025 29.6894C23.8371 29.6328 24.0787 29.6104 24.3197 29.6229C24.847 29.6229 31.231 29.8224 35.2448 29.9364C39.2585 30.0504 48.2313 29.7607 49.0198 29.8224C49.8083 29.8842 50.478 29.1384 50.9198 33.2472C51.3615 37.3559 51.143 46.0152 50.4827 46.6327Z" fill="#A6EEF8" style="fill:#A6EEF8;fill:color(display-p3 0.6510 0.9333 0.9725);fill-opacity:1;"/>
<path d="M38.1992 36.6197C35.9382 35.9594 34.6225 37.2562 34.3992 38.7857C34.176 40.3152 34.575 41.7022 35.525 42.1249C36.475 42.5477 39.2347 43.0749 39.9995 40.5004C40.389 39.1372 39.325 36.9474 38.1992 36.6197Z" fill="#A6EEF8" style="fill:#A6EEF8;fill:color(display-p3 0.6510 0.9333 0.9725);fill-opacity:1;"/>
<path d="M48.787 8.96993C48.787 8.46168 48.8772 8.49493 49.262 8.46168C49.6467 8.42843 56.6672 7.89168 57.9307 7.95343C59.1942 8.01518 59.5172 7.98193 59.4602 9.27393C59.4032 10.5659 59.427 13.0739 59.8782 14.4324C60.3295 15.7909 60.719 18.6029 60.2677 19.1397C59.8165 19.6764 57.4795 19.0494 55.4702 19.2014C53.461 19.3534 51.4802 19.1729 50.1882 19.5624C48.8962 19.9519 48.0317 20.1609 48.2407 18.6599C48.4497 17.1589 48.787 9.66343 48.787 8.96993Z" fill="#A6EEF8" style="fill:#A6EEF8;fill:color(display-p3 0.6510 0.9333 0.9725);fill-opacity:1;"/>
<path d="M62.7283 7.16495C61.8923 7.01295 62.3625 4.40045 62.79 3.06571C63.4123 1.11346 65.051 0.448455 66.1863 1.16571C67.3215 1.88296 66.248 3.44571 65.184 4.42896C64.12 5.4122 63.5168 7.3027 62.7283 7.16495Z" fill="#A6EEF8" style="fill:#A6EEF8;fill:color(display-p3 0.6510 0.9333 0.9725);fill-opacity:1;"/>
<path d="M71.8863 30.1597C71.6535 28.4022 70.6085 25.4097 70.6513 25.0534C70.694 24.6972 70.751 24.6212 71.6013 24.2934C72.4515 23.9657 72.195 22.8684 71.9195 22.5977C71.644 22.3269 71.3305 22.2984 71.416 22.1654C71.4948 21.8302 71.555 21.4908 71.5965 21.1489C71.701 20.6739 71.6203 20.4032 71.2735 20.3082C70.9268 20.2132 70.656 20.6074 70.5278 21.0682C70.5145 21.1669 70.4815 21.2619 70.4307 21.3476C70.3799 21.4332 70.3124 21.5078 70.2321 21.5667C70.1519 21.6257 70.0606 21.6679 69.9636 21.6908C69.8667 21.7137 69.7662 21.7168 69.668 21.6999C69.4475 21.6963 69.23 21.6491 69.0278 21.5611C68.8256 21.4731 68.6428 21.3459 68.49 21.1869C68.1908 20.8354 67.9913 19.9234 67.5115 19.9947C67.0318 20.0659 67.0365 20.7214 67.2645 21.7854C67.2645 21.7854 66.8608 21.9374 66.7515 22.6499C66.6831 22.9724 66.7064 23.3075 66.8189 23.6174C66.9315 23.9272 67.1286 24.1993 67.388 24.4027C67.7895 24.635 68.2405 24.7685 68.7038 24.7922C68.9698 24.8919 68.5708 25.3622 68.186 26.5402C67.8767 27.8145 67.6404 29.1054 67.4783 30.4067C67.3126 30.2077 67.199 29.9708 67.1476 29.7171C67.0962 29.4634 67.1086 29.2009 67.1838 28.9532C67.418 27.907 67.3935 26.8195 67.1125 25.7849C66.9463 25.1674 66.2528 25.0962 66.5805 25.9322C66.9083 26.7682 66.7848 28.6824 66.5805 29.5754C66.3763 30.4684 66.3003 31.2902 67.217 32.0787C67.122 32.7817 67.0413 33.3754 66.989 33.7317C66.799 35.0759 68.0958 35.9262 68.6705 35.6317C69.2453 35.3372 69.8295 35.5652 70.4043 35.6317C70.979 35.6982 71.1025 35.8882 71.8293 34.8004C72.556 33.7127 72.1 31.9172 71.8863 30.1597Z" fill="#A6EEF8" style="fill:#A6EEF8;fill:color(display-p3 0.6510 0.9333 0.9725);fill-opacity:1;"/>
<path d="M70.8175 52.8552C70.3425 52.8552 70.2618 52.613 70.295 52.2995C70.3283 51.986 70.5705 51.7532 70.9268 51.948C71.283 52.1427 71.2735 52.0097 71.4303 51.9195C71.587 51.8292 71.7295 51.777 72.0715 52.024C72.1617 52.1077 72.2696 52.17 72.3872 52.2062C72.5049 52.2424 72.6291 52.2515 72.7508 52.233C72.7936 52.2276 72.837 52.2314 72.8782 52.2441C72.9194 52.2568 72.9575 52.2781 72.9898 52.3066C73.0222 52.3352 73.048 52.3702 73.0658 52.4095C73.0835 52.4488 73.0927 52.4915 73.0927 52.5346C73.0927 52.5777 73.0835 52.6204 73.0658 52.6597C73.048 52.699 73.0222 52.734 72.9898 52.7626C72.9575 52.7911 72.9194 52.8124 72.8782 52.8251C72.837 52.8378 72.7936 52.8416 72.7508 52.8362C72.2853 52.8552 71.1928 52.8742 70.8175 52.8552Z" fill="#A6EEF8" style="fill:#A6EEF8;fill:color(display-p3 0.6510 0.9333 0.9725);fill-opacity:1;"/>
<path d="M76.1613 51.9432C75.615 51.7864 75.4345 52.1284 75.121 52.1142C74.8075 52.0999 74.532 52.2234 74.5273 52.5227C74.5225 52.8219 74.8598 52.7032 75.0735 52.7317C75.2873 52.7602 75.0735 52.8694 75.3918 52.9312C75.6944 52.9575 75.9991 52.9463 76.299 52.8979L76.1613 51.9432Z" fill="#A6EEF8" style="fill:#A6EEF8;fill:color(display-p3 0.6510 0.9333 0.9725);fill-opacity:1;"/>
<path d="M72.5133 54.2137C71.473 54.2422 71.644 53.7387 73.164 53.6389C73.7053 53.6012 74.2463 53.7147 74.7268 53.9667C75.1543 54.1994 74.6033 54.5319 73.9953 54.4417C73.5101 54.3166 73.0136 54.2402 72.5133 54.2137Z" fill="#A6EEF8" style="fill:#A6EEF8;fill:color(display-p3 0.6510 0.9333 0.9725);fill-opacity:1;"/>
<path d="M69.725 55.425C70.1318 55.271 70.5631 55.1921 70.998 55.1923C71.4659 55.1954 71.9306 55.2707 72.3755 55.4155C72.8505 55.596 72.8173 55.9285 72.1808 55.938C71.5027 55.9887 70.8222 55.9982 70.143 55.9665C69.9828 55.9367 69.8243 55.8986 69.668 55.8525L69.725 55.425Z" fill="#A6EEF8" style="fill:#A6EEF8;fill:color(display-p3 0.6510 0.9333 0.9725);fill-opacity:1;"/>
<path d="M76.432 55.6482C75.577 55.4439 75.4155 55.3157 75.102 55.3822C74.7885 55.4487 74.627 55.8572 75.159 56.0234C75.6023 56.1281 76.0609 56.1523 76.5128 56.0947L76.432 55.6482Z" fill="#A6EEF8" style="fill:#A6EEF8;fill:color(display-p3 0.6510 0.9333 0.9725);fill-opacity:1;"/>
<path d="M69.8532 57.1255C69.8532 57.1255 71.7247 57.1872 73.582 57.1255C75.4392 57.0637 76.755 57.211 77.1492 57.1255C77.5435 57.04 77.5055 57.3772 77.306 57.6432C77.1065 57.9092 77.5387 58.3747 76.831 58.2845C75.7559 58.1253 74.6728 58.0254 73.5867 57.9852C72.9075 58.0185 69.7867 57.8427 69.7867 57.8427L69.8532 57.1255Z" fill="#A6EEF8" style="fill:#A6EEF8;fill:color(display-p3 0.6510 0.9333 0.9725);fill-opacity:1;"/>
<path d="M45.937 53.677C45.937 53.1592 46.0605 52.9122 47.0153 52.9265C47.97 52.9407 50.5588 53.2875 52.7153 53.1782C54.8718 53.069 57.698 52.879 58.1113 52.9835C58.5245 53.088 58.5388 55.1257 58.2538 56.4985C57.9688 57.8712 58.0163 58.5837 55.741 58.4887C53.4658 58.3937 50.2928 58.9162 49.1813 58.8212C48.0698 58.7262 46.241 58.8212 45.956 57.5435C45.671 56.2657 45.9323 54.1947 45.937 53.677Z" fill="#A6EEF8" style="fill:#A6EEF8;fill:color(display-p3 0.6510 0.9333 0.9725);fill-opacity:1;"/>
<path d="M34.3375 49.6442C34.5513 49.4732 35.8623 49.6442 36.9025 49.5777C37.9428 49.5112 38.679 49.269 39.097 49.3877C39.515 49.5065 39.762 49.497 39.6528 49.9435C39.5435 50.39 39.6528 50.6227 39.8048 50.6512C40.1667 50.5725 40.52 50.4579 40.8593 50.3092C41.3913 50.1477 41.7713 50.5942 41.8093 51.15C41.8473 51.7057 41.2393 53.3492 40.2798 53.7292C39.3203 54.1092 35.601 54.4702 34.442 53.7862C33.283 53.1022 33.2973 52.6415 33.3305 52.043C33.3638 51.4445 33.454 50.846 33.8055 50.5372C34.0642 50.2963 34.2488 49.9865 34.3375 49.6442Z" fill="#A6EEF8" style="fill:#A6EEF8;fill:color(display-p3 0.6510 0.9333 0.9725);fill-opacity:1;"/>
<path d="M16.525 10.946C16.8942 11.0781 17.2941 11.0979 17.6745 11.003C18.102 10.9697 18.1495 11.2547 19.1328 11.174C20.116 11.0932 19.0568 10.3237 18.1828 10.376C17.6124 10.4423 17.035 10.4166 16.4728 10.3C15.8315 10.167 15.8695 10.6372 16.525 10.946Z" fill="#471280" style="fill:#471280;fill:color(display-p3 0.2784 0.0706 0.5020);fill-opacity:1;"/>
<path d="M15.6748 13.3637C15.8047 13.4416 15.9532 13.4827 16.1047 13.4827C16.2561 13.4827 16.4047 13.4416 16.5345 13.3637C17.1663 12.9695 17.0095 13.4777 17.6555 13.3637C18.3015 13.2497 18.2635 13.0027 18.6055 13.1405C18.9475 13.2782 20.0685 13.3685 20.3535 13.1832C20.6385 12.998 20.5673 13.131 20.7905 13.2402C21.0138 13.3495 21.0613 12.656 20.6813 12.5942C20.3013 12.5325 20.2063 12.6702 19.8073 12.7462C19.1613 12.8697 19.0568 12.618 18.7338 12.599C18.4108 12.58 18.0925 12.789 17.589 12.7557C17.0855 12.7225 16.943 12.3567 16.5155 12.6227C15.7175 13.0977 15.8743 12.219 15.005 12.5752C14.4968 12.7842 14.416 13.397 15.005 13.131C15.594 12.865 15.4088 13.2212 15.6748 13.3637Z" fill="#471280" style="fill:#471280;fill:color(display-p3 0.2784 0.0706 0.5020);fill-opacity:1;"/>
<path d="M18.4726 15.2923C18.1163 15.2923 17.9976 15.4158 17.6033 15.3825C17.2091 15.3493 17.4751 14.6985 16.5251 15.012C16.2543 15.1023 16.0026 15.2685 15.7318 15.373C15.3756 15.5155 15.2568 15.848 15.7318 15.848C16.0587 15.8526 16.3801 15.7636 16.6581 15.5915C16.9241 15.4728 16.9858 15.5108 17.1758 15.7293C17.3658 15.9478 17.5036 15.9193 17.9596 15.9145C18.317 15.8513 18.6835 15.8594 19.0378 15.9383C19.4749 16.0991 19.9415 16.1639 20.4058 16.1283C20.8808 16.0665 20.9426 15.7625 20.3108 15.6533C19.4511 15.5488 19.2801 15.316 18.4726 15.2923Z" fill="#471280" style="fill:#471280;fill:color(display-p3 0.2784 0.0706 0.5020);fill-opacity:1;"/>
<path d="M16.3113 18.85C16.4441 18.9537 16.602 19.0202 16.7689 19.0427C16.9359 19.0653 17.1058 19.043 17.2613 18.9783C17.6413 18.8405 17.9026 18.66 18.1068 18.7408C18.3247 18.8527 18.572 18.8942 18.8146 18.8595C19.094 18.7786 19.3935 18.804 19.6553 18.9308C20.1303 19.0875 20.3251 18.812 20.1303 18.6885C19.9356 18.565 19.5698 18.2135 19.2373 18.3703C19.0876 18.4359 18.9258 18.4698 18.7623 18.4698C18.5988 18.4698 18.437 18.4359 18.2873 18.3703C18.1344 18.313 17.9716 18.2868 17.8085 18.2934C17.6453 18.2999 17.4851 18.339 17.3373 18.4083C16.9811 18.565 16.8291 18.6268 16.7056 18.5318C16.5821 18.4368 16.5251 18.1328 16.0501 18.2848C15.5751 18.4368 15.1001 18.6268 15.2378 18.7598C15.4516 18.9735 16.0976 18.6458 16.3113 18.85Z" fill="#471280" style="fill:#471280;fill:color(display-p3 0.2784 0.0706 0.5020);fill-opacity:1;"/>
<path d="M20.9901 21.9185C20.6718 21.7712 20.458 21.8472 20.3298 21.7332C20.2472 21.661 20.1466 21.6127 20.0386 21.5935C19.9306 21.5742 19.8195 21.5848 19.7171 21.624C19.489 21.719 19.413 21.871 19.1138 21.7427C18.9648 21.6741 18.8028 21.6386 18.6388 21.6386C18.4748 21.6386 18.3128 21.6741 18.1638 21.7427C18.061 21.8231 17.9354 21.8691 17.805 21.8742C17.6746 21.8793 17.5459 21.8433 17.437 21.7712C17.2723 21.6795 17.0893 21.6256 16.9012 21.6133C16.7131 21.601 16.5246 21.6306 16.3493 21.7C15.9455 21.852 15.8458 21.7 15.4848 21.7902C15.1238 21.8805 15.2615 22.2652 15.4278 22.1845C15.594 22.1037 15.746 22.1845 15.974 22.2605C16.202 22.3365 16.3208 22.0942 16.7008 22.0942C16.8715 22.0915 17.0384 22.1449 17.1758 22.2462C17.3117 22.3469 17.4741 22.4055 17.643 22.4148C17.8118 22.4241 17.9797 22.3836 18.1258 22.2985C18.5541 22.2061 18.9996 22.2341 19.4131 22.3792C19.7266 22.4315 19.9783 22.1417 20.2538 22.2747C20.5651 22.4093 20.9113 22.441 21.2418 22.365C21.4698 22.2842 21.3083 22.0657 20.9901 21.9185Z" fill="#471280" style="fill:#471280;fill:color(display-p3 0.2784 0.0706 0.5020);fill-opacity:1;"/>
<path d="M18.6245 24.55C18.2255 24.55 16.639 24.55 16.2495 24.5833C15.86 24.6165 15.8268 25.1723 16.1973 25.1533C16.5678 25.1343 18.1258 25.1533 18.5723 25.1533C19.0188 25.1533 19.0188 24.55 18.6245 24.55Z" fill="#471280" style="fill:#471280;fill:color(display-p3 0.2784 0.0706 0.5020);fill-opacity:1;"/>
<path d="M33.568 17.8145C34.442 17.9523 35.5678 18.2088 36.76 18.4463C40.085 19.1113 44.17 18.9878 44.4645 18.9973C45.177 18.9973 44.9728 14.7983 44.7305 13.3448C44.4527 11.5049 44.2751 9.6512 44.1985 7.79201C44.17 6.72326 44.398 6.66151 42.7735 6.76126C42.4695 6.76126 41.9613 6.79926 41.3485 6.82301C41.2878 6.60629 41.2133 6.39368 41.1253 6.18651C40.9068 5.66876 40.389 5.51676 40.3653 6.25301V6.85151C38.8168 6.89901 36.8788 6.94176 35.2875 6.97026C35.1925 6.69951 35.088 6.44301 35.0358 6.26251C34.8648 5.70676 34.2568 5.44076 34.2995 6.22451C34.2995 6.46676 34.3233 6.72801 34.347 6.98451H32.447C31.25 6.97501 31.6538 7.50701 31.7488 7.88226C32.1858 9.57801 32.1715 13.9433 31.554 16.0618C30.9128 18.2705 31.497 17.4915 33.568 17.8145ZM34.518 7.86326C34.5597 7.97349 34.637 8.0666 34.7378 8.12773C34.8385 8.18885 34.9568 8.21448 35.0738 8.20051C35.1572 8.19886 35.2372 8.16722 35.2991 8.11139C35.361 8.05555 35.4008 7.97927 35.411 7.89651C37.2778 7.94876 38.9878 7.89651 40.5078 7.83951C40.6265 8.13401 40.807 8.31451 41.0778 8.26701C41.3485 8.21951 41.4008 8.04376 41.4293 7.79201C42.0943 7.76351 42.7165 7.74451 43.296 7.73501C43.296 7.73501 43.5573 8.14826 43.4053 9.69201C43.2533 11.2358 44.094 15.2495 43.7568 18.1233C43.7568 18.1233 41.795 17.9 40.142 17.7338C38.489 17.5675 38.717 17.52 32.7083 16.456C33.055 15.031 33.5965 9.56376 32.7083 7.73501C33.3305 7.79676 33.9385 7.83476 34.537 7.86326H34.518Z" fill="#471280" style="fill:#471280;fill:color(display-p3 0.2784 0.0706 0.5020);fill-opacity:1;"/>
<path d="M35.4395 10.6991C35.8054 10.6943 36.1709 10.7214 36.532 10.7798C37.1445 10.7135 37.7623 10.7119 38.375 10.7751C38.947 10.8526 39.5284 10.8236 40.0898 10.6896C40.617 10.6373 40.4983 10.1006 40.1705 10.0578C39.8428 10.0151 39.7525 10.2193 39.0115 10.0578C37.8703 9.94421 36.7215 9.92673 35.5773 10.0056C35.012 10.0958 34.7983 10.7276 35.4395 10.6991Z" fill="#471280" style="fill:#471280;fill:color(display-p3 0.2784 0.0706 0.5020);fill-opacity:1;"/>
<path d="M40.1753 11.6728C39.6367 11.6951 39.0972 11.6824 38.5603 11.6348C37.7765 11.6348 36.2756 11.6348 35.7103 11.668C35.145 11.7013 35.1641 12.143 35.7103 12.1763C36.2565 12.2095 38.5983 12.0623 38.9973 12.1288C39.4101 12.2613 39.85 12.2859 40.2751 12.2C40.6598 12.0338 40.6408 11.5873 40.1753 11.6728Z" fill="#471280" style="fill:#471280;fill:color(display-p3 0.2784 0.0706 0.5020);fill-opacity:1;"/>
<path d="M36.4275 13.15C35.7103 13.1928 35.6343 13.739 36.4275 13.8435C37.9016 13.9889 39.3835 14.0381 40.864 13.9908C41.5955 13.9053 41.4673 13.3495 40.4603 13.2925C39.4533 13.2355 37.1875 13.1215 36.4275 13.15Z" fill="#471280" style="fill:#471280;fill:color(display-p3 0.2784 0.0706 0.5020);fill-opacity:1;"/>
<path d="M50.1646 18.7408C52.0009 18.8454 53.8431 18.7402 55.6556 18.4273C57.3703 18.1043 58.7431 18.8168 59.4888 18.4273C60.2346 18.0378 59.9638 16.8028 59.5553 14.8505C59.1468 12.8983 58.8618 10.0055 58.6481 8.49029C58.4343 6.97504 58.2348 7.06529 57.0711 6.92279C56.6436 6.87054 56.1543 6.83254 55.6461 6.81354C55.5701 6.58554 55.4893 6.39554 55.4513 6.29104C55.2946 5.89204 54.8243 5.57379 54.7436 6.21504C54.7271 6.40468 54.7271 6.5954 54.7436 6.78504C53.4088 6.76129 51.9791 6.78504 50.8723 6.86104L50.7393 6.53329C50.5208 5.95854 50.1076 5.91104 50.1076 6.53329V6.90379L49.4901 6.95129C48.0128 7.07954 47.5426 6.68054 47.4238 8.59004C47.3612 11.3024 47.4563 14.016 47.7088 16.7173C47.9036 18.4748 48.5163 18.5888 50.1646 18.7408ZM48.3786 7.88229C48.4166 7.73029 49.2146 7.65904 50.2073 7.64004C50.3261 8.27179 50.5636 8.87029 51.0101 8.83229C51.4566 8.79429 51.3473 8.21954 51.1573 7.63529C51.8413 7.63529 52.5301 7.65904 53.0573 7.68754C53.5846 7.71604 54.2733 7.71604 54.9051 7.71604C55.0286 8.09604 55.2043 8.38104 55.4181 8.36204C55.7506 8.32879 55.8408 8.05804 55.8218 7.71129C56.6816 7.71129 57.3513 7.73979 57.4416 7.88229C57.6316 8.15779 57.6791 10.091 57.9926 12.2618C58.3061 14.4325 58.4676 16.304 58.7573 16.9785C58.9141 17.349 58.5816 17.8763 57.8453 17.6768C57.1091 17.4773 53.5038 17.6293 51.3948 17.7385C49.2858 17.8478 48.4926 18.0378 48.4878 17.1543C48.4831 16.2708 47.8371 9.98179 48.3786 7.88229Z" fill="#471280" style="fill:#471280;fill:color(display-p3 0.2784 0.0706 0.5020);fill-opacity:1;"/>
<path d="M50.6158 11.4305C51.2808 11.4305 55.4893 11.1882 56.273 11.098C57.0568 11.0077 57.1138 10.1765 56.2255 10.2667C55.3373 10.357 51.2333 10.6847 50.5255 10.8795C49.8178 11.0742 49.9508 11.421 50.6158 11.4305Z" fill="#471280" style="fill:#471280;fill:color(display-p3 0.2784 0.0706 0.5020);fill-opacity:1;"/>
<path d="M55.2233 12.333C53.7427 12.3268 52.263 12.4061 50.7915 12.5705C50.3878 12.6465 50.0838 13.0455 50.8485 13.0455C51.6133 13.0455 54.9905 13.0455 55.6318 12.9172C56.273 12.789 55.9168 12.3852 55.2233 12.333Z" fill="#471280" style="fill:#471280;fill:color(display-p3 0.2784 0.0706 0.5020);fill-opacity:1;"/>
<path d="M55.2233 14.2567C54.2733 14.3185 51.6465 14.4705 51.1525 14.556C50.421 14.6842 50.7583 14.9597 51.2333 15.0025C51.7083 15.0452 54.886 14.9312 55.475 14.9597C56.064 14.9882 56.1875 14.1997 55.2233 14.2567Z" fill="#471280" style="fill:#471280;fill:color(display-p3 0.2784 0.0706 0.5020);fill-opacity:1;"/>
<path d="M63.3363 40.2773C64.9087 40.1864 66.4862 40.2421 68.0483 40.4435C69.4258 40.6668 72.7983 40.4673 74.0998 40.605C75.4013 40.7428 76.1233 40.8235 76.546 40.3913C76.9688 39.959 76.755 37.0663 76.6743 35.836C76.5935 34.6058 76.5793 30.5208 76.4748 29.2858C76.3703 28.0508 76.375 21.7475 76.375 20.75C76.375 19.7525 76.1138 13.0598 76.0473 12.2998C75.9808 11.5398 76.166 10.262 75.8193 9.94851C75.4725 9.63501 74.0095 9.67301 73.0168 9.57801C72.024 9.48301 70.1668 9.54001 68.8178 9.46876C66.9679 9.45683 65.1192 9.5679 63.284 9.80126C62.809 9.89626 62.942 10.433 62.942 11.307C62.942 12.181 62.8375 17.1733 62.7615 18.7788C62.6855 20.3843 62.448 26.4453 62.448 28.0698C62.448 29.6943 62.581 33.6463 62.5098 35.095C62.4385 36.5438 62.5098 38.3583 62.4433 39.1088C62.3768 39.8593 62.6523 40.3628 63.3363 40.2773ZM63.436 25.6093C63.436 24.2223 63.6355 16.076 63.6355 14.176C63.6355 12.276 63.55 10.433 63.7875 10.3998C66.6375 9.95801 73.0073 10.186 75.2683 10.3998C75.7433 12.0243 75.5818 19.325 75.5105 21.3248C75.4393 23.3245 75.6768 28.882 75.672 29.984C75.6673 31.086 75.7765 37.793 75.9665 38.667C76.1565 39.541 76.0805 39.6978 75.6958 39.7833C74.5277 39.8497 73.3564 39.8354 72.1903 39.7405C70.1668 39.6645 64.785 39.4365 63.3363 39.4745C63.3363 39.4745 63.5453 34.582 63.5643 33.2663C63.5833 31.9505 63.436 26.9915 63.436 25.6093Z" fill="#471280" style="fill:#471280;fill:color(display-p3 0.2784 0.0706 0.5020);fill-opacity:1;"/>
<path d="M64.7613 22.2273C64.7613 24.778 64.5523 30.4685 64.5428 31.675C64.5333 32.8815 64.462 37.565 64.8848 38.0448C65.3075 38.5245 73.9668 38.3678 74.475 38.0448C74.9833 37.7218 74.6698 33.195 74.6745 32.0598C74.6793 30.9245 74.475 20.9163 74.475 19.7573C74.475 18.5983 74.4085 14.7555 74.38 13.4825C74.3515 12.2095 74.171 11.6823 73.5488 11.5825C72.9265 11.4828 65.735 11.193 64.9988 11.744C64.4858 12.124 64.5238 14.6415 64.5238 15.9858C64.5238 17.33 64.7565 19.6813 64.7613 22.2273ZM65.2363 12.3568C65.2382 12.292 65.2655 12.2306 65.3123 12.1858C65.3352 12.1628 65.3627 12.1451 65.393 12.1336C65.4233 12.1221 65.4557 12.1172 65.488 12.1193C66.362 12.1478 73.126 12.2713 73.43 12.1953C73.62 12.4755 73.867 18.6173 73.9573 20.3795C74.0475 22.1418 74.0238 27.894 73.9573 29.7323C73.8908 31.5705 74.2233 37.3323 73.7578 37.603C73.2923 37.8738 65.5165 37.7598 65.3265 37.4558C65.1365 37.1518 65.2078 27.9558 65.279 26.3028C65.3503 24.6498 65.3313 20.484 65.222 19.4343C65.1128 18.3845 65.2125 14.537 65.2505 12.3568H65.2363Z" fill="#471280" style="fill:#471280;fill:color(display-p3 0.2784 0.0706 0.5020);fill-opacity:1;"/>
<path d="M23.7308 46.7135C24.1726 47.0033 26.9371 47.1553 28.7041 47.046C30.4711 46.9368 35.4681 47.1125 37.4156 47.1125C39.3631 47.1125 45.7518 47.1125 47.2338 47.2218C48.7158 47.331 50.3071 47.3785 50.9056 46.8465C51.5041 46.3145 51.3806 41.251 51.3806 39.9495C51.3806 38.648 51.2903 34.1308 51.0718 32.6725C50.8533 31.2143 51.1383 30.3735 50.5968 29.889C50.0553 29.4045 46.0368 29.4615 43.1298 29.5138C40.2228 29.566 36.8123 29.7038 34.4088 29.623C32.0053 29.5423 28.6233 29.3285 26.8658 29.3C25.1083 29.2715 23.8116 29.167 23.4316 29.4615C23.0516 29.756 23.1608 31.618 23.3271 32.6725C23.4933 33.727 23.1323 40.2725 22.9566 42.6475C22.7808 45.0225 23.2891 46.4285 23.7308 46.7135ZM23.9683 35.8883C24.1005 33.8837 24.0337 31.8709 23.7688 29.8795C25.8446 29.8795 33.7723 30.2073 35.7721 30.2073C37.7718 30.2073 43.7853 30.2405 45.6236 30.2643C47.4618 30.288 49.5281 30.2643 49.8986 30.3593C50.4116 31.1383 50.7251 38.325 50.6823 39.275C50.5873 41.0848 50.6111 46.2623 50.1408 46.4998C49.6706 46.7373 42.7736 46.381 40.7501 46.381C38.7266 46.381 31.7251 46.381 30.0673 46.476C28.4096 46.571 24.6998 46.5948 24.1346 46.3098C23.5693 46.0248 23.6881 45.3598 23.5693 43.7448C23.4506 42.1298 23.7593 37.8215 23.9683 35.8883Z" fill="#471280" style="fill:#471280;fill:color(display-p3 0.2784 0.0706 0.5020);fill-opacity:1;"/>
<path d="M28.2433 38.591C28.9689 38.9373 29.6395 39.3886 30.2335 39.9305C30.585 40.339 31.3545 41.1322 31.8343 41.1417C32.314 41.1512 32.5325 40.5432 32.7843 40.3247C33.036 40.1062 33.0788 39.5457 32.7035 39.7025C32.3283 39.8592 32.0813 40.4482 31.9103 40.4292C31.3248 40.023 30.7692 39.5754 30.2478 39.0897C29.7246 38.6982 29.1807 38.335 28.6185 38.002C28.514 37.926 28.6185 37.7455 28.7278 37.6172C28.837 37.489 30.11 35.7742 30.585 35.038C31.06 34.3017 32.01 33.0192 32.105 32.8292C32.2 32.6392 32.3663 32.568 32.6465 32.8292C33.4439 33.3745 34.2861 33.8512 35.164 34.2542C35.5013 34.3682 35.4918 34.5107 35.335 34.658C35.197 34.834 35.0997 35.0384 35.05 35.2565C35.0073 35.3705 35.525 35.4322 35.5773 35.2565C35.7568 34.9898 35.9005 34.7008 36.0048 34.3967C36.076 34.0405 34.8315 33.3137 34.0288 32.8815C33.4214 32.5623 32.7983 32.2738 32.162 32.017C32.029 31.96 32.0433 32.1547 31.8343 32.397C31.6253 32.6392 30.775 33.7317 30.0673 34.696C29.3595 35.6602 28.115 37.4272 27.8775 37.85C27.64 38.2727 27.868 38.458 28.2433 38.591Z" fill="#471280" style="fill:#471280;fill:color(display-p3 0.2784 0.0706 0.5020);fill-opacity:1;"/>
<path d="M33.3781 39.6123C33.6346 41.4173 34.7223 42.6618 36.9073 42.5098C39.0923 42.3578 39.8951 40.3865 39.4771 38.477C39.0591 36.5675 37.9001 35.8123 36.2186 35.741C34.2853 35.6508 33.1501 37.8025 33.3781 39.6123ZM36.2281 36.3823C37.8763 36.3823 38.5271 37.6078 38.9166 38.8665C39.0201 39.1992 39.0491 39.5506 39.0016 39.8957C38.9542 40.2409 38.8313 40.5714 38.6419 40.8637C38.4524 41.1561 38.2009 41.4032 37.9052 41.5875C37.6096 41.7719 37.277 41.8889 36.9311 41.9303C35.3446 42.0775 34.0811 41.1655 33.9718 39.161C33.935 38.8307 33.964 38.4964 34.0573 38.1774C34.1505 37.8584 34.3062 37.5611 34.5151 37.3026C34.7241 37.0442 34.9822 36.8298 35.2746 36.6718C35.567 36.5138 35.8879 36.4154 36.2186 36.3823H36.2281Z" fill="#471280" style="fill:#471280;fill:color(display-p3 0.2784 0.0706 0.5020);fill-opacity:1;"/>
<path d="M40.275 36.8572C40.6123 36.4392 41.776 35.4322 41.852 35.3657C41.928 35.2992 42.0848 35.3657 42.099 35.4607C42.1133 35.5557 42.574 37.5935 42.764 38.2395C42.954 38.8855 43.372 40.5812 43.4385 40.7C43.505 40.8187 43.3815 40.8805 43.2485 40.8757C42.1358 40.8794 41.0246 40.9619 39.9235 41.1227C39.382 41.2985 39.1303 41.7782 39.7525 41.8067C40.3748 41.8352 43.258 41.5455 43.8185 41.5075C44.379 41.4695 44.2508 40.7997 44.0655 40.2535C43.8803 39.7072 42.802 36.2255 42.6405 35.5557C42.479 34.886 42.517 34.4537 42.2083 34.43C41.8995 34.4062 41.6858 34.5155 41.3913 34.905C41.0968 35.2945 40.1325 36.178 39.8428 36.5105C39.553 36.843 39.933 37.2752 40.275 36.8572Z" fill="#471280" style="fill:#471280;fill:color(display-p3 0.2784 0.0706 0.5020);fill-opacity:1;"/>
<path d="M26.2625 52.8695C25.759 52.366 24.6428 51.1452 24.3245 50.9315C24.2304 50.8472 24.1136 50.7924 23.9887 50.7739C23.8637 50.7553 23.7361 50.7738 23.6215 50.827C23.5713 50.853 23.5285 50.8912 23.497 50.9381C23.4654 50.985 23.4461 51.0391 23.4409 51.0953C23.4357 51.1516 23.4448 51.2083 23.4672 51.2602C23.4896 51.312 23.5247 51.3575 23.5693 51.3922C23.7973 51.6392 23.9255 51.8957 24.1535 52.1712C24.3815 52.4467 25.6783 54.4227 25.9348 54.817C26.4899 55.6467 27.0975 56.44 27.754 57.192C28.096 57.496 28.704 57.819 28.9938 57.5815C29.0705 57.5255 29.1343 57.4536 29.1808 57.3708C29.2272 57.2879 29.2552 57.1959 29.2629 57.1013C29.2706 57.0066 29.2577 56.9113 29.2252 56.8221C29.1927 56.7328 29.1413 56.6516 29.0745 56.584C28.7848 56.242 26.7613 53.3682 26.2625 52.8695ZM28.267 57.0542C27.3423 56.0455 26.4764 54.9845 25.6735 53.8765C25.1368 53.0975 24.106 51.6725 23.9778 51.4587C23.8495 51.245 24.011 51.2117 24.1773 51.3542C25.1692 52.3297 26.1033 53.3622 26.975 54.4465C27.7113 55.444 28.5045 56.4557 28.723 56.8595C28.9415 57.2632 28.6565 57.4057 28.267 57.0542Z" fill="#471280" style="fill:#471280;fill:color(display-p3 0.2784 0.0706 0.5020);fill-opacity:1;"/>
<path d="M82.5785 58.997C81.6554 57.0919 80.8774 55.1198 80.251 53.0975C79.8853 51.6725 79.3533 49.7725 78.351 49.0363C77.3488 48.3 74.19 48.0863 72.2093 48.0103C70.3995 47.9295 62.9895 47.9058 61.6928 47.901C62.0413 47.103 62.3209 46.2766 62.5288 45.431C62.752 44.481 62.8613 44.1438 62.7283 43.7543C62.5033 43.1568 62.081 42.6541 61.5313 42.3293V41.8115C61.5645 41.3365 61.3033 40.3865 60.9185 41.3033C60.8334 41.5096 60.7651 41.7224 60.7143 41.9398C60.5592 41.882 60.4006 41.8344 60.2393 41.7973C60.2307 41.3194 60.1847 40.8429 60.1015 40.3723C59.9115 39.4223 59.446 39.2228 59.3748 40.2583C59.351 40.643 59.3463 41.1323 59.3748 41.65H58.8998C58.7668 40.9945 58.6433 40.4103 58.5863 40.225C58.4295 39.6788 57.8738 39.75 57.9213 40.225C57.9213 40.4483 57.9593 41.0895 57.983 41.8068C57.4994 41.926 57.0687 42.2015 56.7578 42.5906C56.4469 42.9797 56.2731 43.4605 56.2635 43.9585C56.2303 44.6995 56.1448 46.1008 56.2065 47.2835L52.321 47.1648C52.6069 46.4902 52.8295 45.7905 52.986 45.0748C53.3803 43.4408 53.461 40.5195 53.3803 37.8358C54.2163 37.8738 56.8763 37.9688 57.622 38.0163C58.5008 38.078 58.6813 38.04 58.743 37.3988C58.8048 36.7575 58.9093 33.0383 58.9568 31.5563C59.0043 30.0743 59.0565 23.866 59.0708 23.068C59.085 22.27 59.1563 21.8235 58.4058 21.7998C57.6553 21.776 54.9383 21.7998 51.8365 21.624C48.7348 21.4483 42.65 21.1348 39.211 21.225C35.772 21.3153 29.578 21.358 29.2693 21.8425C28.9605 22.327 28.6328 25.6425 28.742 27.1008H26.1248C26.1533 25.728 26.3195 16.0903 26.272 14.2758C26.2198 12.5848 26.367 9.92952 26.3433 8.05327C26.3433 7.82073 26.2651 7.59494 26.1212 7.41226C25.9773 7.22959 25.7761 7.10067 25.55 7.04627C22.3675 6.32902 17.3088 5.93477 10.6825 6.46677C10.498 6.47862 10.3177 6.5275 10.1525 6.6105C9.98727 6.6935 9.84044 6.80892 9.72076 6.94988C9.60108 7.09083 9.511 7.25444 9.4559 7.43095C9.4008 7.60746 9.3818 7.79326 9.40003 7.97727C9.73253 11.2025 9.44278 16.6365 9.60903 18.6885C9.77528 20.7405 9.93678 26.0985 9.92728 28.3073C9.92728 28.4247 9.95056 28.541 9.9958 28.6494C10.041 28.7578 10.1073 28.8561 10.1908 28.9387C10.2743 29.0213 10.3733 29.0866 10.4822 29.1306C10.5911 29.1747 10.7076 29.1968 10.825 29.1955C15.0003 29.262 19.8785 29.7655 20.9235 29.8795C20.7959 30.9369 20.7451 32.0021 20.7715 33.0668C20.7715 37.4463 20.496 41.232 20.8238 43.9918C20.8871 45.1024 21.1427 46.1937 21.579 47.217C19.9925 47.2693 15.1808 47.426 13.77 47.464C12.0743 47.5068 11.642 47.6683 10.3358 49.5683C9.02953 51.4683 5.69028 56.6648 5.39578 57.6148C5.10128 58.5648 5.34353 60.1465 5.39578 60.6548C5.44803 61.163 5.87078 61.4243 6.58328 61.5193C8.99132 61.8016 11.4123 61.9601 13.8365 61.9943C11.6515 67.3903 5.69503 82.8468 5.35303 83.526C5.01103 84.2053 5.25328 84.5283 6.08928 84.9985C6.92528 85.4688 7.56178 84.7705 7.86578 84.324C8.16978 83.8775 11.8035 78.358 12.9008 75.8263C13.8508 73.5938 18.5248 63.994 19.5983 61.7758L21.1753 61.7378L17.5985 68.6538C16.3303 71.1048 15.7365 72.5725 15.594 73.2755C15.4515 73.9785 15.708 74.064 16.2163 74.2255C16.7245 74.387 17.3705 74.425 17.7078 74.083C18.045 73.741 24.8328 64.982 25.7163 64.0795C26.367 63.405 27.317 62.246 27.754 61.7045L29.0983 61.7283C32.2618 61.79 37.6103 61.581 41.0303 61.866C44.1415 62.1225 53.5798 62.018 60.1253 62.037C62.2295 65.8703 67.9865 74.2683 68.4853 74.7148C68.984 75.1613 69.5113 75.5555 70.1145 75.318C70.7178 75.0805 71.264 74.9238 71.6868 74.7433C72.1095 74.5628 72.1285 73.6935 71.6345 72.7483C71.207 71.9455 67.122 64.222 65.9345 61.999C67.122 61.961 68.3095 61.9088 69.4828 61.8518C70.8223 66.7015 73.9525 75.2515 74.7078 77.864C75.4868 80.5668 77.1303 86.6278 77.3868 87.364C77.6433 88.1003 77.8903 88.162 78.4318 88.0148C79.0062 87.824 79.5693 87.6004 80.118 87.345C80.5313 87.1835 80.593 87.022 80.441 86.205C80.289 85.388 77.116 66.255 76.5365 61.505C77.8143 61.4528 78.8783 61.4338 79.6193 61.4765C82.5975 61.6523 82.3695 61.6095 82.759 61.0585C83.1485 60.5075 83.0725 59.9375 82.5785 58.997ZM61.954 43.55C61.9968 43.6023 62.011 43.645 61.954 43.6925C61.8348 43.7547 61.7066 43.798 61.574 43.8208C61.574 43.6308 61.5503 43.3458 61.5408 43.0845C61.6871 43.2319 61.825 43.3873 61.954 43.55ZM61.004 41.859C61.0373 41.6358 61.194 41.5645 61.194 41.7688C61.194 41.973 61.2273 43.284 61.2415 43.8825L60.8188 43.949C60.8088 43.244 60.8757 42.54 61.0183 41.8495L61.004 41.859ZM59.6123 41.0943C59.5748 40.7163 59.5972 40.3347 59.6788 39.9638C59.8713 40.3085 59.965 40.6997 59.9495 41.0943V43.4693C59.9495 43.8398 60.1918 43.9443 60.2345 43.664C60.2708 43.1995 60.2819 42.7333 60.2678 42.2675C60.3863 42.3056 60.5022 42.3516 60.6145 42.4053C60.5318 42.9285 60.4889 43.4573 60.4863 43.987C60.2868 43.987 60.073 43.987 59.8498 44.0155C59.7105 43.0446 59.6359 42.0656 59.6265 41.0848L59.6123 41.0943ZM59.3938 42.125C59.4175 42.79 59.4698 43.4598 59.5268 43.9775H59.3463C59.2845 43.626 59.1468 42.8945 58.9995 42.163C59.1278 42.1583 59.275 42.1488 59.3938 42.125ZM58.477 40.8473C58.7181 41.8663 58.8973 42.8989 59.0138 43.9395C58.838 43.9395 58.6623 43.9015 58.4913 43.873C58.4485 43.1605 58.3203 41.1845 58.3108 40.966C58.3013 40.7475 58.325 40.5338 58.477 40.8663V40.8473ZM58.002 42.4338C58.002 42.9088 58.0448 43.417 58.0733 43.797C57.6627 43.7523 57.267 43.6177 56.9143 43.4028C56.9 43.341 57.242 42.809 58.002 42.4528V42.4338ZM56.7908 44.101C58.0068 44.8943 60.1443 45.1603 62.0965 44.5285C61.6215 46.9843 60.548 49.0885 60.282 49.2785C60.016 49.4685 58.914 49.2785 58.3535 49.1883C58.0695 49.1237 57.8057 48.9903 57.5854 48.7998C57.365 48.6093 57.1949 48.3675 57.09 48.0958C56.7756 46.7955 56.6745 45.4527 56.7908 44.12V44.101ZM31.9815 27.0723C31.9622 26.1939 31.8829 25.3178 31.744 24.4503C31.744 24.4503 36.019 24.4788 37.995 24.4503C39.971 24.4218 46.7208 24.4503 49.3143 24.4788C51.9078 24.5073 55.1235 24.5073 55.3278 24.7115C55.2945 25.2293 55.3895 27.1625 55.3563 29.1338C55.323 31.105 55.9168 35.152 55.475 35.5035C55.133 35.779 53.841 35.5035 53.2853 35.3658C53.2045 33.7175 53.1 32.416 53.043 31.9553C52.8673 30.6015 53.1333 26.9535 47.742 26.9915L31.9815 27.0723ZM29.7775 22.2605C29.9485 22.0658 31.9578 22.2605 33.3448 22.2605C34.7318 22.2605 38.945 21.9043 40.1658 21.9043C41.3865 21.9043 49.1385 22.4505 50.5113 22.3793C51.884 22.308 56.7955 22.3223 57.5603 22.3508C58.325 22.3793 58.3535 22.4695 58.382 23.1725C58.4105 23.8755 58.1635 29.6135 58.1208 30.972C58.078 32.3305 58.1208 37.014 57.9213 37.3133C57.7218 37.6125 55.4988 37.5033 53.3613 37.2848C53.3613 36.881 53.3613 36.482 53.3185 36.102C54.0312 36.1374 54.7415 36.2104 55.4465 36.3205C56.1828 36.4678 56.3015 36.14 56.273 35.1995C56.2445 34.259 56.33 30.6015 56.273 29.452C56.216 28.3025 56.1828 24.6545 55.8265 24.17C55.4703 23.6855 50.0933 23.6 48.1838 23.5668C46.2743 23.5335 38.3418 23.9563 36.8218 23.9563C35.3018 23.9563 31.5968 23.8043 31.269 23.9563C30.9413 24.1083 31.0458 25.918 31.0838 27.0628H29.4878C29.578 26.5878 29.7253 25.7945 29.7965 25.1248C29.9058 24.1415 29.6065 22.4505 29.7775 22.2605ZM11.3 28.4213C11.1904 28.4163 11.087 28.369 11.0117 28.2892C10.9363 28.2094 10.8949 28.1035 10.8963 27.9938C10.958 23.6475 10.4213 21.1158 10.3928 18.6885C10.369 16.1805 10.616 12.4138 10.597 10.5755C10.5856 9.66307 10.4628 8.75544 10.2313 7.87277C10.2152 7.81245 10.2125 7.74938 10.2231 7.68788C10.2338 7.62638 10.2576 7.56792 10.293 7.51652C10.3668 7.41486 10.4778 7.34654 10.6018 7.32652C16.7768 6.58077 23.593 7.66377 25.132 7.93452C25.2217 7.95043 25.3027 7.99803 25.3603 8.06865C25.4178 8.13927 25.4481 8.22821 25.4455 8.31927C25.0798 17.957 25.7068 17.9903 25.3125 21.0303C25.085 23.0425 25.0421 25.0713 25.1843 27.0913H24.4243H23.7403C23.5633 24.4324 23.6284 21.763 23.935 19.116C24.334 16.1615 23.992 11.307 23.935 10.186C23.878 9.06502 23.8638 8.41427 21.788 8.48077C19.7123 8.54727 14.5253 8.25277 13.4708 8.16252C12.4163 8.07227 11.376 7.97727 11.6848 8.63752C11.9935 9.29777 11.775 11.25 11.775 13.4683C11.775 15.6865 11.8748 23.296 11.8843 25.082C11.8938 26.868 12.1313 27.1008 13.1858 27.096C15.2615 27.096 19.4558 27.78 21.579 28.046C21.3132 28.3793 21.1235 28.7668 21.0233 29.1813C17.057 28.692 12.6205 28.4735 11.3 28.4213ZM22.225 27.5283C20.097 26.925 17.0428 26.6923 12.725 26.2695C12.725 26.2695 12.6253 25.082 12.6015 23.6998C12.5778 22.3175 12.3355 18.2183 12.3973 16.1473C12.459 14.0763 12.4923 10.1765 12.2025 8.88452C12.2025 8.88452 21.0185 9.57327 22.9518 9.38327C23.4268 10.2478 23.6263 14.9598 23.5028 17.4583C23.3793 19.8333 22.8615 24.8635 23.1133 27.2148C22.8029 27.2734 22.5034 27.3791 22.225 27.5283ZM21.389 31.9743C21.5173 29.2145 21.769 27.6993 24.5383 27.799C27.3075 27.8988 34.651 27.6518 38.5175 27.799C42.384 27.9463 45.4858 27.989 47.8798 27.9748C50.2738 27.9605 51.9173 29.243 52.0883 32.055C52.2593 34.867 52.378 42.79 52.3305 44.5808C52.283 46.3715 51.9838 48.2763 48.4735 48.2715C44.9633 48.2668 27.0178 48.1908 24.6808 47.863C22.3438 47.5353 22.0445 46.3478 21.8308 43.6878C21.617 41.0278 21.275 34.7673 21.3938 31.9743H21.389ZM38.8833 51.4873C38.9004 51.5628 38.9416 51.6306 39.0008 51.6806C39.0599 51.7306 39.1337 51.7599 39.211 51.7642C39.2882 51.7685 39.3648 51.7475 39.4291 51.7044C39.4934 51.6613 39.5419 51.5984 39.5673 51.5253C39.582 51.4054 39.582 51.2841 39.5673 51.1643C39.7483 51.1628 39.9293 51.1739 40.1088 51.1975C40.332 51.2308 40.4698 51.1975 40.5838 51.511C40.6258 51.837 40.6029 52.168 40.5165 52.4852C40.4301 52.8023 40.2818 53.0992 40.0803 53.3588C39.6623 53.7293 38.7313 53.81 37.0735 53.8338C35.8403 53.8149 34.6132 53.6556 33.416 53.3588C33.1168 53.297 33.0503 53.1973 32.941 52.8838C32.8318 52.5703 32.561 51.0503 32.6703 50.8745C32.7795 50.6988 33.4445 50.7605 33.9243 50.7938C33.9193 51.0428 33.9595 51.2906 34.043 51.5253C34.2188 51.7723 34.6938 51.9385 34.7603 51.5253C34.8078 51.2023 34.613 49.782 34.556 49.1503L38.679 49.2073C38.7693 49.8343 38.85 51.2213 38.888 51.4873H38.8833ZM40.028 54.0428C40.028 54.3183 39.9805 54.6413 39.6195 54.6603C39.2585 54.6793 37.4678 54.7173 36.9215 54.7553C35.906 54.7961 34.8889 54.7324 33.8863 54.5653C33.1785 54.3848 33.131 54.1758 33.1405 53.9098C34.4545 54.1208 35.7812 54.243 37.1115 54.2755C37.9 54.2375 40.0328 54.0428 40.0328 54.0428H40.028ZM11.3855 76.686C9.54728 80.3578 7.15803 83.9725 6.87778 84.134C6.59753 84.2955 6.17953 83.9203 6.29828 83.6068C6.41703 83.2933 8.96778 76.648 10.0318 73.8645C11.0198 71.2948 14.1263 63.9465 14.6393 62.0323C15.1143 62.0323 15.5893 62.0323 16.0405 61.9753C16.7435 61.9278 17.5558 61.8898 18.4155 61.8565C16.1545 66.7775 13.1715 73.1188 11.3855 76.686ZM21.5363 68.1028C20.1113 69.77 17.5368 73.2043 17.1425 73.4038C16.7483 73.6033 16.3825 73.6318 16.7198 72.8955C17.057 72.1593 21.142 63.5095 21.7073 62.3838L22.016 61.7663C23.441 61.7663 24.9183 61.7378 26.2245 61.7663C24.885 63.69 22.833 66.6065 21.5363 68.1028ZM69.896 71.575C70.371 72.411 71.1833 73.6175 70.922 73.9833C70.7052 74.1706 70.4396 74.2924 70.1562 74.3345C69.8727 74.3765 69.5832 74.3371 69.3213 74.2208C69.0078 73.9595 64.3148 67.0958 63.3458 65.571C62.676 64.5213 61.6833 62.949 61.1323 62.075H62.0015C62.9515 62.075 63.9015 62.075 64.8848 62.0513C65.8395 63.9085 69.4638 70.8625 69.896 71.575ZM76.4035 67.3475C76.9118 70.6108 78.5648 82.405 78.959 83.9013C79.3533 85.3975 79.7285 86.3475 79.4863 86.5898C79.3311 86.7269 79.1478 86.8285 78.9493 86.8876C78.7507 86.9466 78.5417 86.9617 78.3368 86.9318C78.0945 86.8083 76.3513 79.9113 75.4868 77.3415C74.7078 75.09 71.0503 64.4643 70.1525 61.847C72.214 61.7425 74.171 61.6238 75.8525 61.543C75.8668 62.6023 76.0235 64.925 76.4035 67.3665V67.3475ZM81.8708 60.327C81.3958 60.878 78.4508 60.65 77.5958 60.726C76.7408 60.802 65.944 60.8733 62.4195 60.8733C58.895 60.8733 51.694 61.2295 48.3263 61.2675C44.9585 61.3055 33.625 60.8115 30.1575 60.65C26.69 60.4885 19.7503 60.8068 15.3565 61.0063C12.3894 61.0932 9.4199 60.9741 6.46928 60.65C6.36782 60.637 6.27326 60.5917 6.19965 60.5206C6.12605 60.4496 6.07735 60.3567 6.06078 60.2558C5.97053 59.6003 5.87078 58.6788 6.06078 58.2038C6.30778 57.6385 10.8678 50.1003 11.7608 49.1075C12.6538 48.1148 13.7795 48.1575 14.8388 48.1148C15.898 48.072 19.7693 48.4663 21.1183 48.0483C21.4698 47.939 21.7263 47.8535 21.9115 47.787C22.2283 48.1249 22.6098 48.3958 23.0333 48.5835C23.4568 48.7711 23.9136 48.8718 24.3768 48.8795C25.6165 49.003 29.6018 49.0933 33.948 49.1598C33.9148 49.4685 33.8958 49.8438 33.891 50.2C33.587 50.2 33.0313 50.162 32.732 50.1668C32.3045 50.1668 31.8248 50.2903 31.839 50.8223C31.9061 51.6816 32.0218 52.5364 32.1858 53.3825C32.2713 53.7483 32.5468 53.7055 32.6228 53.81C32.6924 54.1347 32.8336 54.4398 33.036 54.703C33.378 55.0593 35.6818 55.1495 36.7125 55.1305C37.7433 55.1115 39.914 55.0498 40.1705 54.912C40.427 54.7743 40.408 53.962 40.6075 53.8765C40.807 53.791 40.9875 53.563 41.2298 52.8173C41.3574 52.4683 41.4103 52.0964 41.3849 51.7257C41.3596 51.355 41.2565 50.9938 41.0825 50.6655C40.7928 50.2808 39.9378 50.428 39.4628 50.4803C39.382 50.0053 39.2775 49.5303 39.192 49.231C43.1678 49.2785 46.7065 49.307 47.9985 49.3213C49.9983 49.3498 51.1193 48.9888 51.8698 47.939L56.2825 48.1765C56.3141 48.4913 56.4199 48.7941 56.5913 49.06C57.1993 49.8343 59.5125 50.2475 60.3153 49.9055C60.7244 49.6227 61.0442 49.2288 61.2368 48.7703C65.8728 48.7465 70.371 48.8225 72.2235 48.8463C74.076 48.87 77.0258 49.098 77.9235 49.6253C78.8213 50.1525 80.2083 54.1995 80.536 55.2825C80.8638 56.3655 82.322 59.7903 81.8708 60.346V60.327Z" fill="#471280" style="fill:#471280;fill:color(display-p3 0.2784 0.0706 0.5020);fill-opacity:1;"/>
<path d="M60.7 47.7632C61.0515 47.4592 61.2463 46.4617 61.213 45.8632C61.1798 45.2647 60.7 45.583 60.738 46.0342C60.7231 46.5293 60.6016 47.0154 60.3818 47.4592C60.2488 47.825 60.3628 48.072 60.7 47.7632Z" fill="#471280" style="fill:#471280;fill:color(display-p3 0.2784 0.0706 0.5020);fill-opacity:1;"/>
<path d="M69.5065 57.8237C69.5065 58.1657 69.8485 58.18 70.2855 58.104C70.7225 58.028 76.1328 58.1325 76.4605 58.1562C76.7883 58.18 76.8548 58.028 76.8548 57.5007C76.8548 56.9735 76.8548 53.8622 76.6933 52.5085C76.5318 51.1547 76.299 50.4992 76.1138 50.3235C75.9722 50.28 75.8249 50.2576 75.6768 50.257C75.6671 50.1786 75.6529 50.1009 75.634 50.0242C75.5533 49.649 75.3965 49.706 75.3348 50.0717C75.3348 50.1335 75.3348 50.1905 75.311 50.238H74.9405C74.9253 50.1435 74.9047 50.0499 74.8788 49.9577C74.779 49.573 74.4608 49.6537 74.4418 50.067V50.2285H73.9145C73.8952 50.145 73.8714 50.0625 73.8433 49.9815C73.7245 49.6442 73.468 49.6822 73.43 50.01C73.4255 50.0796 73.4255 50.1494 73.43 50.219H73.05C73.0322 50.1155 73.0052 50.0137 72.9693 49.915C72.8505 49.6062 72.594 49.5967 72.5465 50.01V50.2142H71.986C71.986 50.1192 71.9623 50.0242 71.9528 49.9435C71.9243 49.6537 71.663 49.6062 71.6345 49.9435V50.1952H71.283C71.2403 50.0385 71.2023 49.8912 71.188 49.8152C71.1548 49.5635 70.8508 49.5302 70.865 49.8152V50.2095H70.675C70.6701 50.0885 70.6575 49.9679 70.637 49.8485C70.599 49.6205 70.238 49.5635 70.2333 49.8485V50.1905H69.6823C69.4733 50.1905 69.3735 50.0907 69.307 50.5182C69.1704 51.9088 69.1354 53.3074 69.2025 54.703C69.2738 56.508 69.497 57.4865 69.5065 57.8237ZM76.1993 57.572C75.4386 57.6683 74.6707 57.6953 73.905 57.6527C72.917 57.6242 70.105 57.7287 70.048 57.6527C69.9897 57.4413 69.9997 57.2169 70.0765 57.0115C70.2095 56.9165 73.4015 57.1967 74.0808 57.1635C74.8061 57.1065 75.5342 57.0938 76.261 57.1255C76.3988 57.1872 76.28 57.5102 76.1993 57.572ZM69.9435 50.7035C70.0451 50.6823 70.1485 50.6712 70.2523 50.6702V50.8127C70.2903 51.1832 70.656 51.0835 70.6608 50.8127V50.675H70.8698C70.9173 50.865 71.0123 51.0027 71.1928 50.979C71.3733 50.9552 71.3305 50.8412 71.321 50.675H71.5728V50.8697C71.6013 51.1975 72.024 51.188 72.0098 50.922V50.6702H72.537C72.5523 50.7745 72.5745 50.8777 72.6035 50.979C72.6795 51.2735 73.012 51.3542 73.0785 51.0455C73.0887 50.919 73.0887 50.792 73.0785 50.6655H73.4348C73.4468 50.742 73.4676 50.8169 73.4965 50.8887C73.5725 51.0977 73.791 51.264 73.8955 50.9552C73.9282 50.8635 73.9474 50.7675 73.9525 50.6702H74.4608C74.4608 50.7557 74.494 50.846 74.5178 50.9457C74.5235 51.0037 74.5519 51.057 74.5969 51.094C74.6419 51.131 74.6997 51.1485 74.7577 51.1429C74.8156 51.1372 74.8689 51.1087 74.9059 51.0638C74.9429 51.0188 74.9605 50.9609 74.9548 50.903V50.6845H75.2873C75.2873 50.7462 75.2873 50.8175 75.3158 50.8935C75.3188 50.9404 75.3387 50.9847 75.3717 51.0181C75.4048 51.0515 75.4489 51.0718 75.4958 51.0753C75.5426 51.0787 75.5892 51.0651 75.6268 51.037C75.6645 51.0088 75.6907 50.968 75.7005 50.922V50.7272C75.7623 50.7272 75.8003 50.751 75.8003 50.77C75.8003 50.8982 76.033 53.3255 76.0805 54.0237C76.128 54.722 76.3703 56.5317 76.2278 56.6552C76.0853 56.7787 73.8195 56.6552 72.9883 56.6552C72.157 56.6552 70.1383 56.6552 70.0575 56.4842C69.9203 55.6477 69.8678 54.7995 69.9008 53.9525C69.9388 52.9787 69.725 50.7937 69.9435 50.7035Z" fill="#471280" style="fill:#471280;fill:color(display-p3 0.2784 0.0706 0.5020);fill-opacity:1;"/>
<path d="M80.3555 59.5337C79.6953 59.5337 72.518 59.5337 70.504 59.5907C68.49 59.6477 64.6758 59.7997 64.12 59.833C63.683 59.8615 63.5785 60.2652 64.1438 60.2415C64.709 60.2177 71.207 60.0895 73.5298 60.0895C75.8525 60.0895 79.6335 60.0277 80.479 60.0895C81.3245 60.1512 81.011 59.5147 80.3555 59.5337Z" fill="#471280" style="fill:#471280;fill:color(display-p3 0.2784 0.0706 0.5020);fill-opacity:1;"/>
<path d="M65.4928 56.261C65.2743 54.7458 64.0678 52.8315 63.0703 52.8458C62.0728 52.86 60.9423 55.3253 61.0135 56.9308C61.0848 58.5363 61.935 59.3058 63.5215 59.206C65.108 59.1063 65.7113 57.8 65.4928 56.261ZM63.0703 53.4633C63.816 53.4633 64.7613 55.3633 64.7518 56.1375C64.7423 56.9118 64.2388 57.8048 63.284 57.8143C63.0763 57.8137 62.8708 57.7719 62.6794 57.6914C62.4879 57.611 62.3143 57.4934 62.1686 57.3454C62.0228 57.1974 61.9078 57.0221 61.8303 56.8294C61.7527 56.6368 61.714 56.4307 61.7165 56.223C61.6785 55.425 62.3863 53.4633 63.075 53.4633H63.0703ZM61.6453 58.2133C61.327 57.933 61.6785 57.8808 61.9113 58.0945C62.3111 58.4077 62.8143 58.5587 63.3206 58.5173C63.8268 58.4759 64.2988 58.2453 64.6425 57.8713C65.0368 57.3963 65.1745 57.7573 64.9845 58.009C64.792 58.2602 64.5479 58.4673 64.2687 58.6164C63.9895 58.7655 63.6817 58.8531 63.3658 58.8733C63.05 58.8936 62.7334 58.846 62.4375 58.7338C62.1416 58.6216 61.873 58.4473 61.65 58.2228L61.6453 58.2133Z" fill="#471280" style="fill:#471280;fill:color(display-p3 0.2784 0.0706 0.5020);fill-opacity:1;"/>
<path d="M63.2318 54.7695C63.2437 54.5971 63.2437 54.4241 63.2318 54.2517C63.2318 54.0142 62.7568 53.8717 62.7568 54.3182C62.7769 54.4772 62.7656 54.6386 62.7235 54.7932C62.676 55.0735 63.227 54.9975 63.2318 54.7695Z" fill="#471280" style="fill:#471280;fill:color(display-p3 0.2784 0.0706 0.5020);fill-opacity:1;"/>
<path d="M62.4528 56.451C63.0038 56.3607 63.2176 56.1992 63.7686 56.5032C63.9966 56.6267 64.1391 56.432 63.9681 56.1802C63.7415 55.9806 63.4546 55.8628 63.1532 55.8456C62.8518 55.8284 62.5533 55.9127 62.3056 56.0852C62.2731 56.1138 62.2502 56.1517 62.2402 56.1938C62.2302 56.2359 62.2335 56.2801 62.2497 56.3202C62.2658 56.3604 62.2941 56.3945 62.3304 56.4179C62.3668 56.4413 62.4096 56.4529 62.4528 56.451Z" fill="#471280" style="fill:#471280;fill:color(display-p3 0.2784 0.0706 0.5020);fill-opacity:1;"/>
<path d="M46.2505 58.275C47.2005 58.3843 50.7203 58.5743 52.188 58.598C53.6558 58.6218 56.615 58.6645 57.3228 58.123C58.0305 57.5815 58.534 53.1498 58.1255 52.499C57.8738 52.0953 45.9798 51.91 45.0725 52.499C44.7258 52.7175 44.5975 54.912 44.8445 56.299C45.0915 57.686 45.3005 58.1515 46.2505 58.275ZM45.7233 56.7503C45.573 56.4924 45.4958 56.1984 45.5 55.9H46.507C46.5308 56.1233 46.545 56.3038 46.5498 56.375C46.5498 56.7645 46.8918 56.945 46.9013 56.641C46.9013 56.5508 46.9013 56.261 46.8728 55.8905H47.8798C47.913 56.223 47.9415 56.4843 47.951 56.565C47.9843 56.8548 48.2788 56.8548 48.236 56.5365C48.236 56.4558 48.2028 56.2088 48.179 55.8953H49.129V57.1113C47.5663 57.1778 45.9988 57.059 45.7233 56.736V56.7503ZM46.7683 54.513C46.7683 54.2375 46.7398 53.9953 46.7303 53.829H47.6375C47.6375 53.9858 47.6803 54.228 47.7088 54.5035L46.7683 54.513ZM47.7468 54.9263C47.7753 55.1733 47.799 55.4013 47.8228 55.6578H46.8348C46.8348 55.425 46.8063 55.1828 46.792 54.931L47.7468 54.9263ZM48.046 54.532C48.046 54.2518 48.008 54.0143 47.9985 53.8623L49.0958 53.8908V54.5463L48.046 54.532ZM49.11 54.9548V55.672H48.1173C48.1173 55.4393 48.084 55.197 48.065 54.9453L49.11 54.9548ZM56.976 57.8618C56.558 58.0518 55.0333 58.275 52.131 58.275C50.0666 58.2737 48.0042 58.1436 45.956 57.8855C45.747 57.819 45.747 57.4865 45.747 57.4865C45.747 57.4865 48.1553 57.7715 50.1455 57.7953C52.1358 57.819 56.425 57.724 56.881 57.6243C57.337 57.5245 57.375 57.6575 56.976 57.8475V57.8618ZM49.5423 55.672L49.4805 54.9643L50.858 54.9928L50.9008 55.6578L49.5423 55.672ZM50.9245 56.0378L51.0005 57.2158H49.6753L49.5708 56.0045L50.9245 56.0378ZM49.4425 54.5463L49.3855 53.9003L50.8105 53.9383L50.8485 54.5558L49.4425 54.5463ZM51.5325 55.6388H51.2808L51.2095 54.9928H52.6345C52.6345 55.178 52.6345 55.368 52.6725 55.5438V55.5913L51.5325 55.6388ZM52.72 56.052C52.777 56.4605 52.8483 56.8833 52.8958 57.1588C52.5348 57.1588 52.1975 57.1588 51.8983 57.1873H51.4233L51.3045 56.033C51.7605 56.0378 52.2355 56.0425 52.72 56.0378V56.052ZM52.6108 54.551H51.1858L51.1193 53.9383L52.6298 53.9715C52.625 54.095 52.625 54.304 52.625 54.5368L52.6108 54.551ZM54.3445 54.9595C54.3445 55.1495 54.373 55.349 54.3825 55.5485L53.0525 55.5913C53.0289 55.45 53.0177 55.307 53.0193 55.1638V54.9975C53.4658 54.9785 53.9123 54.95 54.3445 54.95V54.9595ZM53.0288 54.5463V53.981H54.2305C54.2305 54.1283 54.2733 54.3183 54.2923 54.532L53.0288 54.5463ZM54.4015 56.0378C54.4216 56.4032 54.4216 56.7695 54.4015 57.135H53.385C53.3185 56.888 53.214 56.4558 53.1333 56.0378H54.4015ZM54.7103 55.539C54.6818 55.3395 54.658 55.14 54.639 54.95L56.2683 54.8693C56.3015 55.0735 56.3253 55.2873 56.3395 55.4915L54.7103 55.539ZM56.3538 56.014C56.3538 56.432 56.3538 56.8025 56.3775 57.0305C56.0118 57.0828 55.5463 57.116 55.0428 57.135C54.9256 56.7806 54.8398 56.4166 54.7863 56.0473L56.3538 56.014ZM54.5963 54.5368C54.5963 54.3183 54.5725 54.1283 54.5963 53.9858H56.1353C56.159 54.1045 56.1923 54.2803 56.2255 54.4608L54.5963 54.5368ZM57.1233 56.774C57.0238 56.8628 56.9025 56.9234 56.7718 56.9498V55.9998H57.3845C57.3518 56.2642 57.2627 56.5185 57.1233 56.7455V56.774ZM57.4463 55.4725H56.7385V55.1638C56.7385 55.0688 56.71 54.9453 56.691 54.8408L57.5365 54.7838C57.4938 54.9975 57.4748 55.2255 57.4463 55.425V55.4725ZM57.5413 54.4228C57.3228 54.4228 57.0045 54.456 56.5913 54.4703C56.5485 54.2898 56.5058 54.1283 56.4678 53.9953C56.8858 53.9953 57.2658 54.0285 57.565 54.0618C57.5555 54.1568 57.546 54.2755 57.5413 54.3943V54.4228ZM45.4525 52.9075C45.4525 52.9075 46.8775 52.7888 48.3025 52.784C49.8748 52.784 53.4325 52.8458 57.5888 53.0785V53.4633H45.4478C45.4478 53.2495 45.4525 53.05 45.4525 52.9075ZM45.4525 53.7768H46.2933C46.2933 53.9288 46.3313 54.1758 46.3645 54.4655H45.4145C45.424 54.228 45.4288 54 45.4335 53.7768H45.4525ZM46.4025 54.8883C46.4025 55.1305 46.45 55.3633 46.4738 55.6103L45.462 55.5675V54.8693L46.4025 54.8883Z" fill="#471280" style="fill:#471280;fill:color(display-p3 0.2784 0.0706 0.5020);fill-opacity:1;"/>
<path d="M59.75 60.0182C58.7193 59.9897 48.7728 59.5147 45.6093 59.3865C42.9018 59.2772 33.929 58.9115 31.269 59.2582C30.3998 59.3722 30.7228 59.8662 31.4305 59.8425C32.1383 59.8187 35.4728 59.8425 39.2918 59.8425C43.1108 59.8425 52.5538 60.251 55.4133 60.5217C56.9334 60.6168 58.4588 60.5834 59.9733 60.422C60.5385 60.365 60.757 60.042 59.75 60.0182Z" fill="#471280" style="fill:#471280;fill:color(display-p3 0.2784 0.0706 0.5020);fill-opacity:1;"/>
<path d="M28.4523 59.3295C27.7778 59.2107 23.498 59.2345 20.9995 59.2107C18.501 59.187 14.2688 59.1632 12.8818 59.0017C11.26 58.8569 9.63091 58.8109 8.00353 58.864C7.17228 58.902 7.35278 59.3722 7.88478 59.4672C8.41678 59.5622 9.59953 59.3722 10.9865 59.3295C12.3735 59.2867 15.518 59.8045 18.0403 59.7427C20.5625 59.681 26.3243 59.7427 27.64 59.928C28.9558 60.1132 29.122 59.4435 28.4523 59.3295Z" fill="#471280" style="fill:#471280;fill:color(display-p3 0.2784 0.0706 0.5020);fill-opacity:1;"/>
<path d="M16.5773 56.5555C16.5244 56.5555 16.4737 56.5766 16.4362 56.614C16.3988 56.6514 16.3778 56.7021 16.3778 56.755C16.3778 56.808 16.3988 56.8587 16.4362 56.8961C16.4737 56.9335 16.5244 56.9545 16.5773 56.9545C16.6302 56.9545 16.681 56.9335 16.7184 56.8961C16.7558 56.8587 16.7768 56.808 16.7768 56.755C16.7768 56.7021 16.7558 56.6514 16.7184 56.614C16.681 56.5766 16.6302 56.5555 16.5773 56.5555Z" fill="#471280" style="fill:#471280;fill:color(display-p3 0.2784 0.0706 0.5020);fill-opacity:1;"/>
<path d="M12.1883 58.0327C13.4709 58.2206 14.7637 58.3301 16.0596 58.3605C17.2661 58.3605 19.5888 58.408 20.4818 58.3605C20.7913 58.3969 21.1026 58.3103 21.3487 58.1192C21.5949 57.9282 21.7561 57.648 21.7976 57.3392C21.9401 56.7692 22.1253 54.722 22.2156 53.8717C22.3058 53.0215 22.4816 51.2117 22.2963 50.5752C22.1934 50.1951 21.9675 49.8598 21.6538 49.6218C21.3401 49.3837 20.9563 49.2563 20.5626 49.2595C19.5223 49.2167 16.0026 49.0457 15.2806 49.0742C14.5586 49.1027 13.8318 49.1265 13.6133 49.687C13.3948 50.2475 11.8653 54.437 11.6278 55.273C11.3903 56.109 11.4283 56.5317 11.6896 56.8357C11.5376 57.3725 11.8938 57.99 12.1883 58.0327ZM20.9901 57.8C20.4201 58.047 19.1803 58.0042 17.6651 57.9805C16.1498 57.9567 12.7108 57.838 12.3783 57.6527C12.0458 57.4675 12.0791 57.2442 12.5398 57.344C13.5236 57.4998 14.5173 57.5855 15.5133 57.6005C16.4111 57.6005 20.3773 57.534 20.8571 57.4722C21.3368 57.4105 21.3321 56.9972 21.4271 57.0447C21.5221 57.0922 21.5601 57.5625 20.9901 57.8ZM12.1693 55.9C12.4448 55.0545 13.7606 50.5752 13.8461 50.2285C13.9316 49.8817 13.9601 49.7107 14.3211 49.7107C15.0668 49.7107 15.4088 49.5445 20.5768 49.7962C21.2893 49.8295 21.4271 50.3852 21.6313 51.1785C21.8356 51.9717 21.5316 54.38 21.3891 55.2445C21.2466 56.109 21.5316 57.0257 20.4058 57.1445C19.2801 57.2632 14.1643 57.1445 13.4898 56.9402C12.8153 56.736 11.8891 56.7692 12.1693 55.9237V55.9Z" fill="#471280" style="fill:#471280;fill:color(display-p3 0.2784 0.0706 0.5020);fill-opacity:1;"/>
<path d="M12.8485 56.2136C13.162 56.4796 15.29 56.4843 15.841 56.4463C16.392 56.4083 19.5033 56.5271 20.059 56.5128C20.6148 56.4986 20.9235 56.2278 20.8808 55.7338C20.8285 55.0878 21.5695 50.7653 20.8808 50.4376C20.5388 50.2761 19.0235 50.3521 18.2018 50.2761C17.38 50.2001 14.8768 50.1431 14.5965 50.1763C14.3163 50.2096 14.4113 50.2143 14.2925 50.6846C14.1738 51.1548 13.2998 53.4158 13.0575 54.1568C12.8153 54.8978 12.5398 55.9476 12.8485 56.2136ZM13.7273 52.8886C13.884 52.3376 14.2973 51.3211 14.4825 50.7938C14.4976 50.7479 14.5269 50.708 14.5662 50.6798C14.6055 50.6516 14.6527 50.6367 14.701 50.6371C15.651 50.6371 20.23 50.6798 20.458 50.7748C20.686 50.8698 20.781 51.4921 20.7715 52.1143C20.7063 53.4203 20.5731 54.722 20.3725 56.0141C20.268 56.2848 20.0543 56.0806 19.3655 56.1043C18.6768 56.1281 15.6368 56.1661 14.929 56.1471C14.2213 56.1281 13.2143 56.0283 13.029 55.8431C12.8438 55.6578 13.5563 53.4918 13.7273 52.8838V52.8886Z" fill="#471280" style="fill:#471280;fill:color(display-p3 0.2784 0.0706 0.5020);fill-opacity:1;"/>
</svg>
