<svg width="32" height="32" viewBox="0 0 32 32" fill="none" xmlns="http://www.w3.org/2000/svg">
<path d="M0.90625 0.09375C0.5875 0.206249 0.15625 0.6625 0.06875 0.975C0.03125 1.10625 0 1.575 0 2.0125V2.8125H0.46875H0.9375V2.03125C0.9375 1.28125 0.94375 1.2375 1.09375 1.09375L1.24375 0.9375H16H30.7563L30.9062 1.09375L31.0625 1.24375V10.3125V19.375H16H0.9375V11.5625V3.75H0.46875H0V12.4V21.05L0.175 21.3812C0.3875 21.7937 0.725 22.0375 1.18125 22.125C1.38125 22.1625 3.08125 22.1875 5.475 22.1875H9.4375V22.7312C9.4375 23.0375 9.46875 23.3938 9.50625 23.5312C9.6 23.8625 10.075 24.3375 10.4062 24.4313C10.5563 24.4688 11.25 24.5 12.1438 24.5H13.625V26.8438V29.1875H13.0813C12.3375 29.1875 12.0938 29.2687 11.7438 29.6187C11.375 29.9875 11.3125 30.2062 11.3125 31.2V32H12.9688H14.625V31.5312V31.0625H13.4375H12.25V30.75C12.25 30.4937 12.2812 30.4 12.4062 30.2812L12.5563 30.125H16H19.4438L19.5938 30.2812C19.7188 30.4 19.75 30.4937 19.75 30.75V31.0625H18.5625H17.375V31.5312V32H19.0312H20.6875V31.2125C20.6875 30.2437 20.6187 29.9937 20.25 29.6187C19.9125 29.2687 19.6688 29.1875 18.925 29.1875H18.375V26.8438V24.5H19.85C21.5688 24.5 21.7188 24.4688 22.125 24.0625C22.475 23.7188 22.5625 23.4437 22.5625 22.725V22.1875H26.525C28.9188 22.1875 30.6187 22.1625 30.8188 22.125C31.275 22.0375 31.6125 21.7937 31.825 21.3812L32 21.05V11.1437C32 3.475 31.9813 1.175 31.925 0.975C31.8188 0.63125 31.3563 0.15625 31.0312 0.0687504C30.8563 0.0187492 26.5063 0 15.9688 0C3.35625 0.00625038 1.11875 0.0187492 0.90625 0.09375ZM31.0625 20.6062C31.0562 20.9625 30.9625 21.1062 30.6812 21.1875C30.3938 21.2688 1.60625 21.2688 1.31875 21.1875C1.0375 21.1062 0.94375 20.9625 0.9375 20.6062V20.3125H16H31.0625V20.6062ZM13.625 22.875V23.5625H12.1562H10.6813L10.5312 23.4062C10.3875 23.2688 10.375 23.2063 10.375 22.7188V22.1875H12H13.625V22.875ZM17.4375 22.875V23.5625H16H14.5625V22.875V22.1875H16H17.4375V22.875ZM21.625 22.7188C21.625 23.2063 21.6125 23.2688 21.4688 23.4062L21.3188 23.5625H19.8438H18.375V22.875V22.1875H20H21.625V22.7188ZM17.4375 26.8438V29.1875H16H14.5625V26.8438V24.5H16H17.4375V26.8438Z" fill="#231F20" style="fill:#231F20;fill:color(display-p3 0.1373 0.1216 0.1255);fill-opacity:1;"/>
<path d="M29.1875 2.34375V2.8125H29.6562H30.125V2.34375V1.875H29.6562H29.1875V2.34375Z" fill="#231F20" style="fill:#231F20;fill:color(display-p3 0.1373 0.1216 0.1255);fill-opacity:1;"/>
<path d="M29.1875 4.21875V4.6875H29.6562H30.125V4.21875V3.75H29.6562H29.1875V4.21875Z" fill="#231F20" style="fill:#231F20;fill:color(display-p3 0.1373 0.1216 0.1255);fill-opacity:1;"/>
<path d="M4.75 10.6188V15.8L9.14375 13.2438C11.5563 11.8313 13.55 10.6625 13.575 10.6375C13.6125 10.6 5.85625 6.0188 4.9625 5.5438L4.75 5.43755V10.6188ZM8.86875 8.9063C11.0875 10.2 11.7313 10.6063 11.675 10.6625C11.5813 10.7438 5.775 14.125 5.725 14.125C5.70625 14.125 5.6875 12.5375 5.6875 10.5938V7.0563L5.8375 7.13755C5.9125 7.1813 7.28125 7.97505 8.86875 8.9063Z" fill="#231F20" style="fill:#231F20;fill:color(display-p3 0.1373 0.1216 0.1255);fill-opacity:1;"/>
<path d="M16.9875 7.4C16.3187 7.6375 15.9437 8.21875 16.0187 8.88125C16.0812 9.39375 16.3687 9.7875 16.8437 10.0063C17.0812 10.1187 17.375 10.125 22.1 10.125H27.1L27.425 9.9625C28.4187 9.46875 28.425 8.0625 27.4312 7.5L27.1562 7.34375L22.1875 7.33125C18.15 7.31875 17.175 7.33125 16.9875 7.4ZM27.1312 8.43125C27.2875 8.61875 27.2812 8.81875 27.1187 9.025L26.9937 9.1875H22.0937H17.1937L17.0687 9.025C16.8625 8.7625 16.925 8.425 17.2062 8.3125C17.2812 8.28125 19.4687 8.2625 22.175 8.26875L27.0125 8.28125L27.1312 8.43125Z" fill="#231F20" style="fill:#231F20;fill:color(display-p3 0.1373 0.1216 0.1255);fill-opacity:1;"/>
<path d="M17.4187 11.1063C17.3938 11.125 17.375 11.3375 17.375 11.575V12H22.0938H26.8188L26.8 11.5438L26.7812 11.0938L22.1188 11.075C19.5563 11.0688 17.4375 11.0813 17.4187 11.1063Z" fill="#231F20" style="fill:#231F20;fill:color(display-p3 0.1373 0.1216 0.1255);fill-opacity:1;"/>
<path d="M17.4187 12.9813C17.3938 13 17.375 13.2125 17.375 13.45V13.875H22.0938H26.8188L26.8 13.4188L26.7812 12.9688L22.1188 12.95C19.5563 12.9438 17.4375 12.9563 17.4187 12.9813Z" fill="#231F20" style="fill:#231F20;fill:color(display-p3 0.1373 0.1216 0.1255);fill-opacity:1;"/>
<path d="M15.5 31.5312V32H16H16.5V31.5312V31.0625H16H15.5V31.5312Z" fill="#231F20" style="fill:#231F20;fill:color(display-p3 0.1373 0.1216 0.1255);fill-opacity:1;"/>
</svg>
