<svg width="117" height="98" viewBox="0 0 117 98" fill="none" xmlns="http://www.w3.org/2000/svg">
<path d="M48.14 22.6217C47.1424 22.4696 38.287 22.4696 36.6982 22.6217C36.671 22.6287 36.647 22.6475 36.6311 22.6743C36.6151 22.7012 36.6083 22.7341 36.612 22.7666C36.6177 22.7909 36.6286 22.813 36.6437 22.8308C36.6588 22.8485 36.6776 22.8614 36.6982 22.868C38.1269 23.0129 47.124 23.0781 48.1093 22.926C48.2509 22.9115 48.294 22.6434 48.14 22.6217ZM89.7382 40.7486C89.615 40.7486 88.0324 41.4079 88.4511 41.676L88.8945 42.1107C88.796 42.3715 89.7628 43.5597 89.0977 46.3562C88.8206 46.1316 88.8145 46.3562 88.8514 46.4287C89.8798 47.6748 97.2265 54.5938 98.8645 55.8472C99.0123 56.1007 99.9483 55.5574 100.096 55.4994C103.35 53.8674 106.526 52.0293 109.61 49.9932C110.737 49.2687 110.725 46.6678 109.358 45.6462C107.92 44.5212 106.423 43.5048 104.875 42.6033L106.784 40.8428C106.919 40.7197 106.845 40.2632 106.328 40.7559C105.214 38.6383 104.763 36.1298 105.053 33.663C105.127 33.6123 105.953 33.0327 105.589 32.8444C103.742 31.9387 97.6206 29.2943 95.7362 29.1567C95.1204 29.106 90.1939 33.7427 89.732 34.6773C88.7467 36.6117 89.0485 38.8215 89.769 40.7704L89.7382 40.7486ZM89.2455 46.4649C89.8613 45.6752 89.6704 43.509 89.3749 42.5526C90.2185 43.3496 96.9986 49.3629 99.1539 50.9713C100.318 53.8693 99.0185 55.2748 99.0616 55.4922C95.4529 52.5434 92.5155 49.1745 89.2455 46.4649ZM109.315 46.1389C110.343 46.762 110.109 49.3557 109.37 49.6599C106.061 51.7457 102.684 53.6792 99.2463 55.4559C99.7009 54.7344 99.9488 53.8617 99.9545 52.9637L104.696 50.6742C104.782 50.6235 104.696 50.4859 104.629 50.5076C103.036 51.1338 101.478 51.8717 99.9607 52.7173C99.9487 52.0131 99.7625 51.3283 99.4249 50.7467C100.872 50.0729 108.268 45.5593 109.315 46.1389ZM99.0493 38.778C100.861 37.013 102.757 35.3706 104.727 33.8587C104.583 34.7396 104.556 35.6414 104.647 36.5321C104.345 36.648 100.613 39.8647 100.423 40.0386C100.342 40.1111 100.423 40.2632 100.521 40.2053L104.69 36.8726C104.819 37.8941 105.343 40.2197 106.15 40.8501C105.331 41.6325 101.279 45.4072 100.293 45.4072C99.5545 44.5687 99.0433 43.4918 98.8241 42.312C98.6049 41.1323 98.6875 39.9026 99.0616 38.778H99.0493ZM98.2425 32.5256C98.6736 32.9603 96.8878 34.1847 96.82 34.2064C96.6168 34.2789 96.4813 34.0325 96.9186 33.5399C97.1402 33.3153 97.9531 32.2575 98.2425 32.5328V32.5256ZM94.8864 33.7355C95.1943 33.011 96.4752 31.8083 97.0171 31.3736C97.0438 31.3517 97.0739 31.3363 97.1056 31.3281C97.1374 31.3199 97.1702 31.3191 97.2023 31.3258C97.2343 31.3326 97.2649 31.3466 97.2923 31.3673C97.3197 31.3879 97.3433 31.4147 97.3619 31.4461C97.3805 31.4775 97.3937 31.5129 97.4007 31.5503C97.4076 31.5876 97.4083 31.6263 97.4026 31.6639C97.3969 31.7016 97.3849 31.7376 97.3673 31.7698C97.3498 31.8021 97.327 31.8299 97.3004 31.8518C96.82 32.2865 95.5145 33.7283 95.1512 34.0253C95.1238 34.0431 95.0931 34.0524 95.0619 34.0524C95.0307 34.0524 94.9999 34.0431 94.9726 34.0253C94.951 34.0136 94.9316 33.997 94.9155 33.9764C94.8994 33.9558 94.887 33.9316 94.879 33.9053C94.871 33.879 94.8675 33.8511 94.8688 33.8232C94.87 33.7952 94.876 33.7679 94.8864 33.7427V33.7355ZM90.3663 34.9889C93.0081 35.8322 95.6035 36.8654 98.1379 38.0825C98.298 38.1767 98.2425 38.4954 98.0516 38.452C95.4116 37.5865 92.8184 36.5341 90.2863 35.3004C90.2581 35.2819 90.2362 35.2526 90.2241 35.2173C90.212 35.1821 90.2105 35.1431 90.2199 35.1068C90.2292 35.0705 90.2488 35.039 90.2755 35.0175C90.3021 34.9961 90.3341 34.986 90.3663 34.9889ZM89.9106 41.0964C92.848 43.0453 98.3164 45.5231 100.379 45.8853C100.792 45.9578 104.142 43.1902 104.69 42.7193C105.047 43.1322 108.022 45.1101 108.779 45.6607C107.683 45.7259 99.7267 50.0874 99.1539 50.5149C95.7362 47.5082 92.1891 44.4581 88.6851 41.5963L89.9168 41.0964H89.9106ZM58.1408 8.81278C58.1034 8.79467 58.0613 8.79467 58.0238 8.81278C57.6605 9.0736 55.5606 12.4353 55.1357 13.0656C54.7292 12.4135 54.3166 11.7687 53.904 11.1384C53.824 11.0225 53.6577 11.1384 53.7193 11.2906C54.1319 12.0658 54.5753 12.812 55.0248 13.5582C55.0987 13.6742 55.2404 13.6162 55.3019 13.522C55.6899 12.9424 58.1593 9.43585 58.264 9.03738C58.2685 9.01311 58.2689 8.98803 58.2652 8.96358C58.2614 8.93913 58.2536 8.9158 58.2421 8.89493C58.2307 8.87405 58.2158 8.85605 58.1985 8.84195C58.1811 8.82785 58.1615 8.81794 58.1408 8.81278ZM46.3973 24.0272C42.7024 24.1142 38.6073 24.0272 37.0185 24.1866C36.9858 24.1866 36.9545 24.2019 36.9314 24.2291C36.9083 24.2562 36.8953 24.2931 36.8953 24.3315C36.8953 24.3699 36.9083 24.4068 36.9314 24.434C36.9545 24.4612 36.9858 24.4764 37.0185 24.4764C38.9275 24.4764 44.8701 24.7083 46.3973 24.3243C46.5266 24.288 46.502 24.0707 46.3973 24.0272ZM46.5328 16.746C46.6559 16.746 46.6929 16.4997 46.5328 16.478C45.3011 16.2606 37.9114 16.6881 36.1194 17.0141C36.0867 17.0141 36.0554 17.0294 36.0323 17.0565C36.0092 17.0837 35.9962 17.1206 35.9962 17.159C35.9962 17.1974 36.0092 17.2343 36.0323 17.2615C36.0554 17.2886 36.0867 17.3039 36.1194 17.3039C38.5334 17.3039 44.0203 16.8619 46.502 16.7605L46.5328 16.746ZM44.0818 18.195C44.1865 18.195 44.2419 17.9487 44.0818 17.9052C43.466 17.7241 37.3079 17.9052 36.378 18.0284C36.3634 18.031 36.3493 18.0371 36.3367 18.0462C36.3241 18.0553 36.3131 18.0673 36.3045 18.0815C36.2959 18.0957 36.2898 18.1118 36.2866 18.1288C36.2833 18.1458 36.283 18.1634 36.2856 18.1805C36.289 18.2087 36.2996 18.235 36.3162 18.2558C36.3327 18.2765 36.3543 18.2907 36.378 18.2965C37.5665 18.3761 43.3552 18.4269 44.0818 18.195ZM57.211 22.1798C57.5497 21.6002 53.8363 21.8103 53.6762 22.0059C53.5161 22.2015 53.6762 25.1792 53.6762 25.4545C53.6762 25.8819 57.1186 25.8747 57.2541 25.7515C57.4077 24.5727 57.4077 23.3731 57.2541 22.1943L57.211 22.1798ZM56.9462 25.4255C56.6198 25.4255 54.1996 25.4762 54.0026 25.2951C54.0026 24.2736 53.9472 23.2593 53.9164 22.245H56.9954C56.8846 23.3002 56.8681 24.3662 56.9462 25.4255Z" fill="#100259" style="fill:#100259;fill:color(display-p3 0.0627 0.0078 0.3490);fill-opacity:1;"/>
<path d="M100.626 42.3137C101.488 41.7123 102.368 41.1255 103.2 40.4734C103.317 40.3792 103.2 40.1329 103.064 40.2199L100.533 42.147C100.519 42.1634 100.51 42.1851 100.508 42.2085C100.506 42.2318 100.51 42.2553 100.521 42.2749C100.532 42.2946 100.549 42.3092 100.568 42.3162C100.587 42.3233 100.607 42.3224 100.626 42.3137ZM94.4182 50.2686C94.3443 50.2107 94.2457 50.3483 94.3196 50.4208C94.9354 51.0511 97.9652 53.5434 98.6303 54.094C98.7165 54.1664 98.7904 53.9998 98.7104 53.9274C97.4172 52.7682 95.7914 51.2395 94.4182 50.2686ZM54.5258 19.6586C54.846 19.6586 57.3524 19.9991 57.3278 19.5137C57.3031 19.0283 57.2662 16.239 57.1061 16.1521C57.063 15.6666 53.9408 16.0216 53.6514 16.0868C53.4728 16.0868 53.5467 18.9124 53.559 19.2529C53.5775 19.7456 54.2487 19.6441 54.5258 19.6586ZM56.946 16.3187V19.3688C55.9087 19.2432 54.8644 19.219 53.8238 19.2964C53.8646 18.3036 53.8481 17.3088 53.7745 16.3187C54.2857 16.3187 56.6196 16.4129 56.946 16.3187ZM98.4948 52.703C98.5104 52.7183 98.53 52.7267 98.5503 52.7267C98.5705 52.7267 98.5902 52.7183 98.6057 52.703C98.6178 52.687 98.6245 52.6664 98.6245 52.645C98.6245 52.6236 98.6178 52.603 98.6057 52.587C95.7853 50.2324 92.9833 47.3996 90.2122 45.1899C90.1321 45.1175 90.0089 45.2551 90.089 45.3493C91.6408 47.0881 96.4873 51.1453 98.5195 52.7392L98.4948 52.703ZM57.3155 11.3849C57.3069 11.3525 57.288 11.3253 57.2627 11.3091C57.2374 11.2929 57.2077 11.2889 57.18 11.2979C57.1614 11.3031 57.1443 11.3138 57.1302 11.329C57.1162 11.3442 57.1058 11.3635 57.0999 11.3849V13.9206H53.6883C53.6286 12.753 53.5176 11.5899 53.3558 10.4358C54.319 10.4884 55.2842 10.4593 56.2439 10.3488C56.2656 10.3406 56.2841 10.3239 56.2965 10.3015C56.3088 10.279 56.3142 10.2522 56.3117 10.2257C56.3082 10.2102 56.302 10.1959 56.2935 10.1834C56.285 10.1709 56.2744 10.1606 56.2624 10.1532C56.0346 10.0663 53.1834 9.77647 53.2696 10.3561C52.9863 10.3561 53.3989 13.9786 53.3989 13.9786C53.5467 14.4205 54.1687 14.2684 54.495 14.2684C54.8214 14.2684 57.0876 14.3336 57.2723 14.2684C57.5679 14.1307 57.4017 11.8123 57.3339 11.3704L57.3155 11.3849Z" fill="#100259" style="fill:#100259;fill:color(display-p3 0.0627 0.0078 0.3490);fill-opacity:1;"/>
<path d="M116.821 77.1113C108.976 77.6764 101.128 78.1594 93.2789 78.5603C93.1764 77.239 92.9702 75.9318 92.6631 74.6552C100.463 74.4137 108.264 74.1312 116.064 73.8076C116.104 73.8019 116.141 73.7811 116.17 73.7485C116.199 73.7158 116.218 73.673 116.224 73.6264C116.229 73.5699 116.215 73.5131 116.186 73.4684C116.156 73.4237 116.112 73.3946 116.064 73.3874C108.231 73.7303 100.4 74.0128 92.5707 74.235C90.7233 66.6568 86.8252 59.448 82.2805 53.739C82.1388 51.8118 82.1327 50.841 81.4306 48.9066C80.0759 45.2479 78.5794 44.4871 78.6164 45.3565C78.616 45.5855 78.6472 45.8131 78.7088 46.0303C78.4624 45.6681 76.6519 43.4511 76.2825 44.6465C76.01 44.4449 75.7025 44.318 75.3826 44.2754C75.0628 44.2327 74.7389 44.2754 74.435 44.4002C73.2835 42.2267 71.356 42.2267 70.1243 41.5022C67.7719 40.0532 68.8558 35.4309 70.5862 33.7066C70.5862 33.7066 78.0191 33.54 78.0252 33.4313C78.1607 31.381 79.6448 0.176876 79.6448 0.176876C61.3305 -0.250578 41.6245 0.176875 23.4457 0.611573C23.3226 0.611573 23.2179 0.705759 23.2302 0.836168C24.3264 11.8123 27.0175 34.279 27.0175 34.279C27.4608 34.4891 67.7165 33.7501 70.1243 33.7066C69.0946 35.028 68.531 36.7609 68.5479 38.5535C68.671 43.1178 71.7562 41.1762 74.2811 44.5161C72.643 45.3421 72.4336 47.7836 73.0494 49.5296C73.1613 49.8644 73.3127 50.179 73.499 50.4642C73.5248 51.1451 73.6896 51.8086 73.9793 52.3987C74.7676 54.1592 76.1716 54.7678 76.2455 55.0286C76.2455 59.1292 76.9783 64.1283 77.6742 68.1275C75.328 66.6785 68.3693 63.2227 61.2135 62.9763C61.62 58.825 64.6682 58.3033 64.2495 55.5285C65.5242 55.4705 66.799 55.4126 68.0737 55.3401C68.3939 55.3401 68.0429 54.1809 68.0059 53.9853C67.4887 51.3047 66.9693 48.6289 66.4479 45.9579C66.3679 45.5956 66.0107 43.1613 65.709 43.1613L61.737 43.2483C60.8625 42.2702 58.8119 41.9079 57.9744 43.0454C56.7427 40.2561 52.937 40.6618 52.8138 43.3714C51.7731 42.5382 50.2274 42.3716 49.2852 43.5018C49.1867 43.5525 30.5584 43.8496 27.7872 43.98H27.738C27.708 44.0024 27.6867 44.0377 27.6787 44.0783C27.6706 44.119 27.6764 44.1617 27.6948 44.1973C27.7441 44.5741 26.1368 53.5144 25.9459 55.6661C25.9459 55.9704 28.7356 55.927 29.025 55.927C25.0469 61.4114 21.469 67.5986 20.4036 74.8363C13.6913 74.7132 6.97891 74.5176 0.266555 74.5465C0.233891 74.5465 0.202564 74.5618 0.179466 74.589C0.156369 74.6162 0.143393 74.653 0.143393 74.6915C0.143393 74.7299 0.156369 74.7667 0.179466 74.7939C0.202564 74.8211 0.233891 74.8363 0.266555 74.8363C6.94812 75.1769 13.6482 75.2131 20.3359 75.271C20.1367 76.7076 20.0542 78.1631 20.0896 79.618C13.4388 79.4586 6.78801 79.2123 0.143393 79.0819C-0.00440212 79.0819 -0.0290346 79.3572 0.143393 79.3572C6.79417 79.7557 13.4573 79.9006 20.1204 80.0165C20.2928 83.9505 21.6106 88.7757 24.8867 90.5434C26.2354 93.6588 29.0927 96.4626 32.2765 95.6584C32.1841 96.2235 32.0979 96.8031 32.0055 97.3827C31.9686 97.6435 32.3011 97.7522 32.3381 97.4914C33.2433 91.7534 34.1855 85.9864 35.7682 80.4512C35.8174 80.2773 35.5957 80.2121 35.5403 80.3788C34.0008 85.1894 33.1325 90.2464 32.3319 95.2817C29.0743 95.8395 26.4755 93.398 25.1269 90.0943C24.4013 88.3486 23.9816 86.449 23.8928 84.5086C23.8039 82.5682 24.0477 80.6266 24.6096 78.7994C26.2908 73.7279 30.7678 70.1054 35.1647 67.6276C39.6353 65.135 44.4366 63.5642 49.3591 62.9836C49.7101 66.8524 53.4912 68.1637 56.3732 67.9609C59.2552 67.758 60.961 66.722 61.2074 63.3023C61.2443 63.3023 71.6084 63.5704 80.5562 70.6053C83.1857 72.6701 85.5751 75.3218 86.973 78.6907C88.3401 81.9437 88.8204 85.9357 87.5888 89.3263C85.8276 94.2674 82.613 94.9846 80.4823 95.4266C79.729 90.1215 78.2745 84.9879 76.1716 80.2121C76.1162 80.089 75.9438 80.1686 75.9992 80.2991C78.1922 85.8625 79.6878 91.7707 80.4392 97.8391C80.4392 98.0275 80.7594 98.0782 80.7594 97.8391C80.7345 97.1759 80.6603 96.5165 80.5377 95.8685C82.8601 95.6335 85.0104 94.3321 86.5234 92.246C91.4499 90.797 93.5991 84.5301 93.2974 79.0095C101.163 78.6327 109.021 78.1497 116.871 77.5605C117.086 77.4663 117.006 77.1113 116.821 77.1113ZM27.0421 29.7002C25.8105 20.4845 24.8313 11.3124 23.7167 2.08955C42.1911 1.71281 61.1458 1.8722 79.3677 1.50995L77.9452 28.6859C70.2537 28.9612 28.0335 29.2437 27.0421 29.7002ZM64.1756 55.1228C64.0628 54.7365 63.8468 54.4035 63.5598 54.1737C63.879 53.5764 64.0517 52.8868 64.0586 52.1813H64.3911L64.853 55.0793L64.1756 55.1228ZM63.6583 49.8122C63.7637 49.7123 63.8606 49.6007 63.9477 49.4789C64.0955 50.2541 64.2187 51.0294 64.3419 51.8046H64.0463C64.0764 51.111 63.9421 50.4212 63.6583 49.8122ZM67.8705 54.9344L65.0377 55.0793C64.9638 54.1012 64.8037 53.1376 64.6559 52.1813C65.5412 52.2159 66.4274 52.1893 67.3101 52.1016C67.4948 53.0362 67.6857 53.9926 67.8705 54.9344ZM67.2546 51.7683H64.6067L64.1633 49.0515L66.7189 48.9645L67.2546 51.7683ZM66.6388 48.653L64.231 48.7399C64.2773 48.3964 64.2565 48.0449 64.17 47.7122C64.0836 47.3796 63.9339 47.0744 63.7322 46.82C63.6953 46.6027 63.6583 46.3781 63.609 46.1535L66.1462 46.0883L66.6388 48.653ZM65.6966 43.4801C65.8321 44.2046 65.9553 44.9798 66.0784 45.7333L63.5475 45.784C63.4182 45.0223 63.2516 44.27 63.0486 43.5308L65.6966 43.4801ZM63.3689 46.552C63.0691 46.3916 62.7304 46.3633 62.4144 46.4723C62.4426 46.3826 62.4652 46.2905 62.4821 46.197H63.295L63.3689 46.552ZM62.7531 43.5381C62.8685 44.2987 63.0207 45.0509 63.2088 45.7912H62.5252C62.5957 44.9886 62.4066 44.1841 61.9956 43.5381H62.7531ZM47.8442 43.8496H49.0328C48.7818 44.306 48.6933 44.8603 48.7864 45.3928L47.7395 45.7478C47.7888 45.1247 47.8442 44.4292 47.8442 43.8496ZM47.5117 43.8496V45.8709C47.4074 45.9439 47.3066 46.0237 47.2099 46.11L44.2972 46.168C44.3241 45.4163 44.3055 44.6634 44.2417 43.9148L47.5117 43.8496ZM46.2185 49.1022H44.2787V46.5665L46.8035 46.5157C46.5365 46.8598 46.3438 47.2745 46.242 47.7248C46.1402 48.175 46.1321 48.6475 46.2185 49.1022ZM44.291 52.4566H45.9722C45.9959 53.0887 46.1949 53.6943 46.5387 54.1809C46.3355 54.3463 46.1721 54.5705 46.0642 54.832C45.9563 55.0935 45.9077 55.3833 45.9229 55.6734H44.2602C44.2787 54.5866 44.291 53.5216 44.291 52.4566ZM46.1384 51.58C46.0844 51.7313 46.0452 51.8892 46.0214 52.0509H44.3218V49.4355H46.3109C46.4446 49.8678 46.6847 50.2436 47.0006 50.515C46.6158 50.7493 46.305 51.1225 46.1138 51.58H46.1384ZM44.0755 55.6661H36.4455C36.5256 54.42 36.4455 53.6375 37.1291 52.5653L44.0077 52.4711C44.0016 53.5361 44.02 54.6011 44.0508 55.6661H44.0755ZM37.3816 52.1668C38.0224 51.4046 38.5068 50.4803 38.798 49.4644H40.3375V52.1233L37.3816 52.1668ZM40.7316 43.9945L43.9585 43.9293C43.9238 44.6798 43.9238 45.432 43.9585 46.1825L40.7131 46.2477C40.7131 45.5014 40.7193 44.748 40.7316 43.9945ZM40.6885 46.6461L43.9461 46.5809V49.1167H40.6454C40.6454 48.2908 40.6454 47.4721 40.6885 46.6461ZM40.6454 49.4572H43.9769V52.0726L40.5099 52.1233C40.5592 51.2322 40.5961 50.3701 40.6454 49.4572ZM37.5663 44.0597L40.5161 44.0017L40.4483 46.2549L37.4432 46.3129C37.5163 45.5651 37.5389 44.8117 37.5109 44.0597H37.5663ZM37.4185 46.7041L40.4422 46.6461L40.3867 49.1094H38.878C38.9519 48.711 39.0874 48.0589 38.6871 47.8416C38.2868 47.6242 37.905 48.711 37.166 49.1022C37.2338 48.3052 37.2954 47.5083 37.3631 46.7113L37.4185 46.7041ZM34.7829 44.1177L37.3262 44.0669C37.2382 44.8142 37.1827 45.5662 37.1599 46.3201H36.9505C37.2153 45.5594 35.7866 45.0667 34.555 46.3201C34.5735 45.9506 34.7459 44.364 34.7274 44.1177H34.7829ZM37.0798 46.7476C37.0367 47.5373 36.9998 48.3197 36.9567 49.1094H35.996C35.8113 48.4719 35.996 46.9722 36.4887 46.7476H37.0675H37.0798ZM34.4134 44.1394L34.3148 46.3853H33.1633C32.7076 45.2696 32.997 44.4219 32.5475 44.1539L34.4134 44.1394ZM34.167 46.791C34.0251 47.0003 33.9051 47.2289 33.8099 47.4721L33.3542 46.8128L34.167 46.791ZM30.232 44.2336L32.2088 44.1901C31.5929 44.5379 31.5006 45.7695 31.5006 46.4433H30.5707C30.2566 46.1245 30.1211 46.4433 29.8871 46.4433L30.2197 44.1901L30.232 44.2336ZM31.5991 47.914C31.2574 47.6458 30.9797 47.2792 30.7924 46.849H31.4883C31.4956 47.206 31.5244 47.5619 31.5745 47.914H31.5991ZM29.5608 49.0008L29.8563 46.8707C29.7946 47.6061 29.8724 48.3485 30.0842 49.0442L29.5608 49.0008ZM30.1766 49.3558C30.4291 50.3483 30.7924 51.2539 30.9648 52.2538L29.1174 52.2972L29.4869 49.3485L30.1766 49.3558ZM27.9412 44.2408H29.961C29.844 44.9653 29.7332 45.7478 29.6223 46.5085C28.9511 46.5085 28.2737 46.552 27.6025 46.5882C27.7475 45.8139 27.8524 45.03 27.9165 44.2408H27.9412ZM27.5594 46.8852H29.5608C29.4684 47.6097 29.3699 48.3342 29.2713 49.008H27.2084C27.313 48.2835 27.4239 47.5807 27.5347 46.8852H27.5594ZM27.1837 49.2616C27.8611 49.3051 28.5385 49.3268 29.2159 49.3413C29.0989 50.3194 28.9634 51.3119 28.8526 52.2972C28.1321 52.2972 27.4116 52.3552 26.6911 52.3914C26.8573 51.3481 27.0175 50.3049 27.1837 49.2616ZM28.5693 55.543H26.1923C26.3462 54.5721 26.5063 53.6086 26.6726 52.645L28.8095 52.7102C28.6796 53.6484 28.5912 54.594 28.5447 55.543H28.5693ZM28.7417 55.543L29.1051 52.645H31.0202C31.0387 52.8376 31.0387 53.032 31.0202 53.2246L29.2898 55.5502L28.7417 55.543ZM24.548 77.8068C23.8278 79.7376 23.4677 81.8276 23.4921 83.936C23.5166 86.0444 23.9249 88.1221 24.6897 90.0291C18.7286 85.2908 19.9972 74.8146 22.5343 68.1203C24.6096 62.6358 27.8981 57.9773 31.2666 53.5071C31.7592 52.8478 30.1643 48.4357 30.1088 47.3562C30.0719 46.552 30.3552 46.3853 30.6076 46.9577C30.8601 47.53 31.2235 48.1821 31.7223 48.3197C31.9193 49.0008 32.0733 48.7834 32.0486 48.6747C31.8393 47.4793 31.4759 45.7768 32.1533 44.6755C32.646 43.9075 32.6275 45.3203 32.6768 45.5956C32.7938 46.2549 33.2926 47.53 33.7421 47.7691C33.5882 48.2835 33.8468 48.1024 33.8653 48.0372C34.7397 45.3348 37.4124 45.7188 36.5502 46.3853C36.3229 46.545 36.1298 46.7638 35.9856 47.0251C35.8415 47.2863 35.7502 47.583 35.7189 47.8923C35.4048 50.4498 37.1168 50.0658 38.3607 48.2835C38.878 47.559 38.9026 49.1167 38.0836 50.6888C37.3877 52.0219 36.4455 52.5001 36.3347 54.2461C36.0268 58.5134 35.2817 63.6066 34.7829 67.3595C30.6939 69.6852 26.5125 72.8295 24.5234 77.814L24.548 77.8068ZM35.1031 67.1639C35.7044 63.48 36.134 59.7602 36.3901 56.0211H45.9414C46.2985 58.4482 48.8603 58.7742 49.2729 62.5416C44.358 63.1069 39.5637 64.6709 35.1031 67.1639ZM61.1027 61.3172C60.9494 61.887 60.8502 62.475 60.8071 63.0705C60.5608 66.1424 59.4523 67.1639 56.5518 67.4175C53.4728 67.7145 50.1351 66.5698 49.667 62.6648C49.2544 59.1872 48.3061 59.4915 46.785 57.0572C46.3293 56.3327 45.9229 54.9851 46.785 54.42C47.2086 54.9674 47.7391 55.3852 48.3307 55.6372C49.6609 59.151 50.1104 63.2009 53.9777 63.6501C61.4537 64.4688 59.7787 59.6799 62.1496 55.4995C62.6105 55.2488 63.028 54.9 63.3812 54.4707C63.65 54.7351 63.8356 55.0981 63.9082 55.5014C63.9808 55.9047 63.9361 56.325 63.7815 56.6949C63.178 58.412 61.7247 59.064 61.1027 61.3172ZM76.3625 45.0667C76.5719 45.6174 76.7874 46.1607 76.9783 46.7113C76.6766 46.2549 75.1986 44.3567 74.706 45.371C74.4535 45.8999 74.9831 46.6896 75.1986 47.1605C74.3721 47.3327 73.6334 47.8723 73.1357 48.6675C72.3474 45.2986 75.1309 43.6177 76.3625 45.0667ZM73.579 50.0006C73.462 49.6601 73.3389 49.3123 73.2157 48.9718C73.7561 48.2274 74.4823 47.7026 75.291 47.4721C75.6375 48.3135 75.8622 49.217 75.9561 50.1455C76.1223 52.0002 74.9154 50.6744 74.3303 50.0368C74.1025 49.7615 73.7207 49.6456 73.5483 50.0006H73.579ZM86.9114 91.594C88.9497 88.2323 89.0359 83.8926 87.8536 80.0962C86.1786 74.7277 82.1943 70.9675 78.0006 68.3376C77.1943 63.9565 76.6714 59.5099 76.4364 55.0358C76.4364 54.3548 74.4781 53.8911 73.8685 51.2177C73.7576 50.7323 73.5298 49.4572 74.2749 50.3701C75.0201 51.2829 76.2886 52.1234 76.2332 50.1237C76.1593 47.7546 74.7922 46.1752 74.9154 45.6391C75.0693 44.9653 76.2086 46.2332 76.3933 46.4505C76.8746 47.0736 77.3113 47.7424 77.6988 48.4501C77.7666 48.5661 77.9328 48.4501 77.8713 48.3415C77.7276 48.0517 77.5798 47.7619 77.4279 47.4721C77.5264 47.2257 76.4179 44.9218 76.615 44.7045C76.8121 44.4871 77.6988 45.2406 77.8959 45.429C78.9243 46.4795 78.9736 47.1823 79.3246 47.7256C79.3405 47.7323 79.3579 47.7323 79.3738 47.7256C79.3958 47.7277 79.4175 47.7199 79.4347 47.7038C79.4519 47.6876 79.4631 47.6643 79.4662 47.6387C79.4293 47.175 79.2014 46.9142 79.0906 46.5954C78.9797 46.2767 78.7519 45.5594 78.9058 45.3058C78.9797 45.2334 79.4046 45.6029 79.4539 45.6608C79.8602 46.1186 80.1993 46.6523 80.4577 47.2402C82.3421 51.0294 81.7755 53.4709 82.0957 53.8404C86.7698 60.0349 91.764 69.1056 92.7739 77.2924C93.4575 82.9725 91.9364 89.5944 86.8806 91.594H86.9114Z" fill="#100259" style="fill:#100259;fill:color(display-p3 0.0627 0.0078 0.3490);fill-opacity:1;"/>
<path d="M42.2466 12.6963C42.3882 12.6456 42.3328 12.4065 42.2035 12.3848C39.9619 12.4355 37.5787 12.3848 35.368 12.4572C35.1956 12.4572 35.2202 12.7688 35.368 12.7977C36.5011 13.0151 41.2613 13.0513 42.2466 12.6963ZM101.038 51.4425C101.876 51.015 105.965 49.0733 106.451 48.7473C106.46 48.7378 106.468 48.7261 106.473 48.713C106.478 48.6999 106.48 48.6856 106.48 48.6712C106.48 48.6569 106.478 48.6426 106.473 48.6295C106.468 48.6164 106.46 48.6047 106.451 48.5952C106.441 48.5776 106.427 48.5636 106.411 48.5547C106.395 48.5457 106.377 48.5422 106.359 48.5445C105.324 48.798 101.974 50.6745 100.934 51.2831C100.878 51.3338 100.952 51.4859 101.038 51.4425ZM59.7357 34.4312L46.6805 34.6631C47.2408 42.1109 59.902 42.2268 59.7357 34.4312ZM59.7357 18.4923C59.7356 18.5238 59.7458 18.554 59.7641 18.5769C59.7825 18.5998 59.8075 18.6136 59.8342 18.6155C61.9218 18.6734 66.3372 18.8256 68.006 18.5575C68.1415 18.5575 68.0984 18.2894 68.006 18.2894C65.6475 18.2894 62.242 18.2894 59.865 18.3691C59.8494 18.3647 59.8331 18.3645 59.8174 18.3687C59.8017 18.3728 59.787 18.3812 59.7745 18.3931C59.7619 18.405 59.7519 18.4202 59.7452 18.4374C59.7385 18.4546 59.7352 18.4734 59.7357 18.4923ZM41.8771 7.62484C42.0495 7.62484 41.9756 7.33504 41.834 7.30606C37.5911 7.45096 32.9725 7.55963 28.8342 7.66831C28.8204 7.67092 28.8071 7.67678 28.7952 7.68554C28.7833 7.69429 28.7731 7.70577 28.765 7.71929C28.757 7.7328 28.7513 7.74808 28.7484 7.76421C28.7455 7.78035 28.7453 7.79701 28.748 7.81321C28.7516 7.83859 28.7618 7.86202 28.7773 7.88021C28.7927 7.8984 28.8126 7.91044 28.8342 7.91464C31.8455 8.16821 37.9667 7.78423 41.8771 7.62484ZM44.248 5.96574C44.3896 5.96574 44.4327 5.67594 44.248 5.6542C42.8686 5.45859 29.2653 5.71941 28.3169 5.96574C28.2246 5.96574 28.2307 6.18309 28.3169 6.18309C31.8086 6.17584 40.1775 5.89329 44.248 5.96574ZM17.7373 57.8398C18.2117 56.8074 18.5757 55.7099 18.8211 54.5723C18.9358 54.1813 18.962 53.762 18.8972 53.3555C18.8324 52.9491 18.6789 52.5694 18.4516 52.2539C18.6751 51.5922 18.7901 50.8866 18.7903 50.1746C18.6671 48.9937 17.6018 49.0661 17.0291 49.9717C14.7198 53.5942 12.1703 59.3902 12.2442 63.8458C12.2011 64.056 12.2935 64.295 12.4536 64.1212C15.1876 60.9344 17.2099 57.0021 18.3408 52.6741C19.1105 54.0217 17.922 56.3473 17.4786 57.7094C17.4232 57.8905 17.6572 57.9992 17.7373 57.8398ZM12.4782 63.5488C12.5234 62.7449 12.6181 61.9458 12.7615 61.158L13.7099 61.9622C13.3096 62.4838 12.897 63.0272 12.4782 63.5488ZM18.1991 51.9568C17.7821 51.5451 17.2813 51.268 16.7458 51.1527C16.9516 50.7104 17.1995 50.2972 17.4848 49.921C17.7619 49.6167 18.2915 49.4936 18.4516 50.0079C18.506 50.6674 18.4192 51.3324 18.1991 51.9424V51.9568ZM33.8716 15.0509C33.6006 15.1813 32.0241 17.9489 31.7347 18.4343C31.3764 17.8742 30.963 17.3659 30.5031 16.9201C30.4774 16.9061 30.4483 16.9035 30.4211 16.9129C30.3939 16.9222 30.3705 16.9428 30.3553 16.9709C30.3463 16.9989 30.3463 17.0298 30.3553 17.0578C30.7064 17.7343 31.1194 18.3635 31.5869 18.9342C31.6036 18.956 31.6241 18.9734 31.6469 18.9853C31.6697 18.9972 31.6943 19.0034 31.7193 19.0034C31.7442 19.0034 31.7689 18.9972 31.7917 18.9853C31.8145 18.9734 31.8349 18.956 31.8517 18.9342V18.898L33.8716 15.6523C34.1548 15.1813 34.0748 14.9278 33.8716 15.0509ZM70.8203 11.2473C70.9496 11.2473 70.9743 10.9575 70.8203 10.9358C66.978 10.711 63.1275 10.7763 59.2923 11.1314C59.163 11.1314 59.1753 11.3995 59.2923 11.3922C62.1989 11.3632 67.6489 11.4719 70.8203 11.2473Z" fill="#100259" style="fill:#100259;fill:color(display-p3 0.0627 0.0078 0.3490);fill-opacity:1;"/>
<path d="M33.8715 19.4414C34.1178 19.3255 33.6251 17.1665 33.5574 16.8259C33.5527 16.7959 33.5382 16.7691 33.517 16.7514C33.4958 16.7337 33.4696 16.7265 33.4439 16.7312C33.4182 16.7359 33.3951 16.7523 33.3795 16.7767C33.3639 16.8012 33.357 16.8318 33.3603 16.8622C33.4342 17.6374 33.5081 18.4198 33.6313 19.1806C32.6029 19.2747 31.673 19.2675 30.6692 19.3182C30.4845 18.3764 30.3244 17.1447 30.0534 16.2101C30.828 16.2867 31.6066 16.2867 32.3812 16.2101C32.8923 16.2101 32.8554 15.8334 32.4181 15.8406C32.1595 15.8406 29.9549 15.7899 29.9549 16.1014C29.6655 16.1014 30.2751 19.1371 30.3121 19.3399C30.3184 19.3761 30.3344 19.4089 30.3576 19.4336C30.3809 19.4584 30.4102 19.4738 30.4414 19.4776C30.5153 19.8543 33.7544 19.7964 33.8715 19.4414ZM71.1651 16.8984C71.1596 16.8702 71.1464 16.845 71.1274 16.8266C71.1085 16.8083 71.0849 16.7978 71.0604 16.797C67.3286 16.681 63.3381 16.8911 59.557 16.8839C59.4461 16.8839 59.44 17.1012 59.557 17.1157C62.8701 17.3766 67.9936 17.5359 71.085 17.0578C71.1128 17.0477 71.1364 17.0258 71.1512 16.9963C71.166 16.9668 71.171 16.9319 71.1651 16.8984ZM30.5276 14.2033C31.3914 14.2316 32.2559 14.1856 33.114 14.0656C33.6498 14.225 32.8307 10.2692 32.7322 10.0881C32.7192 10.054 32.6972 10.0257 32.6695 10.0074C32.6418 9.98913 32.6098 9.98186 32.5782 9.98668C32.024 9.98668 29.4499 9.98668 29.0866 10.0809C28.6432 9.66066 29.2898 13.2324 29.3822 13.6599C29.5608 14.3771 29.9549 14.2033 30.5276 14.2033ZM29.1605 10.3272C30.2967 10.4905 31.4446 10.5099 32.5844 10.3852L32.9785 13.7323L29.7517 13.928C29.7763 13.6816 29.2344 10.8054 29.1605 10.3272ZM68.2461 12.7688C68.2788 12.7688 68.3101 12.7535 68.3332 12.7263C68.3563 12.6991 68.3693 12.6623 68.3693 12.6239C68.3693 12.5854 68.3563 12.5486 68.3332 12.5214C68.3101 12.4942 68.2788 12.479 68.2461 12.479C67.4825 12.2978 60.9179 12.5731 59.557 12.7108C59.4523 12.7108 59.4523 12.9209 59.557 12.9281C60.296 12.9644 67.5133 12.9861 68.2461 12.7688ZM16.5363 35.7498C16.6533 35.7498 17.5216 35.1702 17.7248 36.1121C18.0081 37.4017 19.1166 36.6265 19.2952 35.6411C19.523 34.424 18.5377 33.4676 17.3738 33.4676C15.0091 33.4676 15.551 35.8802 16.5363 35.7498ZM17.3738 33.7502C18.704 33.8009 19.523 35.2789 18.7163 36.1483C18.0266 36.8728 18.1005 35.8295 17.768 35.4238C17.1029 34.6993 16.5733 35.5759 16.1976 35.2064C15.4279 34.4819 16.8997 33.7067 17.3738 33.7502ZM31.7962 21.9481C30.8293 21.9481 30.7924 21.7598 30.9156 22.8682C30.9525 23.1798 31.1434 25.3823 31.4636 25.404C31.5314 25.7517 34.2964 25.6286 34.6474 25.5054C35.1216 25.5054 34.6474 23.7884 34.6474 23.5927C34.2409 21.0715 34.7459 21.854 31.7962 21.9481ZM31.6176 25.2374C31.4636 24.3245 31.3466 23.1146 31.1249 22.2452C32.1332 22.3611 33.1502 22.3172 34.1486 22.1148C34.2112 23.1235 34.3451 24.1243 34.5488 25.1069C33.5882 25.1577 32.5906 25.2156 31.6176 25.2374ZM72.1319 5.53827C70.9988 5.4151 54.6798 5.53827 52.6106 5.72664C52.5839 5.73199 52.56 5.74932 52.5439 5.775C52.5278 5.80067 52.5208 5.83268 52.5244 5.86429C52.5288 5.88926 52.5393 5.91218 52.5546 5.93021C52.5699 5.94823 52.5894 5.96058 52.6106 5.96572C54.3657 6.0744 70.8756 6.02368 72.1319 5.85705C72.1678 5.85705 72.2023 5.84026 72.2277 5.81036C72.2531 5.78047 72.2674 5.73993 72.2674 5.69766C72.2674 5.65539 72.2531 5.61484 72.2277 5.58495C72.2023 5.55506 72.1678 5.53827 72.1319 5.53827ZM44.3403 10.8633C44.4819 10.8271 44.4326 10.6025 44.3095 10.5735L34.9553 10.8488C34.9417 10.8505 34.9286 10.8556 34.9167 10.8636C34.9048 10.8716 34.8945 10.8824 34.8864 10.8953C34.8783 10.9083 34.8726 10.9231 34.8696 10.9388C34.8666 10.9545 34.8664 10.9707 34.8691 10.9865C34.8726 11.0119 34.8829 11.0353 34.8983 11.0535C34.9138 11.0717 34.9337 11.0837 34.9553 11.0879C37.3015 11.2908 42.3019 11.3487 44.3403 10.8633ZM81.4307 31.229C81.4738 31.7796 81.9418 37.2713 82.1142 37.6697C83.3458 40.4953 87.8782 40.5677 87.9767 36.3874C88.1492 34.6486 88.7465 29.6568 88.5125 28.4179C88.5802 28.0122 88.9374 26.2444 89.0052 25.3098C89.0052 25.1577 89.2515 21.0208 88.7588 21.6511C88.1013 22.681 87.5183 23.774 87.0161 24.9186C86.9299 25.3605 86.8437 25.7952 86.7513 26.2299C86.4789 26.109 86.1959 26.024 85.9076 25.9763C85.9076 25.6793 85.7229 24.2303 85.6367 23.6507C85.2117 22.6799 84.7745 21.8105 84.405 20.8034C83.8816 19.2892 83.8693 19.2603 83.7215 20.9266C83.4747 22.6241 83.4747 24.3585 83.7215 26.056C80.9318 26.7371 81.2213 28.6715 81.4245 31.229H81.4307ZM88.1676 23.2595C88.243 23.3452 88.3331 23.4109 88.4319 23.4522C88.5307 23.4934 88.6359 23.5092 88.7404 23.4986V25.3243C88.4809 25.3539 88.219 25.3217 87.9704 25.2296C87.7217 25.1375 87.4914 24.9873 87.2932 24.7882C87.5949 24.2883 87.909 23.7739 88.1676 23.2595ZM87.2809 25.1649C87.6888 25.5061 88.1783 25.6862 88.6788 25.6793C88.4756 27.0269 88.2723 28.3672 88.1122 29.722C87.9029 30.6059 86.8806 30.9247 86.2155 31.0333C86.622 29.1207 86.9299 27.0631 87.2809 25.1432V25.1649ZM86.0492 30.5117C86.0193 30.6936 85.9987 30.8775 85.9877 31.0623L84.4851 31.1058L83.8693 24.281C84.1478 24.3799 84.4425 24.3973 84.728 24.3316C85.0135 24.266 85.281 24.1193 85.5073 23.9043C85.5073 23.9043 85.9076 30.403 86.0492 30.49V30.5117ZM83.9432 21.9626C84.0375 21.9916 84.1359 21.9976 84.2323 21.9801C84.3287 21.9627 84.421 21.9222 84.5036 21.8612L85.3472 23.6435C85.1261 23.8373 84.8698 23.9683 84.5984 24.0261C84.327 24.084 84.048 24.067 83.7831 23.9767C83.7724 23.2932 83.8261 22.6105 83.9432 21.9409V21.9626ZM88.2108 30.3088C88.0999 32.1346 87.9028 35.9889 87.5026 37.7132C86.7944 39.9519 83.7092 39.9881 82.3482 37.7132C82.0896 35.1992 81.8309 32.6417 81.5785 30.1639C82.73 32.1273 87.207 31.8882 88.2108 30.2871V30.3088Z" fill="#100259" style="fill:#100259;fill:color(display-p3 0.0627 0.0078 0.3490);fill-opacity:1;"/>
<path d="M5.42714 38.2925C6.36441 38.8684 7.35392 39.318 8.37688 39.6329C6.41244 42.8134 12.0348 47.3487 17.1768 44.9289C19.5354 43.8204 21.894 40.2994 19.5847 37.8578C22.0479 35.5177 22.9162 32.1416 22.8115 28.4394C22.6514 22.7303 20.5084 18.5282 15.6004 17.1734C13.1823 16.5077 10.6485 16.738 8.34609 17.8327L7.39158 15.8911C7.69333 15.7027 8.00739 15.5216 8.3153 15.3622C9.12817 15.0362 8.88185 14.3334 8.40151 14.5435C-1.03274 18.5934 -3.21271 33.1921 5.42714 38.2925ZM8.45078 39.1257C8.27835 38.4012 8.74021 37.6767 8.52468 36.887C8.03203 35.0106 5.96905 36.0973 5.44561 34.8294C4.87291 33.4456 6.40012 33.2066 6.70803 32.214C6.76248 32.0402 6.77635 31.8525 6.74819 31.6703C6.72004 31.4881 6.65088 31.3181 6.54792 31.178C5.66115 29.8739 3.61049 31.2504 4.19551 28.2075C4.6389 25.9109 6.52328 24.8241 7.89039 25.8384C9.25749 26.8527 10.0765 27.5337 11.807 26.3456C14.689 24.3532 14.3318 28.5191 13.4512 29.7797C12.9832 30.4607 12.1333 30.4245 11.4806 30.7143C9.34986 31.6561 9.36218 33.3442 11.0495 33.7572C11.7023 33.9166 12.5398 33.8441 13.0509 34.4237C14.4365 36.0104 11.5729 39.401 10.6677 39.9589C10.1812 39.843 8.6971 39.5024 8.45078 39.1257ZM16.2654 17.811C19.8926 19.1368 21.8078 22.2232 22.325 26.6354C22.5709 28.5395 22.5103 30.4811 22.1464 32.3589C21.9987 32.598 19.9172 33.2718 19.246 32.2575C18.9868 31.8475 18.8138 31.3713 18.741 30.8676C18.6682 30.3639 18.6978 29.8471 18.8272 29.3595C19.2275 28.1423 20.5884 27.0701 20.1697 25.8239C19.5908 24.0996 17.8973 26.4542 17.183 25.9688C16.1115 25.2443 18.119 23.8533 15.8282 23.3534C14.9845 23.1723 14.2948 23.578 13.6729 22.484C12.2503 19.9772 15.9514 17.8037 16.2654 17.7892V17.811ZM9.23902 21.0205C9.26559 21.0699 9.30585 21.107 9.35298 21.1254C9.40011 21.1439 9.45122 21.1427 9.49766 21.1219C9.551 21.0961 9.5937 21.0469 9.6167 20.9847C9.63969 20.9225 9.64117 20.8522 9.62082 20.7887L8.50004 18.2167C10.7841 17.1392 13.2989 16.9364 15.6866 17.6371C12.6075 18.8325 12.2442 22.9187 14.455 23.6215C14.923 23.7736 17.0167 23.5563 16.6534 24.6068C16.5797 24.7772 16.5383 24.9645 16.5322 25.1556C16.5261 25.3467 16.5554 25.537 16.6181 25.7135C16.6808 25.8899 16.7754 26.0482 16.8952 26.1774C17.0151 26.3066 17.1574 26.4035 17.3123 26.4615C18.1745 26.6426 19.0982 25.1139 19.7325 25.737C20.8409 26.8237 17.9466 28.5046 18.4393 30.9244C18.8087 32.7791 19.4615 33.3659 21.0626 33.0979C21.4133 33.0624 21.7535 32.9389 22.0602 32.7356C20.7362 38.1911 15.7851 40.7051 11.2589 40.0458C12.1703 39.0605 13.5867 37.1044 13.7221 35.6988C13.9315 33.2066 11.4991 33.7065 10.6061 33.1558C9.3745 32.4313 11.1357 31.1707 12.2627 30.8809C12.6319 30.8094 12.9894 30.67 13.3219 30.468C15.1693 29.1349 14.6582 23.7736 11.9794 25.7515C9.68856 27.4396 8.98038 26.0051 7.91502 25.3603C6.20922 24.3387 3.86913 25.9471 3.75213 28.9827C3.68439 31.0476 5.13155 30.6056 5.97521 31.1562C6.12641 31.223 6.25265 31.3505 6.33156 31.5163C6.41046 31.682 6.43693 31.8753 6.40628 32.0619C6.20922 32.7864 5.31629 32.9312 5.06997 33.8079C4.97256 34.1498 4.97612 34.5204 5.08006 34.8596C5.184 35.1989 5.38224 35.4869 5.64267 35.6771C6.44939 36.2277 7.87807 35.7495 8.21677 37.0609C8.38304 37.6984 8.05666 38.3505 8.09361 38.9953C6.52244 38.3309 5.13895 37.1663 4.0973 35.6313C3.05566 34.0962 2.39679 32.251 2.19412 30.3013C1.63989 25.3747 4.19551 20.5858 7.95197 18.492C8.33993 19.3324 8.82642 20.2018 9.23902 21.0205ZM3.6967 19.0861C4.62115 17.9583 5.68645 17.0031 6.85582 16.2533C7.19906 16.8729 7.51358 17.5138 7.79802 18.1732C5.8653 19.2296 4.2568 20.962 3.19212 23.1339C2.12745 25.3058 1.65849 27.8114 1.84927 30.3086C1.97764 31.7399 2.35896 33.1237 2.96876 34.3714C3.57855 35.6191 4.40334 36.703 5.39019 37.5535C-0.496979 33.7065 -0.743304 24.6358 3.6967 19.0861ZM69.4224 24.1938C68.8928 24.0562 60.9734 24.0127 59.8526 24.1938C59.8249 24.1938 59.7983 24.2068 59.7786 24.2299C59.759 24.253 59.748 24.2843 59.748 24.317C59.748 24.3496 59.759 24.381 59.7786 24.4041C59.7983 24.4272 59.8249 24.4401 59.8526 24.4401C60.2776 24.5126 68.5541 24.6792 69.4224 24.4401C69.4511 24.4326 69.4768 24.4138 69.4952 24.3868C69.5136 24.3598 69.5236 24.3262 69.5236 24.2916C69.5236 24.257 69.5136 24.2234 69.4952 24.1964C69.4768 24.1694 69.4511 24.1506 69.4224 24.1431V24.1938ZM72.0519 7.53036C66.1093 7.61006 58.4301 7.37098 53.0726 7.53036C52.9248 7.53036 52.9371 7.77669 53.0726 7.79118C55.3203 8.08098 70.2414 8.05925 72.0519 7.79118C72.0695 7.78943 72.0866 7.78345 72.1022 7.77362C72.1177 7.76379 72.1314 7.75031 72.1424 7.73402C72.1533 7.71773 72.1613 7.69897 72.1659 7.67889C72.1705 7.65882 72.1715 7.63786 72.1689 7.61731C72.159 7.59069 72.1426 7.56818 72.1218 7.55267C72.1009 7.53717 72.0766 7.5294 72.0519 7.53036ZM71.393 22.6217C67.7905 22.5275 63.2889 22.7883 59.4524 22.6724C59.3415 22.6724 59.3169 22.8607 59.4524 22.8752C61.8109 23.1505 69.1945 23.4258 71.4176 22.9187C71.5346 22.8825 71.5469 22.6217 71.393 22.6217Z" fill="#100259" style="fill:#100259;fill:color(display-p3 0.0627 0.0078 0.3490);fill-opacity:1;"/>
</svg>
